999
dxflib 3.17.0.0
  0
SECTION
  2
HEADER
  9
$ACADVER
  1
AC1015
  9
$HANDSEED
  5
FFFF
  9
$DIMADEC
 70
0
  9
$DIMASZ
 40
0.18
  9
$DIMAUNIT
 70
0
  9
$DIMAZIN
 70
0
  9
$DIMDEC
 70
4
  9
$DIMDLI
 40
0.36
  9
$DIMDSEP
 70
46
  9
$DIMEXE
 40
0.18
  9
$DIMEXO
 40
0.0625
  9
$DIMGAP
 40
0.09
  9
$DIMLUNIT
 70
2
  9
$DIMSCALE
 40
1.0
  9
$DIMTSZ
 40
0.0
  9
$DIMTXT
 40
0.18
  9
$DIMZIN
 70
0
  9
$DWGCODEPAGE
  3
ANSI_1252
  9
$INSUNITS
 70
4
  9
$LTSCALE
 40
1.0
  9
$MAXACTVP
 70
64
  9
$MEASUREMENT
 70
0
  9
$MIRRTEXT
 70
0
  9
$PDMODE
 70
0
  9
$PDSIZE
 40
0.0
  0
ENDSEC
  0
SECTION
  2
TABLES
  0
TABLE
  2
VPORT
  5
8
100
AcDbSymbolTable
 70
1
  0
VPORT
  5
30
100
AcDbSymbolTableRecord
100
AcDbViewportTableRecord
  2
*Active
 70
0
 10
0.0
 20
0.0
 11
1.0
 21
1.0
 12
286.3055555555554861
 22
148.5
 13
0.0
 23
0.0
 14
10.0
 24
10.0
 15
10.0
 25
10.0
 16
0.0
 26
0.0
 36
1.0
 17
0.0
 27
0.0
 37
0.0
 40
297.0
 41
1.92798353909465
 42
50.0
 43
0.0
 44
0.0
 50
0.0
 51
0.0
 71
0
 72
100
 73
1
 74
3
 75
1
 76
1
 77
0
 78
0
281
0
 65
1
110
0.0
120
0.0
130
0.0
111
1.0
121
0.0
131
0.0
112
0.0
122
1.0
132
0.0
 79
0
146
0.0
  0
ENDTAB
  0
TABLE
  2
LTYPE
  5
5
100
AcDbSymbolTable
 70
41
  0
LTYPE
  5
16
100
AcDbSymbolTableRecord
100
AcDbLinetypeTableRecord
  2
Continuous
 70
0
  3
Solid line
 72
65
 73
0
 40
0.0
  0
LTYPE
  5
31
100
AcDbSymbolTableRecord
100
AcDbLinetypeTableRecord
  2
DASHDOT
 70
0
  3
Dash dot __ . __ . __ . __ . __ . __ . __ . __
 72
65
 73
4
 40
1.0
 49
0.5
 74
0
 49
-0.25
 74
0
 49
0.0
 74
0
 49
-0.25
 74
0
  0
LTYPE
  5
32
100
AcDbSymbolTableRecord
100
AcDbLinetypeTableRecord
  2
ACAD_ISO15W100
 70
0
  3
ISO double-dash triple-dot __ __ . . . __ __ . .
 72
65
 73
10
 40
39.0
 49
12.0
 74
0
 49
-3.0
 74
0
 49
12.0
 74
0
 49
-3.0
 74
0
 49
0.0
 74
0
 49
-3.0
 74
0
 49
0.0
 74
0
 49
-3.0
 74
0
 49
0.0
 74
0
 49
-3.0
 74
0
  0
LTYPE
  5
33
100
AcDbSymbolTableRecord
100
AcDbLinetypeTableRecord
  2
CENTER
 70
0
  3
Center ____ _ ____ _ ____ _ ____ _ ____ _ ____
 72
65
 73
4
 40
2.0
 49
1.25
 74
0
 49
-0.25
 74
0
 49
0.25
 74
0
 49
-0.25
 74
0
  0
LTYPE
  5
34
100
AcDbSymbolTableRecord
100
AcDbLinetypeTableRecord
  2
ACAD_ISO02W100
 70
0
  3
ISO dash __ __ __ __ __ __ __ __ __ __ __ __ __
 72
65
 73
2
 40
15.0
 49
12.0
 74
0
 49
-3.0
 74
0
  0
LTYPE
  5
35
100
AcDbSymbolTableRecord
100
AcDbLinetypeTableRecord
  2
PHANTOMX2
 70
0
  3
Phantom (2x) ____________    ____    ____   _
 72
65
 73
6
 40
5.0
 49
2.5
 74
0
 49
-0.5
 74
0
 49
0.5
 74
0
 49
-0.5
 74
0
 49
0.5
 74
0
 49
-0.5
 74
0
  0
LTYPE
  5
36
100
AcDbSymbolTableRecord
100
AcDbLinetypeTableRecord
  2
ACAD_ISO14W100
 70
0
  3
ISO dash triple-dot __ . . . __ . . . __ . . . _
 72
65
 73
8
 40
24.0
 49
12.0
 74
0
 49
-3.0
 74
0
 49
0.0
 74
0
 49
-3.0
 74
0
 49
0.0
 74
0
 49
-3.0
 74
0
 49
0.0
 74
0
 49
-3.0
 74
0
  0
LTYPE
  5
37
100
AcDbSymbolTableRecord
100
AcDbLinetypeTableRecord
  2
DOT
 70
0
  3
Dot . . . . . . . . . . . . . . . . . . . . . . . .
 72
65
 73
2
 40
0.25
 49
0.0
 74
0
 49
-0.25
 74
0
  0
LTYPE
  5
38
100
AcDbSymbolTableRecord
100
AcDbLinetypeTableRecord
  2
PHANTOM2
 70
0
  3
Phantom (.5x) ___ _ _ ___ _ _ ___ _ _ ___ _ _
 72
65
 73
6
 40
1.25
 49
0.625
 74
0
 49
-0.125
 74
0
 49
0.125
 74
0
 49
-0.125
 74
0
 49
0.125
 74
0
 49
-0.125
 74
0
  0
LTYPE
  5
39
100
AcDbSymbolTableRecord
100
AcDbLinetypeTableRecord
  2
PHANTOM
 70
0
  3
Phantom ______  __  __  ______  __  __  ______ 
 72
65
 73
6
 40
2.5
 49
1.25
 74
0
 49
-0.25
 74
0
 49
0.25
 74
0
 49
-0.25
 74
0
 49
0.25
 74
0
 49
-0.25
 74
0
  0
LTYPE
  5
3A
100
AcDbSymbolTableRecord
100
AcDbLinetypeTableRecord
  2
HIDDEN2
 70
0
  3
Hidden (.5x) _ _ _ _ _ _ _ _ _ _ _ _ _ _ _ _ _ 
 72
65
 73
2
 40
0.1875
 49
0.125
 74
0
 49
-0.0625
 74
0
  0
LTYPE
  5
3B
100
AcDbSymbolTableRecord
100
AcDbLinetypeTableRecord
  2
HIDDENX2
 70
0
  3
Hidden (2x) ____ ____ ____ ____ ____ ____ ____ 
 72
65
 73
2
 40
0.75
 49
0.5
 74
0
 49
-0.25
 74
0
  0
LTYPE
  5
3C
100
AcDbSymbolTableRecord
100
AcDbLinetypeTableRecord
  2
ACAD_ISO08W100
 70
0
  3
ISO long-dash short-dash ____ __ ____ __ ____ _
 72
65
 73
4
 40
36.0
 49
24.0
 74
0
 49
-3.0
 74
0
 49
6.0
 74
0
 49
-3.0
 74
0
  0
LTYPE
  5
3D
100
AcDbSymbolTableRecord
100
AcDbLinetypeTableRecord
  2
HIDDEN
 70
0
  3
Hidden __ __ __ __ __ __ __ __ __ __ __ __ __ __
 72
65
 73
2
 40
0.375
 49
0.25
 74
0
 49
-0.125
 74
0
  0
LTYPE
  5
3E
100
AcDbSymbolTableRecord
100
AcDbLinetypeTableRecord
  2
DASHDOTX2
 70
0
  3
Dash dot (2x) ____  .  ____  .  ____  .  ___
 72
65
 73
4
 40
2.0
 49
1.0
 74
0
 49
-0.5
 74
0
 49
0.0
 74
0
 49
-0.5
 74
0
  0
LTYPE
  5
3F
100
AcDbSymbolTableRecord
100
AcDbLinetypeTableRecord
  2
CENTER2
 70
0
  3
Center (.5x) ___ _ ___ _ ___ _ ___ _ ___ _ ___
 72
65
 73
4
 40
1.125
 49
0.75
 74
0
 49
-0.125
 74
0
 49
0.125
 74
0
 49
-0.125
 74
0
  0
LTYPE
  5
40
100
AcDbSymbolTableRecord
100
AcDbLinetypeTableRecord
  2
DASHED2
 70
0
  3
Dashed (.5x) _ _ _ _ _ _ _ _ _ _ _ _ _ _ _ _ _ 
 72
65
 73
2
 40
0.375
 49
0.25
 74
0
 49
-0.125
 74
0
  0
LTYPE
  5
41
100
AcDbSymbolTableRecord
100
AcDbLinetypeTableRecord
  2
ACAD_ISO12W100
 70
0
  3
ISO dash double-dot __ . . __ . . __ . . __ . . 
 72
65
 73
6
 40
21.0
 49
12.0
 74
0
 49
-3.0
 74
0
 49
0.0
 74
0
 49
-3.0
 74
0
 49
0.0
 74
0
 49
-3.0
 74
0
  0
LTYPE
  5
15
100
AcDbSymbolTableRecord
100
AcDbLinetypeTableRecord
  2
BYLAYER
 70
0
  3

 72
65
 73
0
 40
0.0
  0
LTYPE
  5
42
100
AcDbSymbolTableRecord
100
AcDbLinetypeTableRecord
  2
DOT2
 70
0
  3
Dot (.5x) ........................................
 72
65
 73
2
 40
0.125
 49
0.0
 74
0
 49
-0.125
 74
0
  0
LTYPE
  5
43
100
AcDbSymbolTableRecord
100
AcDbLinetypeTableRecord
  2
DASHDOT2
 70
0
  3
Dash dot (.5x) _._._._._._._._._._._._._._._.
 72
65
 73
4
 40
0.5
 49
0.25
 74
0
 49
-0.125
 74
0
 49
0.0
 74
0
 49
-0.125
 74
0
  0
LTYPE
  5
44
100
AcDbSymbolTableRecord
100
AcDbLinetypeTableRecord
  2
DASHED
 70
0
  3
Dashed __ __ __ __ __ __ __ __ __ __ __ __ __ _
 72
65
 73
2
 40
0.75
 49
0.5
 74
0
 49
-0.25
 74
0
  0
LTYPE
  5
45
100
AcDbSymbolTableRecord
100
AcDbLinetypeTableRecord
  2
ACAD_ISO06W100
 70
0
  3
ISO long-dash triple-dot ____ ... ____ ... ____
 72
65
 73
8
 40
36.0
 49
24.0
 74
0
 49
-3.0
 74
0
 49
0.0
 74
0
 49
-3.0
 74
0
 49
0.0
 74
0
 49
-3.0
 74
0
 49
0.0
 74
0
 49
-3.0
 74
0
  0
LTYPE
  5
46
100
AcDbSymbolTableRecord
100
AcDbLinetypeTableRecord
  2
DASHEDX2
 70
0
  3
Dashed (2x) ____  ____  ____  ____  ____  ___
 72
65
 73
2
 40
1.5
 49
1.0
 74
0
 49
-0.5
 74
0
  0
LTYPE
  5
47
100
AcDbSymbolTableRecord
100
AcDbLinetypeTableRecord
  2
ACAD_ISO11W100
 70
0
  3
ISO double-dash dot __ __ . __ __ . __ __ . __ _
 72
65
 73
6
 40
33.0
 49
12.0
 74
0
 49
-3.0
 74
0
 49
12.0
 74
0
 49
-3.0
 74
0
 49
0.0
 74
0
 49
-3.0
 74
0
  0
LTYPE
  5
48
100
AcDbSymbolTableRecord
100
AcDbLinetypeTableRecord
  2
BORDERX2
 70
0
  3
Border (2x) ____  ____  .  ____  ____  .  ___
 72
65
 73
6
 40
3.5
 49
1.0
 74
0
 49
-0.5
 74
0
 49
1.0
 74
0
 49
-0.5
 74
0
 49
0.0
 74
0
 49
-0.5
 74
0
  0
LTYPE
  5
49
100
AcDbSymbolTableRecord
100
AcDbLinetypeTableRecord
  2
BORDER
 70
0
  3
Border __ __ . __ __ . __ __ . __ __ . __ __ .
 72
65
 73
6
 40
1.75
 49
0.5
 74
0
 49
-0.25
 74
0
 49
0.5
 74
0
 49
-0.25
 74
0
 49
0.0
 74
0
 49
-0.25
 74
0
  0
LTYPE
  5
4A
100
AcDbSymbolTableRecord
100
AcDbLinetypeTableRecord
  2
ACAD_ISO13W100
 70
0
  3
ISO double-dash double-dot __ __ . . __ __ . . _
 72
65
 73
8
 40
36.0
 49
12.0
 74
0
 49
-3.0
 74
0
 49
12.0
 74
0
 49
-3.0
 74
0
 49
0.0
 74
0
 49
-3.0
 74
0
 49
0.0
 74
0
 49
-3.0
 74
0
  0
LTYPE
  5
4B
100
AcDbSymbolTableRecord
100
AcDbLinetypeTableRecord
  2
ACAD_ISO05W100
 70
0
  3
ISO long-dash double-dot ____ .. ____ .. ____ . 
 72
65
 73
6
 40
33.0
 49
24.0
 74
0
 49
-3.0
 74
0
 49
0.0
 74
0
 49
-3.0
 74
0
 49
0.0
 74
0
 49
-3.0
 74
0
  0
LTYPE
  5
4C
100
AcDbSymbolTableRecord
100
AcDbLinetypeTableRecord
  2
DOTX2
 70
0
  3
Dot (2x) .  .  .  .  .  .  .  .  .  .  .  .  .  .
 72
65
 73
2
 40
0.5
 49
0.0
 74
0
 49
-0.5
 74
0
  0
LTYPE
  5
4D
100
AcDbSymbolTableRecord
100
AcDbLinetypeTableRecord
  2
ACAD_ISO07W100
 70
0
  3
ISO dot . . . . . . . . . . . . . . . . . . . . 
 72
65
 73
2
 40
3.0
 49
0.0
 74
0
 49
-3.0
 74
0
  0
LTYPE
  5
4E
100
AcDbSymbolTableRecord
100
AcDbLinetypeTableRecord
  2
ACAD_ISO04W100
 70
0
  3
ISO long-dash dot ____ . ____ . ____ . ____ . _
 72
65
 73
4
 40
30.0
 49
24.0
 74
0
 49
-3.0
 74
0
 49
0.0
 74
0
 49
-3.0
 74
0
  0
LTYPE
  5
4F
100
AcDbSymbolTableRecord
100
AcDbLinetypeTableRecord
  2
ACAD_ISO03W100
 70
0
  3
ISO dash space __    __    __    __    __    __
 72
65
 73
2
 40
30.0
 49
12.0
 74
0
 49
-18.0
 74
0
  0
LTYPE
  5
50
100
AcDbSymbolTableRecord
100
AcDbLinetypeTableRecord
  2
DIVIDE2
 70
0
  3
Divide (.5x) __..__..__..__..__..__..__..__.._
 72
65
 73
6
 40
0.625
 49
0.25
 74
0
 49
-0.125
 74
0
 49
0.0
 74
0
 49
-0.125
 74
0
 49
0.0
 74
0
 49
-0.125
 74
0
  0
LTYPE
  5
51
100
AcDbSymbolTableRecord
100
AcDbLinetypeTableRecord
  2
DIVIDEX2
 70
0
  3
Divide (2x) ________  .  .  ________  .  .  _
 72
65
 73
6
 40
2.5
 49
1.0
 74
0
 49
-0.5
 74
0
 49
0.0
 74
0
 49
-0.5
 74
0
 49
0.0
 74
0
 49
-0.5
 74
0
  0
LTYPE
  5
52
100
AcDbSymbolTableRecord
100
AcDbLinetypeTableRecord
  2
BORDER2
 70
0
  3
Border (.5x) __.__.__.__.__.__.__.__.__.__.__.
 72
65
 73
6
 40
0.875
 49
0.25
 74
0
 49
-0.125
 74
0
 49
0.25
 74
0
 49
-0.125
 74
0
 49
0.0
 74
0
 49
-0.125
 74
0
  0
LTYPE
  5
53
100
AcDbSymbolTableRecord
100
AcDbLinetypeTableRecord
  2
DIVIDE
 70
0
  3
Divide ____ . . ____ . . ____ . . ____ . . ____
 72
65
 73
6
 40
1.25
 49
0.5
 74
0
 49
-0.25
 74
0
 49
0.0
 74
0
 49
-0.25
 74
0
 49
0.0
 74
0
 49
-0.25
 74
0
  0
LTYPE
  5
54
100
AcDbSymbolTableRecord
100
AcDbLinetypeTableRecord
  2
ACAD_ISO09W100
 70
0
  3
ISO long-dash double-short-dash ____ __ __ ____
 72
65
 73
6
 40
45.0
 49
24.0
 74
0
 49
-3.0
 74
0
 49
6.0
 74
0
 49
-3.0
 74
0
 49
6.0
 74
0
 49
-3.0
 74
0
  0
LTYPE
  5
55
100
AcDbSymbolTableRecord
100
AcDbLinetypeTableRecord
  2
ACAD_ISO10W100
 70
0
  3
ISO dash dot __ . __ . __ . __ . __ . __ . __ . 
 72
65
 73
4
 40
18.0
 49
12.0
 74
0
 49
-3.0
 74
0
 49
0.0
 74
0
 49
-3.0
 74
0
  0
LTYPE
  5
56
100
AcDbSymbolTableRecord
100
AcDbLinetypeTableRecord
  2
CENTERX2
 70
0
  3
Center (2x) ________  __  ________  __  _____
 72
65
 73
4
 40
4.0
 49
2.5
 74
0
 49
-0.5
 74
0
 49
0.5
 74
0
 49
-0.5
 74
0
  0
LTYPE
  5
14
100
AcDbSymbolTableRecord
100
AcDbLinetypeTableRecord
  2
BYBLOCK
 70
0
  3

 72
65
 73
0
 40
0.0
  0
ENDTAB
  0
TABLE
  2
LAYER
  5
2
100
AcDbSymbolTable
 70
5
  0
LAYER
  5
57
100
AcDbSymbolTableRecord
100
AcDbLayerTableRecord
  2
ENGRAVE
 70
0
 62
2
420
16776960
  6
Continuous
370
25
390
F
  0
LAYER
  5
58
100
AcDbSymbolTableRecord
100
AcDbLayerTableRecord
  2
OUTER_PROFILES
 70
0
 62
7
  6
BYLAYER
370
5
390
F
  0
LAYER
  5
59
100
AcDbSymbolTableRecord
100
AcDbLayerTableRecord
  2
INTERIOR_PROFILES
 70
0
 62
7
  6
BYLAYER
370
5
390
F
  0
LAYER
  5
5A
100
AcDbSymbolTableRecord
100
AcDbLayerTableRecord
  2
TEXT
 70
0
 62
7
  6
BYLAYER
370
5
390
F
  0
LAYER
  5
10
100
AcDbSymbolTableRecord
100
AcDbLayerTableRecord
  2
0
 70
0
 62
7
  6
Continuous
370
5
390
F
  0
ENDTAB
  0
TABLE
  2
STYLE
  5
3
100
AcDbSymbolTable
 70
1
  0
STYLE
  5
5B
100
AcDbSymbolTableRecord
100
AcDbTextStyleTableRecord
  2
Standard
 70
0
 40
0.0
 41
1.0
 50
0.0
 71
0
 42
2.5
  3

  4

1001
ACAD
1000
txt
1071
0
  0
ENDTAB
  0
TABLE
  2
VIEW
  5
6
100
AcDbSymbolTable
 70
0
  0
ENDTAB
  0
TABLE
  2
UCS
  5
7
100
AcDbSymbolTable
 70
0
  0
ENDTAB
  0
TABLE
  2
APPID
  5
9
100
AcDbSymbolTable
 70
1
  0
APPID
  5
12
100
AcDbSymbolTableRecord
100
AcDbRegAppTableRecord
  2
ACAD
 70
0
  0
APPID
  5
5C
100
AcDbSymbolTableRecord
100
AcDbRegAppTableRecord
  2
QCAD
 70
0
  0
ENDTAB
  0
TABLE
  2
DIMSTYLE
  5
A
100
AcDbSymbolTable
 70
1
100
AcDbDimStyleTable
 71
0
  0
DIMSTYLE
105
27
100
AcDbSymbolTableRecord
100
AcDbDimStyleTableRecord
  2
Standard
 41
0.18
 42
0.0625
 43
3.75
 44
0.18
 70
0
 73
0
 74
0
 77
1
 78
8
140
0.18
141
2.5
143
0.03937007874016
147
0.09
171
3
172
1
271
2
272
2
274
3
278
44
283
0
284
8
340
5B
  0
ENDTAB
  0
TABLE
  2
BLOCK_RECORD
  5
1
100
AcDbSymbolTable
 70
1
  0
BLOCK_RECORD
  5
1F
100
AcDbSymbolTableRecord
100
AcDbBlockTableRecord
  2
*Model_Space
340
22
  0
BLOCK_RECORD
  5
1B
100
AcDbSymbolTableRecord
100
AcDbBlockTableRecord
  2
*Paper_Space
340
1E
  0
BLOCK_RECORD
  5
23
100
AcDbSymbolTableRecord
100
AcDbBlockTableRecord
  2
*Paper_Space0
340
26
  0
ENDTAB
  0
ENDSEC
  0
SECTION
  2
BLOCKS
  0
BLOCK
  5
20
100
AcDbEntity
  8
0
100
AcDbBlockBegin
  2
*Model_Space
 70
0
 10
0.0
 20
0.0
 30
0.0
  3
*Model_Space
  1

  0
ENDBLK
  5
21
100
AcDbEntity
  8
0
100
AcDbBlockEnd
  0
BLOCK
  5
1C
100
AcDbEntity
 67
1
  8
0
100
AcDbBlockBegin
  2
*Paper_Space
 70
0
 10
0.0
 20
0.0
 30
0.0
  3
*Paper_Space
  1

  0
ENDBLK
  5
1D
100
AcDbEntity
 67
1
  8
0
100
AcDbBlockEnd
  0
BLOCK
  5
24
100
AcDbEntity
  8
0
100
AcDbBlockBegin
  2
*Paper_Space0
 70
0
 10
0.0
 20
0.0
 30
0.0
  3
*Paper_Space0
  1

  0
ENDBLK
  5
25
100
AcDbEntity
  8
0
100
AcDbBlockEnd
  0
ENDSEC
  0
SECTION
  2
ENTITIES
  0
LWPOLYLINE
  5
5D
100
AcDbEntity
  8
OUTER_PROFILES
 62
256
370
-1
 48
1.0
  6
BYLAYER
100
AcDbPolyline
 90
318
 70
1
 10
233.1011244857009501
 20
60.1449649043625172
 10
233.0669932886065681
 20
59.3379311351175431
 10
228.0756563863647273
 20
59.0437272460782125
 10
228.1215887981861385
 20
58.264457662390825
 10
237.3286499879168048
 20
58.8071485810154471
 10
225.9973860397776662
 20
10.6330999101573642
 10
205.5555555555564524
 20
0.4616441108598845
 10
205.5555555555565661
 20
8.3933889959817432
 10
188.6100556626493017
 20
25.338888888888988
 10
188.6100556626492164
 20
26.0805479123588242
 10
187.3908556626493294
 20
26.0805479123588135
 10
187.3908556626493294
 20
22.2796492147421787
 10
186.3908556626486188
 20
22.2796492147422924
 10
186.3908556626487041
 20
19.5027326363747804
 10
187.3908556626493294
 20
19.5027326363758213
 10
187.3908556626493294
 20
16.2796492147368888
 10
186.3908556626486472
 20
16.2796492147358478
 10
186.3908556626487325
 20
13.5027326363788802
 10
187.3908556626493578
 20
13.5027326363785516
 10
187.3908556626494715
 20
10.3606798127731192
 42
-0.5873038256930372
 10
189.8804876607579786
 20
-32.7018119830093568
 10
184.3908556626487325
 20
-32.7018119830093923
 10
184.3908556626487893
 20
-35.4787285613554104
 10
187.3908556626494999
 20
-35.4787285613554104
 10
187.3908556626494999
 20
-46.3129230941055425
 10
184.3908556626486472
 20
-46.3129230941055283
 10
184.3908556626487325
 20
-49.0898396724410446
 10
189.8804876607580354
 20
-49.0898396724409736
 42
-3.435634040116025
 10
163.3750678947993435
 20
-49.0898396724411299
 10
168.8646998929072538
 20
-49.0898396724410446
 10
168.8646998929072822
 20
-46.312923094105507
 10
165.8646998929079359
 20
-46.3129230941055567
 10
165.8646998929079359
 20
-35.4787285613556236
 10
168.8646998929073106
 20
-35.4787285613555383
 10
168.8646998929073675
 20
-32.7018119830094491
 10
163.3794083999474083
 20
-32.7018119830094989
 10
163.3851368261191794
 20
-32.7082125849597745
 42
-0.5874662871231738
 10
165.8646998929080212
 20
10.3606798127731636
 10
165.8646998929080496
 20
13.5027326363782585
 10
166.8646998929073106
 20
13.5027326363785782
 10
166.864699892907197
 20
16.2796492147355387
 10
165.8646998929078791
 20
16.2796492147366152
 10
165.8646998929079359
 20
19.5027326363755833
 10
166.8646998929072538
 20
19.502732636374482
 10
166.8646998929071401
 20
22.2796492147419833
 10
165.8646998929079075
 20
22.2796492147418412
 10
165.8646998929079928
 20
26.0805479123590089
 10
164.6454998929079352
 20
26.0805479123589805
 10
164.645499892907992
 20
25.3388888888891799
 10
147.7000000000005571
 20
8.3933889959818675
 10
147.7000000000007276
 20
0.0
 10
0.0
 20
0.0
 10
0.0000000000000711
 20
8.393388995982054
 10
-16.945499892907101
 20
25.3388888888892509
 10
-16.9454998929071365
 20
26.0805479123590978
 10
-18.1646998929071657
 20
26.0805479123590871
 10
-18.1646998929071657
 20
22.2796492147389813
 10
-19.1646998929078549
 20
22.2796492147390595
 10
-19.1646998929078194
 20
19.5027326363722864
 10
-18.1646998929070946
 20
19.5027326363728974
 10
-18.1646998929071302
 20
16.2796492147339578
 10
-19.1646998929076418
 20
16.2796492147333538
 10
-19.1646998929075707
 20
13.5027326363778677
 10
-18.1646998929072012
 20
13.5027326363777611
 10
-18.1646998929071266
 20
10.3606798127753041
 42
-0.5873038256930393
 10
-15.6750678947983602
 20
-32.7018119830072607
 10
-21.1646998929077768
 20
-32.7018119830072607
 10
-21.1646998929078478
 20
-35.4787285613742256
 10
-18.1646998929070236
 20
-35.4787285613741119
 10
-18.1646998929070236
 20
-46.3129230941243009
 10
-21.1646998929077057
 20
-46.312923094124244
 10
-21.1646998929078123
 20
-49.0898396724897168
 10
-15.6750678947985556
 20
-49.0898396724899584
 42
-3.435634040116053
 10
-42.1804876607570378
 20
-49.0898396724896102
 10
-36.6908556626491844
 20
-49.0898396724894681
 10
-36.6908556626490778
 20
-46.312923094124173
 10
-39.6908556626485876
 20
-46.3129230941242298
 10
-39.690855662648481
 20
-35.4787285613740977
 10
-36.6908556626491489
 20
-35.4787285613741687
 10
-36.6908556626491844
 20
-32.7018119830072962
 10
-42.180487660756981
 20
-32.7018119830073388
 42
-0.5873038256930408
 10
-39.6908556626484881
 20
10.3606798127752633
 10
-39.6908556626485876
 20
13.5027326363772548
 10
-38.6908556626492128
 20
13.5027326363774236
 10
-38.6908556626493194
 20
16.2796492147329097
 10
-39.690855662648552
 20
16.2796492147334781
 10
-39.690855662648552
 20
19.5027326363723752
 10
-38.6908556626493549
 20
19.5027326363718778
 10
-38.6908556626493194
 20
22.279649214738626
 10
-39.690855662648552
 20
22.2796492147384839
 10
-39.6908556626484454
 20
26.08054791235908
 10
-40.9100556626484035
 20
26.0805479123591155
 10
-40.910055662648368
 20
25.3388888888892509
 10
-57.8555555555556467
 20
8.3933889959820362
 10
-57.8555555555558243
 20
5.2928974641792692
 10
-60.1293617772158129
 20
5.8774612785323477
 10
-60.9753697189419697
 20
2.5867031535365737
 10
-60.0721259973122201
 20
2.3544918111079927
 10
-61.4733485498008392
 20
0.6496907415947906
 10
-60.5701048281710897
 20
0.4174793991661918
 10
-61.9713273806597087
 20
-1.2873216703469659
 10
-61.0680836590299947
 20
-1.5195330127756179
 10
-62.4693062115185072
 20
-3.2243340822887667
 10
-61.5660624898887221
 20
-3.4565454247173477
 10
-62.9672850423774122
 20
-5.1613464942305853
 10
-62.0640413207476627
 20
-5.3935578366591486
 10
-63.4652638732362462
 20
-7.0983589061723862
 10
-62.5620201516065322
 20
-7.3305702486009672
 10
-63.5587225476125326
 20
-8.5432108157111557
 42
-0.2914734195860498
 10
-64.5802492053659449
 20
-8.876747566336185
 10
-65.9002551160508432
 20
-8.537392487309921
 42
-0.4142135623731114
 10
-66.6197719065923621
 20
-7.3198968659096053
 10
-63.0348803951284964
 20
6.6244295248205631
 10
-65.3086866167757307
 20
7.2089933390536753
 10
-64.8695879523456398
 20
40.9947070239312126
 10
-61.874785811001658
 20
41.171229357354882
 10
-61.9207182228224084
 20
41.9504989410422553
 10
-64.9155203641663547
 20
41.7739766076185433
 10
-65.0785622269900443
 20
44.5400748708964471
 10
53.4391587487794908
 20
86.0881511197326574
 10
62.3467699793504551
 20
84.8018921392024083
 10
62.6611795548446224
 20
86.9792439074405479
 10
53.6325413462106724
 20
88.2829791825003269
 10
53.8531556135451694
 20
91.274856410103169
 10
53.0654157878733201
 20
91.3329425651392341
 10
52.7123681180314563
 20
86.5450596398028154
 10
-76.6025561652432714
 20
84.9634805679193192
 10
-91.7021720380866157
 20
106.1894769272923043
 10
-91.2358977938079079
 20
112.5128906852831392
 10
-93.6637365535008826
 20
112.6919140303041758
 10
-93.8843508208353938
 20
109.7000368027013337
 10
-96.8762280484389038
 20
109.9206510700366266
 10
-96.9699373532423863
 20
108.6498051794123967
 10
-93.9780601256388763
 20
108.4291909120771606
 10
-92.0455589783422852
 20
79.2701107159245026
 10
-96.1482342922245152
 20
78.9982082862962187
 10
-124.556163888182283
 20
85.9090505303773284
 10
-132.354961878924712
 20
87.8708838895094146
 10
-122.7391979916040299
 20
110.5499722394287403
 10
-119.7473207640018984
 20
110.3293579720933195
 10
-119.6536114591984301
 20
111.6002038627176063
 10
-122.645488686800519
 20
111.8208181300528281
 10
-122.4248744194659366
 20
114.812695357655798
 10
-124.5019227880239754
 20
114.9658522117611881
 10
-124.7901158855932806
 20
111.0574995191316106
 10
-142.4513747523927236
 20
95.1453761517209955
 10
-143.5544460890690459
 20
80.185990013708107
 10
-151.4604028276986014
 20
80.7689574020038208
 10
-142.6705886623015829
 20
199.9726931982350209
 10
-134.7646319236720274
 20
199.3897258099393355
 10
-135.867703260330245
 20
184.4303396721722379
 10
-120.7314210234981999
 20
166.0997997219481874
 10
-121.019614121068912
 20
162.1914470293188231
 10
-118.9425657525108022
 20
162.038290175213433
 10
-118.7219514851747704
 20
165.0301674028162893
 10
-115.7300742575726531
 20
164.8095531354811669
 10
-115.6363649527691706
 20
166.0803990261052832
 10
-118.6282421803714016
 20
166.3010132934403202
 10
-124.8134825138813824
 20
190.1452319960289401
 10
-116.8112762837904484
 20
190.94193500249159
 10
-87.6969301478181507
 20
193.6112145918698957
 10
-83.6785102364839588
 20
192.7404809479988046
 10
-89.867104314406248
 20
164.1802319660889111
 10
-92.858981542009758
 20
164.4008462334242893
 10
-92.9526908468131978
 20
163.1300003428001446
 10
-89.9608136192097874
 20
162.9093860754648517
 10
-90.1814278865457197
 20
159.9175088478621376
 10
-87.7535891268527735
 20
159.7384855028411437
 10
-87.2873148825729572
 20
166.0618992608318933
 10
-69.2376261792106789
 20
184.8435407936492538
 10
58.4466837494927347
 20
164.3114188190327809
 10
58.09363607964967
 20
159.5235358936964758
 10
58.8813759053215193
 20
159.4654497386604248
 10
59.1019901726575938
 20
162.4573269662630537
 10
68.2242065545459155
 20
162.4226592313153219
 10
68.2325670461555234
 20
164.6225783675581056
 10
59.2326320378723281
 20
164.6567813888803471
 10
-51.9090497879649959
 20
223.1394231400340686
 10
-51.3420456975212858
 20
225.851689464081602
 10
-48.405526376068444
 20
225.237804886387778
 10
-48.2457890856818494
 20
226.0019088509160667
 10
-51.1823084071346557
 20
226.6157934286098339
 10
-46.661038482418391
 20
260.1004970274408947
 10
-44.3260824437182777
 20
260.3452211250473169
 10
-45.8268755456923955
 20
274.6645544092186242
 42
-0.4142135623731056
 10
-44.9365610643661384
 20
275.7633447096585542
 10
-43.5810560336466324
 20
275.9054136565446811
 42
-0.2914734195860861
 10
-42.6195003917609654
 20
275.4256488974424428
 10
-41.8114456708762106
 20
274.0799296179988005
 10
-42.738980463486449
 20
273.9827157470059547
 10
-41.6029698517625235
 20
272.0908248362326276
 10
-42.5305046443727974
 20
271.9936109652398386
 10
-41.394494032648943
 20
270.1017200544663979
 10
-42.322028825259288
 20
270.0045061834736089
 10
-41.186018213535327
 20
268.1126152727003387
 10
-42.1135530061456365
 20
268.0154014017074928
 10
-40.977542394421711
 20
266.1235104909341658
 10
-41.9050771870320204
 20
266.0262966199412631
 10
-40.769066575308095
 20
264.134405709167936
 10
-41.6966013679184044
 20
264.037191838175147
 10
-41.3424252710690965
 20
260.6579348537177339
 10
-39.0074692323689121
 20
260.9026589513241561
 10
-39.4622429932105234
 20
257.8357014091923816
 10
-25.1855518518075172
 20
238.5879476884583994
 10
-25.2943368815055791
 20
237.8543102273048362
 10
-24.0883233842871647
 20
237.6754804632074638
 10
-23.5308153319128621
 20
241.4352697766096583
 10
-22.5416310330169267
 20
241.2885918204773077
 10
-22.1343185849834256
 20
244.0354740992351594
 10
-23.1235028838795387
 20
244.1821520553672826
 10
-22.6507475951982684
 20
247.3703755701095304
 10
-21.6615632963041804
 20
247.2236976139639637
 10
-21.2542508482972892
 20
249.970579892540627
 10
-22.2434351471914127
 20
250.1172578486865063
 10
-21.7825652610191547
 20
253.2253271680793318
 42
-0.5873038256930394
 10
-17.9289518616934274
 20
296.1872420569246174
 10
-12.4986940824284076
 20
295.3820340556098927
 10
-12.0913816344234704
 20
298.1289163341743347
 10
-15.0589345311215439
 20
298.5689502025238653
 10
-13.4697970208882722
 20
309.2859653255440548
 10
-10.5022441241901099
 20
308.8459314571944105
 10
-10.0949316761840535
 20
311.5928137357676064
 10
-15.5251894554493752
 20
312.3980217370819332
 42
-3.4356340401160357
 10
10.6935556127795728
 20
308.5102609397989681
 10
5.2632978335131853
 20
309.3154689411142044
 10
4.8559853855071644
 20
306.5685866625410654
 10
7.8235382822066413
 20
306.12855279419108
 10
6.2344007719733696
 20
295.4115376711708905
 10
3.2668478752737329
 20
295.8515715395209327
 10
2.8595354272689377
 20
293.1046892609564338
 10
8.2897932065353519
 20
292.299481259641766
 42
-0.587303825693044
 10
-0.4892299579243798
 20
250.067914636726357
 10
-0.95009984409689
 20
246.9598453173307462
 10
-1.9392841430013874
 20
247.1065232734204642
 10
-2.3465965910082609
 20
244.3596409948438009
 10
-1.3574122921037635
 20
244.212963038753827
 10
-1.8301675807851403
 20
241.0247395240115793
 10
-2.8193518796875416
 20
241.1714174801149966
 10
-3.2266643277210605
 20
238.4245352013571164
 10
-2.2374800288183749
 20
238.2778572452538413
 10
-2.7949880811924999
 20
234.5180679318545174
 10
-1.5889745839741032
 20
234.3392381677571734
 10
-1.4801895542760946
 20
235.0728756289107082
 10
17.7675641664577633
 20
249.3495667703135723
 10
18.9986893092798681
 20
257.6521753796955636
 10
165.1012102567489137
 20
235.9878412612752072
 10
163.8700851139266774
 20
227.6852326518933864
 10
178.1467762553295984
 20
208.437478931159319
 10
178.0379912256314867
 20
207.7038414700057842
 10
179.2440047228500362
 20
207.5250117059084118
 10
179.801512775222136
 20
211.2848010192965944
 10
180.7906970741204873
 20
211.1381230631761809
 10
181.1980095221540239
 20
213.885005341935198
 10
180.2088252232556727
 20
214.0316832980557251
 10
180.6815805119348113
 20
217.2199068127844725
 10
181.6707648108332762
 20
217.0732288566640023
 10
182.0780772588400964
 20
219.8201111352415751
 10
181.0888929599417736
 20
219.9667890913619317
 10
181.5497628461093313
 20
223.0748584107723786
 42
-0.5874662871228273
 10
185.414275101400932
 20
266.0416277843041257
 10
185.4076698049856873
 20
266.0361366432039176
 10
190.8336340247092267
 20
265.2315652983127734
 10
191.2409464727085151
 20
267.9784475768412335
 10
188.2733935760105624
 20
268.4184814451921284
 10
189.8625310862439619
 20
279.1354965682122611
 10
192.8300839829419999
 20
278.6954626998612525
 10
193.2373964309363146
 20
281.4423449783541287
 10
187.8071386516713801
 20
282.2475529796712976
 42
-3.435634040116025
 10
214.0258837199004347
 20
278.3597921823878778
 10
208.5956259406336812
 20
279.1650001837003856
 10
208.1883134926394519
 20
276.4181179052075095
 10
211.1558663893388825
 20
275.9780840368590589
 10
209.5667288791054546
 20
265.2610689138388693
 10
206.5991759824060523
 20
265.7011027821874336
 10
206.1918635344065365
 20
262.9542205036590872
 10
211.6221213136727783
 20
262.149012502344533
 42
-0.5873038256930418
 10
202.843098149212949
 20
219.9174458794292946
 10
202.3822282630365521
 20
216.8093765600075358
 10
201.393043964135785
 20
216.9560545161215828
 10
200.9857315161289932
 20
214.2091722375439815
 10
201.9749158150297319
 20
214.062494281430105
 10
201.5021605263504796
 20
210.874270766701386
 10
200.5129762274497693
 20
211.0209487228152057
 10
200.1056637794161475
 20
208.2740664440561886
 10
201.0948480783168293
 20
208.1273884879422269
 10
200.537340025944701
 20
204.3675991745556075
 10
201.7433535231631367
 20
204.1887694104582636
 10
201.8521385528611063
 20
204.9224068716117699
 10
221.09989227359506
 20
219.199098013014634
 10
222.2633044017828752
 20
227.0450555162543651
 10
240.9921138101700251
 20
213.9852452279308181
 10
245.1347511974537667
 20
164.6701860321629738
 10
236.1068716243113101
 20
166.5574802851717209
 10
235.9471343339240548
 20
165.7933763206435742
 10
240.841333203014301
 20
164.7702353578205816
 10
240.7567211834927718
 20
163.9669239303720474
 10
235.6675104957016913
 20
163.9862647791123607
 10
235.6591500040920266
 20
161.7863456428714244
 10
244.6590850123764085
 20
161.7521426215492397
 10
244.4384707450406324
 20
158.7602653939464687
 10
247.3771095477438564
 20
158.5435768077838929
 10
247.6115263355365528
 20
161.7226379702100303
 10
296.5741987817950758
 20
153.7062884568287586
 10
296.3457911793976223
 20
150.6087213208649871
 10
297.9489648090831224
 20
150.4905069193978875
 10
298.1695790764192111
 20
153.4823841470007721
 10
320.879001951760074
 20
151.8078426106611403
 10
314.1402958099255898
 20
60.4203648523740924
 10
291.43087293458467
 20
62.0949063887137385
 10
291.6514872019193945
 20
65.0867836163166089
 10
290.0483135722338375
 20
65.2049980177836801
 10
289.8199059698376345
 20
62.1074308818200507
 10
240.210977391696332
 20
61.3595285291145913
 10
240.4453941794876926
 20
64.5385896915408921
 10
237.5067553767844686
 20
64.7552782777034537
 10
237.2861411094498862
 20
61.7634010501005903
 10
228.3785298788776572
 20
63.049660030630946
 10
228.0641203033836462
 20
60.8723082623930338
  0
LWPOLYLINE
  5
5E
100
AcDbEntity
  8
INTERIOR_PROFILES
 62
256
370
-1
 48
1.0
  6
BYLAYER
100
AcDbPolyline
 90
4
 70
1
 10
-137.8273841993905648
 20
184.5572881754592345
 10
-137.4596937538317434
 20
189.5437502214635117
 10
-141.4514848715027142
 20
189.8023511650132491
 10
-141.8191761945214466
 20
184.8158772192687707
  0
LWPOLYLINE
  5
5F
100
AcDbEntity
  8
INTERIOR_PROFILES
 62
256
370
-1
 48
1.0
  6
BYLAYER
100
AcDbPolyline
 90
4
 70
1
 10
-144.7761713607352192
 20
90.3207806340326442
 10
-144.4084809151765398
 20
95.3072426800369215
 10
-148.3950281936531042
 20
95.6369583491213859
 10
-148.7627195166717513
 20
90.6504844033769217
  0
LWPOLYLINE
  5
60
100
AcDbEntity
  8
ENGRAVE
 62
256
370
-1
 48
1.0
  6
BYLAYER
100
AcDbPolyline
 90
4
 70
1
 10
154.9275807611168716
 20
157.09311881638709
 10
149.2085220766998077
 20
79.5336678888318147
 10
152.3005758976156869
 20
79.087175345266715
 10
158.0516824658307655
 20
157.0812460954050493
  0
LWPOLYLINE
  5
61
100
AcDbEntity
  8
ENGRAVE
 62
256
370
-1
 48
1.0
  6
BYLAYER
100
AcDbPolyline
 90
4
 70
1
 10
179.920394398828023
 20
156.9981370485307366
 10
173.9449526440268983
 20
75.9617275403109886
 10
177.0370064649427491
 20
75.5152349967458747
 10
183.0444961035419453
 20
156.9862643275487244
  0
LWPOLYLINE
  5
62
100
AcDbEntity
  8
ENGRAVE
 62
256
370
-1
 48
1.0
  6
BYLAYER
100
AcDbPolyline
 90
4
 70
1
 10
217.4096148553947501
 20
156.8556643967462207
 10
211.0495984950175341
 20
70.6038170175297353
 10
214.1416523159334417
 20
70.1573244739646498
 10
220.5337165601085871
 20
156.8437916757641801
  0
LWPOLYLINE
  5
63
100
AcDbEntity
  8
ENGRAVE
 62
256
370
-1
 48
1.0
  6
BYLAYER
100
AcDbPolyline
 90
4
 70
1
 10
236.1542250836781136
 20
156.7844280708539486
 10
229.6019214205128662
 20
67.9248617561390944
 10
232.6939752414287454
 20
67.4783692125739947
 10
239.2783267883919507
 20
156.7725553498718796
  0
LWPOLYLINE
  5
64
100
AcDbEntity
  8
ENGRAVE
 62
256
370
-1
 48
1.0
  6
BYLAYER
100
AcDbPolyline
 90
4
 70
1
 10
192.4168012176835987
 20
156.9506461646025741
 10
186.3131679276904435
 20
74.1757573660505614
 10
189.4052217486063228
 20
73.7292648224854617
 10
195.5409029223974926
 20
156.9387734436205335
  0
LWPOLYLINE
  5
65
100
AcDbEntity
  8
ENGRAVE
 62
256
370
-1
 48
1.0
  6
BYLAYER
100
AcDbPolyline
 90
4
 70
1
 10
211.1614114459669622
 20
156.879409838710302
 10
204.8654908531858041
 20
71.4968021046599489
 10
207.9575446741016549
 20
71.0503095610948492
 10
214.2855131506808561
 20
156.8675371177282614
  0
LWPOLYLINE
  5
66
100
AcDbEntity
  8
ENGRAVE
 62
256
370
-1
 48
1.0
  6
BYLAYER
100
AcDbPolyline
 90
4
 70
1
 10
173.6721909894002351
 20
157.0218824904948463
 10
167.7608450021951114
 20
76.8547126274412022
 10
170.8528988231109906
 20
76.4082200838761025
 10
176.7962926941141291
 20
157.0100097695128056
  0
LWPOLYLINE
  5
67
100
AcDbEntity
  8
ENGRAVE
 62
256
370
-1
 48
1.0
  6
BYLAYER
100
AcDbPolyline
 90
4
 70
1
 10
148.6793773516890838
 20
157.1168642583511996
 10
143.0244144348680209
 20
80.4266529759620283
 10
146.1164682557839285
 20
79.9801604323969286
 10
151.8034790564029777
 20
157.1049915373691306
  0
LWPOLYLINE
  5
68
100
AcDbEntity
  8
ENGRAVE
 62
256
370
-1
 48
1.0
  6
BYLAYER
100
AcDbPolyline
 90
4
 70
1
 10
161.175784170544631
 20
157.0693733744230087
 10
155.3926297185315661
 20
78.6406828017016011
 10
158.4846835394474738
 20
78.1941902581365014
 10
164.2998858752585534
 20
157.0575006534409681
  0
LWPOLYLINE
  5
69
100
AcDbEntity
  8
ENGRAVE
 62
256
370
-1
 48
1.0
  6
BYLAYER
100
AcDbPolyline
 90
4
 70
1
 10
186.1685978082557824
 20
156.9743916065666554
 10
180.1290602858586567
 20
75.068742453180775
 10
183.2211141067745643
 20
74.6222499096156611
 10
189.2926995129697048
 20
156.9625188855846432
  0
LWPOLYLINE
  5
6A
100
AcDbEntity
  8
ENGRAVE
 62
256
370
-1
 48
1.0
  6
BYLAYER
100
AcDbPolyline
 90
4
 70
1
 10
223.6578182648224811
 20
156.8319189547821395
 10
217.233706136849321
 20
69.7108319303995216
 10
220.3257599577651717
 20
69.2643393868344219
 10
226.7819199695364034
 20
156.8200462338000989
  0
LWPOLYLINE
  5
6B
100
AcDbEntity
  8
ENGRAVE
 62
256
370
-1
 48
1.0
  6
BYLAYER
100
AcDbPolyline
 90
4
 70
1
 10
229.9060216742503258
 20
156.8081735128180583
 10
223.4178137786810794
 20
68.817846843269308
 10
226.509867599596987
 20
68.3713542997041941
 10
233.0301233789641913
 20
156.7963007918359892
  0
LWPOLYLINE
  5
6C
100
AcDbEntity
  8
ENGRAVE
 62
256
370
-1
 48
1.0
  6
BYLAYER
100
AcDbPolyline
 90
4
 70
1
 10
204.9132080365391744
 20
156.9031552806744116
 10
198.6813832113539888
 20
72.3897871917901483
 10
201.7734370322698396
 20
71.9432946482250486
 10
208.0373097412530399
 20
156.891282559692371
  0
LWPOLYLINE
  5
6D
100
AcDbEntity
  8
ENGRAVE
 62
256
370
-1
 48
1.0
  6
BYLAYER
100
AcDbPolyline
 90
4
 70
1
 10
198.6650046271114149
 20
156.9269007226384929
 10
192.4972755695222304
 20
73.2827722789203619
 10
195.589329390438138
 20
72.836279735355248
 10
201.7891063318252804
 20
156.9150280016564238
  0
LWPOLYLINE
  5
6E
100
AcDbEntity
  8
ENGRAVE
 62
256
370
-1
 48
1.0
  6
BYLAYER
100
AcDbPolyline
 90
4
 70
1
 10
167.4239875799724473
 20
157.0456279324588991
 10
161.5767373603633246
 20
77.7476977145714017
 10
164.6687911812792322
 20
77.301205171006302
 10
170.5480892846863412
 20
157.0337552114768869
  0
LWPOLYLINE
  5
6F
100
AcDbEntity
  8
ENGRAVE
 62
256
370
-1
 48
1.0
  6
BYLAYER
100
AcDbPolyline
 90
4
 70
1
 10
142.4311739422612959
 20
157.1406097003152809
 10
136.840306793036234
 20
81.319638063092242
 10
139.9323606139521416
 20
80.8731455195271423
 10
145.5552756469751898
 20
157.1287369793332118
  0
LWPOLYLINE
  5
70
100
AcDbEntity
  8
ENGRAVE
 62
256
370
-1
 48
1.0
  6
BYLAYER
100
AcDbPolyline
 90
4
 70
1
 10
69.58559440813832
 20
79.8333068830278734
 10
64.5995162363127235
 20
54.369177892889283
 10
115.0659377051248811
 20
57.3979924192616409
 10
118.1994346275860011
 20
73.4009043420280136
  0
LWPOLYLINE
  5
71
100
AcDbEntity
  8
ENGRAVE
 62
256
370
-1
 48
1.0
  6
BYLAYER
100
AcDbPolyline
 90
3
 70
1
 10
-44.7499648242754589
 20
47.8064122549042665
 10
8.2984570963032844
 20
50.9901892344841201
 10
11.3583857757153517
 20
66.6173847793639737
  0
LWPOLYLINE
  5
72
100
AcDbEntity
  8
INTERIOR_PROFILES
 62
256
370
-1
 48
1.0
  6
BYLAYER
100
AcDbPolyline
 90
4
 70
1
 10
-4.9068370397001537
 20
247.5465571417703075
 10
-18.2866979515985761
 20
249.5305460241908406
 10
-18.6940103996053608
 20
246.783663745614092
 10
-5.3141494877070983
 20
244.7996748631936441
  0
LWPOLYLINE
  5
73
100
AcDbEntity
  8
INTERIOR_PROFILES
 62
256
370
-1
 48
1.0
  6
BYLAYER
100
AcDbPolyline
 90
4
 70
1
 10
-5.786904776386379
 20
241.6114513484648114
 10
-19.1667656882847126
 20
243.5954402308854014
 10
-19.5740781363181426
 20
240.8485579521274644
 10
-6.194217224419809
 20
238.8645690697069313
  0
LWPOLYLINE
  5
74
100
AcDbEntity
  8
ENGRAVE
 62
256
370
-1
 48
1.0
  6
BYLAYER
100
AcDbPolyline
 90
5
 70
1
 10
12.4228863611615026
 20
51.2377227608728845
 10
56.3506577065963086
 20
53.8741108401116975
 10
61.6395447599720967
 20
80.884698620793273
 10
56.1003056609454376
 20
81.617630137722287
 10
15.7207195613271544
 20
68.0799075608424573
  0
LWPOLYLINE
  5
75
100
AcDbEntity
  8
INTERIOR_PROFILES
 62
256
370
-1
 48
1.0
  6
BYLAYER
100
AcDbPolyline
 90
4
 70
1
 10
96.8670605907682329
 20
195.6658099903500556
 10
-45.3092697642283682
 20
225.3880242732222143
 10
-45.4690070546149272
 20
224.6239203086939824
 10
96.7073233003813186
 20
194.901706025821909
  0
LWPOLYLINE
  5
76
100
AcDbEntity
  8
ENGRAVE
 62
256
370
-1
 48
1.0
  6
BYLAYER
100
AcDbPolyline
 90
5
 70
1
 10
66.8377306796615045
 20
196.0953515211527076
 10
23.7717689940991406
 20
205.1464609326465052
 10
24.5635565730956174
 20
188.0027167359376676
 10
62.5207236608519565
 20
168.688618962104357
 10
68.1075569023363983
 20
168.6011390413329423
  0
LWPOLYLINE
  5
77
100
AcDbEntity
  8
ENGRAVE
 62
256
370
-1
 48
1.0
  6
BYLAYER
100
AcDbPolyline
 90
3
 70
1
 10
19.7282560351004932
 20
205.9962800651183272
 10
-32.2794201100408173
 20
216.9266563670369408
 10
20.4629243381704029
 20
190.0892795117309504
  0
LWPOLYLINE
  5
78
100
AcDbEntity
  8
ENGRAVE
 62
256
370
-1
 48
1.0
  6
BYLAYER
100
AcDbPolyline
 90
4
 70
1
 10
74.9247565976588561
 20
194.3957132562090351
 10
76.1218804437522749
 20
168.4756489187293482
 10
125.1534195556759954
 20
167.7079017941217671
 10
124.4010880120722788
 20
183.9973459288794402
  0
LINE
  5
79
100
AcDbEntity
  8
ENGRAVE
 62
256
370
-1
 48
1.0
  6
BYLAYER
100
AcDbLine
 10
52.0580362268314332
 20
159.2616591110707418
 30
0.0
 11
47.1335067307046671
 21
92.4772764166918648
 31
0.0
  0
LINE
  5
7A
100
AcDbEntity
  8
ENGRAVE
 62
256
370
-1
 48
1.0
  6
BYLAYER
100
AcDbLine
 10
47.1335067307046671
 20
92.4772764166918648
 30
0.0
 11
-36.2464797600247479
 21
91.4575020761009938
 31
0.0
  0
SPLINE
  5
7B
100
AcDbEntity
  8
ENGRAVE
 62
256
370
-1
 48
1.0
  6
BYLAYER
100
AcDbSpline
 70
8
 71
5
 72
21
 73
15
 74
0
 40
-1.0
 40
-1.0
 40
-1.0
 40
-1.0
 40
-1.0
 40
-1.0
 40
-0.8999999999999999
 40
-0.7999999999999999
 40
-0.7
 40
-0.6
 40
-0.5
 40
-0.4
 40
-0.3
 40
-0.2
 40
-0.1
 40
-0.0
 40
-0.0
 40
-0.0
 40
-0.0
 40
-0.0
 40
-0.0
 10
-36.2464797600247479
 20
91.4575020761009938
 30
0.0
 10
-36.5036145211928797
 20
93.1061337866158709
 30
0.0
 10
-36.9849911008373411
 20
96.4009717563669994
 30
0.0
 10
-37.6083801663468265
 20
101.3359525801495664
 30
0.0
 10
-38.2389410295110821
 20
107.901133410261977
 30
0.0
 10
-38.6700746439852949
 20
116.0812800997950092
 30
0.0
 10
-38.7122300146029019
 20
124.23274441244115
 30
0.0
 10
-38.3336635582122298
 20
132.3531856480921647
 30
0.0
 10
-37.5170458298530107
 20
140.4413259726240426
 30
0.0
 10
-36.2797062744900956
 20
148.4984432201517279
 30
0.0
 10
-34.653388475279705
 20
156.5268780907746873
 30
0.0
 10
-33.0666802643380109
 20
162.9285625087667029
 30
0.0
 10
-31.7261806880031472
 20
167.718730621048195
 30
0.0
 10
-30.7667304344787951
 20
170.9073252753329371
 30
0.0
 10
-30.2705588363716416
 20
172.5004098768343397
 30
0.0
  0
LINE
  5
7C
100
AcDbEntity
  8
ENGRAVE
 62
256
370
-1
 48
1.0
  6
BYLAYER
100
AcDbLine
 10
-30.2705588363716416
 20
172.5004098768343397
 30
0.0
 11
52.0580362268314332
 21
159.2616591110707418
 31
0.0
  0
LWPOLYLINE
  5
7D
100
AcDbEntity
  8
INTERIOR_PROFILES
 62
256
370
-1
 48
1.0
  6
BYLAYER
100
AcDbPolyline
 90
4
 70
1
 10
198.4254910674370365
 20
217.3960883844713976
 10
185.0456301555388166
 20
219.3800772668918171
 10
184.6383177075320248
 20
216.6331949883142727
 10
198.0181786194303584
 20
214.6492061058937395
  0
LWPOLYLINE
  5
7E
100
AcDbEntity
  8
INTERIOR_PROFILES
 62
256
370
-1
 48
1.0
  6
BYLAYER
100
AcDbPolyline
 90
4
 70
1
 10
197.1381108827174273
 20
208.7141003124060035
 10
197.5454233307511345
 20
211.4609825911649921
 10
184.165562418852744
 20
213.4449714735853831
 10
183.7582499708191222
 20
210.6980891948263945
  0
LWPOLYLINE
  5
7F
100
AcDbEntity
  8
INTERIOR_PROFILES
 62
256
370
-1
 48
1.0
  6
BYLAYER
100
AcDbPolyline
 90
4
 70
1
 10
-35.6908556626492768
 20
16.2796492147329701
 10
-35.6908556626492768
 20
13.5027326363775302
 10
-22.1646998929075778
 20
13.502732636377841
 10
-22.1646998929076489
 20
16.2796492147332756
  0
LWPOLYLINE
  5
80
100
AcDbEntity
  8
INTERIOR_PROFILES
 62
256
370
-1
 48
1.0
  6
BYLAYER
100
AcDbPolyline
 90
4
 70
1
 10
-35.6908556626494189
 20
22.2796492147387042
 10
-35.6908556626493123
 20
19.5027326363719027
 10
-22.164699892907791
 20
19.5027326363721869
 10
-22.1646998929078265
 20
22.2796492147389991
  0
LWPOLYLINE
  5
81
100
AcDbEntity
  8
INTERIOR_PROFILES
 62
256
370
-1
 48
1.0
  6
BYLAYER
100
AcDbPolyline
 90
4
 70
1
 10
169.8646998929072822
 20
13.5027326363786404
 10
183.3908556626487893
 20
13.5027326363788269
 10
183.3908556626486757
 20
16.2796492147357625
 10
169.864699892907197
 20
16.2796492147356098
  0
LWPOLYLINE
  5
82
100
AcDbEntity
  8
INTERIOR_PROFILES
 62
256
370
-1
 48
1.0
  6
BYLAYER
100
AcDbPolyline
 90
4
 70
1
 10
169.864699892907197
 20
22.2796492147420295
 10
169.8646998929072254
 20
19.5027326363745317
 10
183.3908556626486757
 20
19.50273263637472
 10
183.390855662648562
 20
22.2796492147422498
  0
LWPOLYLINE
  5
83
100
AcDbEntity
  8
INTERIOR_PROFILES
 62
256
370
-1
 48
1.0
  6
BYLAYER
100
AcDbPolyline
 90
4
 70
1
 10
293.3073595094833195
 20
109.4027982831256622
 10
294.9105331391688765
 20
109.28458388165852
 10
297.7283505417478864
 20
147.4986296917950881
 10
296.1251769120623294
 20
147.6168440932622445
  0
LWPOLYLINE
  5
84
100
AcDbEntity
  8
INTERIOR_PROFILES
 62
256
370
-1
 48
1.0
  6
BYLAYER
100
AcDbPolyline
 90
4
 70
1
 10
-91.8122750863556547
 20
137.8006500528845777
 10
-89.3844363266627511
 20
137.6216267078635553
 10
-87.9742033941880663
 20
156.7466082752383443
 10
-90.4020421538809416
 20
156.9256316202593666
  0
LWPOLYLINE
  5
85
100
AcDbEntity
  8
INTERIOR_PROFILES
 62
256
370
-1
 48
1.0
  6
BYLAYER
100
AcDbPolyline
 90
4
 70
1
 10
-9.1238287377246152
 20
297.6888824658245767
 10
-9.5311411857294459
 20
294.9420001872601347
 10
-0.1080174694297575
 20
293.5447231293063055
 10
0.2992949785751087
 20
296.2916054078706338
  0
LWPOLYLINE
  5
86
100
AcDbEntity
  8
INTERIOR_PROFILES
 62
256
370
-1
 48
1.0
  6
BYLAYER
100
AcDbPolyline
 90
4
 70
1
 10
205.6280730439349043
 20
279.6050340520502004
 10
196.2049493276350631
 20
281.0023111100043138
 10
195.7976368796408337
 20
278.2554288315113808
 10
205.2207605959407317
 20
276.8581517735573811
  0
LWPOLYLINE
  5
87
100
AcDbEntity
  8
INTERIOR_PROFILES
 62
256
370
-1
 48
1.0
  6
BYLAYER
100
AcDbPolyline
 90
4
 70
1
 10
232.6591716679973842
 20
161.7977466499788193
 10
232.6675321596071626
 20
163.9976657862198124
 10
154.8888764202205266
 20
164.2932529230406828
 10
154.8805159286109188
 20
162.0933337867987802
  0
LWPOLYLINE
  5
88
100
AcDbEntity
  8
INTERIOR_PROFILES
 62
256
370
-1
 48
1.0
  6
BYLAYER
100
AcDbPolyline
 90
4
 70
1
 10
233.0106150124706232
 20
166.4072608983374266
 10
233.1703523028578218
 20
167.1713648628656017
 10
99.8035799122217782
 20
195.0519254126562032
 10
99.6438426218347928
 20
194.2878214481280565
  0
LWPOLYLINE
  5
89
100
AcDbEntity
  8
INTERIOR_PROFILES
 62
256
370
-1
 48
1.0
  6
BYLAYER
100
AcDbPolyline
 90
4
 70
1
 10
-121.2402283884040344
 20
159.1995698017161658
 10
-122.650461320878776
 20
140.0745882343413768
 10
-120.5734129523206661
 20
139.9214313802360437
 10
-119.1631800198460382
 20
159.0464129476108042
  0
LWPOLYLINE
  5
8A
100
AcDbEntity
  8
INTERIOR_PROFILES
 62
256
370
-1
 48
1.0
  6
BYLAYER
100
AcDbPolyline
 90
4
 70
1
 10
58.6607616379862975
 20
156.4735725110576254
 10
57.8730218123143771
 20
156.5316586660936764
 10
55.6898330674290776
 20
126.9241778432193115
 10
56.477572893101069
 20
126.8660916881832463
  0
LWPOLYLINE
  5
8B
100
AcDbEntity
  8
INTERIOR_PROFILES
 62
256
370
-1
 48
1.0
  6
BYLAYER
100
AcDbPolyline
 90
4
 70
1
 10
203.6316230857072185
 20
266.1411366505372484
 10
194.2084993694074058
 20
267.538413708491305
 10
193.8011869214080036
 20
264.7915314299630154
 10
203.2243106377077311
 20
263.394254372008902
  0
LWPOLYLINE
  5
8C
100
AcDbEntity
  8
INTERIOR_PROFILES
 62
256
370
-1
 48
1.0
  6
BYLAYER
100
AcDbPolyline
 90
4
 70
1
 10
71.2241848906406005
 20
162.411258224207927
 10
151.880537592516248
 20
162.104734793906232
 10
151.8888980841259411
 20
164.3046539301481346
 10
71.23254538225018
 20
164.6111773604507675
  0
LWPOLYLINE
  5
8D
100
AcDbEntity
  8
INTERIOR_PROFILES
 62
256
370
-1
 48
1.0
  6
BYLAYER
100
AcDbPolyline
 90
4
 70
1
 10
241.0829201945801401
 20
113.253710449626368
 10
244.0215589972834209
 20
113.0370218634637922
 10
247.1564952804086488
 20
155.551699580181122
 10
244.2178564777054248
 20
155.7683881663436694
  0
LWPOLYLINE
  5
8E
100
AcDbEntity
  8
INTERIOR_PROFILES
 62
256
370
-1
 48
1.0
  6
BYLAYER
100
AcDbPolyline
 90
4
 70
1
 10
-7.1273787794852517
 20
311.1527798674177916
 10
-7.5346912274912903
 20
308.4058975888447662
 10
1.8884324888084691
 20
307.0086205308907665
 10
2.2957449368145433
 20
309.7555028094640193
  0
LWPOLYLINE
  5
8F
100
AcDbEntity
  8
INTERIOR_PROFILES
 62
256
370
-1
 48
1.0
  6
BYLAYER
100
AcDbPolyline
 90
4
 70
1
 10
-95.8508587696125574
 20
164.6214605007594969
 10
-112.6444877251663712
 20
165.8597847587699903
 10
-112.7381970299698537
 20
164.5889388681459025
 10
-95.9445680744160541
 20
163.3506146101354375
  0
LWPOLYLINE
  5
90
100
AcDbEntity
  8
INTERIOR_PROFILES
 62
256
370
-1
 48
1.0
  6
BYLAYER
100
AcDbPolyline
 90
4
 70
1
 10
290.2689278395690735
 20
68.1968752453864937
 10
291.8721014692545168
 20
68.0786608439193799
 10
294.6899188718336973
 20
106.2927066540559338
 10
293.0867452421480834
 20
106.4109210555230334
  0
LWPOLYLINE
  5
91
100
AcDbEntity
  8
INTERIOR_PROFILES
 62
256
370
-1
 48
1.0
  6
BYLAYER
100
AcDbPolyline
 90
4
 70
1
 10
-91.0152835264727145
 20
115.5047679128859102
 10
-89.605050593998044
 20
134.6297494802607275
 10
-92.0328893536908765
 20
134.8087728252817783
 10
-93.4431222861656181
 20
115.6837912579069609
  0
LWPOLYLINE
  5
92
100
AcDbEntity
  8
INTERIOR_PROFILES
 62
256
370
-1
 48
1.0
  6
BYLAYER
100
AcDbPolyline
 90
4
 70
1
 10
-24.1646998929078194
 20
-32.7018119830072607
 10
-33.6908556626490352
 20
-32.7018119830072607
 10
-33.6908556626490707
 20
-35.4787285613740622
 10
-24.1646998929077128
 20
-35.4787285613740977
  0
LWPOLYLINE
  5
93
100
AcDbEntity
  8
INTERIOR_PROFILES
 62
256
370
-1
 48
1.0
  6
BYLAYER
100
AcDbPolyline
 90
4
 70
1
 10
181.3908556626486472
 20
-46.3129230941055425
 10
171.8646998929073675
 20
-46.3129230941055283
 10
171.864699892907197
 20
-49.0898396724410446
 10
181.3908556626485051
 20
-49.0898396724410802
  0
LWPOLYLINE
  5
94
100
AcDbEntity
  8
INTERIOR_PROFILES
 62
256
370
-1
 48
1.0
  6
BYLAYER
100
AcDbPolyline
 90
4
 70
1
 10
148.1141353958594493
 20
72.4170853545523556
 10
225.0949165598597119
 20
61.3010612559031287
 10
225.4093261353537798
 20
63.4784130241410764
 10
148.4285449713534035
 20
74.5944371227904099
  0
LWPOLYLINE
  5
95
100
AcDbEntity
  8
INTERIOR_PROFILES
 62
256
370
-1
 48
1.0
  6
BYLAYER
100
AcDbPolyline
 90
4
 70
1
 10
89.1130057762816534
 20
50.0708881767201888
 10
225.126786656841432
 20
58.0879353289671627
 10
225.0808542450201344
 20
58.8672049126545431
 10
89.0670733644605832
 20
50.850157760407555
  0
LWPOLYLINE
  5
96
100
AcDbEntity
  8
INTERIOR_PROFILES
 62
256
370
-1
 48
1.0
  6
BYLAYER
100
AcDbPolyline
 90
4
 70
1
 10
-122.2042601521306722
 20
117.8045725852584411
 10
-120.7940272196559306
 20
136.9295541526332158
 10
-122.8710755882140404
 20
137.0827110067385775
 10
-124.2813085206886399
 20
117.9577294393638169
  0
LWPOLYLINE
  5
97
100
AcDbEntity
  8
INTERIOR_PROFILES
 62
256
370
-1
 48
1.0
  6
BYLAYER
100
AcDbPolyline
 90
4
 70
1
 10
55.4692188000938415
 20
123.9323006156164411
 10
53.286030055208613
 20
94.3248197927420051
 10
54.0737698808803913
 20
94.2667336377059684
 10
56.2569586257657903
 20
123.8742144605803617
  0
LWPOLYLINE
  5
98
100
AcDbEntity
  8
INTERIOR_PROFILES
 62
256
370
-1
 48
1.0
  6
BYLAYER
100
AcDbPolyline
 90
4
 70
1
 10
171.8646998929073675
 20
-32.7018119830094491
 10
171.8646998929073675
 20
-35.4787285613554957
 10
181.3908556626487041
 20
-35.4787285613554246
 10
181.3908556626487041
 20
-32.7018119830093781
  0
LWPOLYLINE
  5
99
100
AcDbEntity
  8
INTERIOR_PROFILES
 62
256
370
-1
 48
1.0
  6
BYLAYER
100
AcDbPolyline
 90
4
 70
1
 10
86.1182036349369895
 20
49.8943658432965407
 10
86.0722712231159193
 20
50.6736354269838642
 10
-58.925916081477645
 20
42.1270212744659034
 10
-58.8799836696569656
 20
41.3477516907785585
  0
LWPOLYLINE
  5
9A
100
AcDbEntity
  8
INTERIOR_PROFILES
 62
256
370
-1
 48
1.0
  6
BYLAYER
100
AcDbPolyline
 90
4
 70
1
 10
65.3159737228743609
 20
84.3731391456923348
 10
145.1449316523354582
 20
72.8458383480624718
 10
145.4593412278295546
 20
75.0231901163005546
 10
65.6303832983685567
 20
86.5504909139304175
  0
LWPOLYLINE
  5
9B
100
AcDbEntity
  8
INTERIOR_PROFILES
 62
256
370
-1
 48
1.0
  6
BYLAYER
100
AcDbPolyline
 90
4
 70
1
 10
237.7273696441196762
 20
67.7471555053062531
 10
240.6660084468229002
 20
67.5304669191436631
 10
243.8009447299481849
 20
110.0451446358609786
 10
240.8623059272448472
 20
110.2618332220235544
  0
LWPOLYLINE
  5
9C
100
AcDbEntity
  8
INTERIOR_PROFILES
 62
256
370
-1
 48
1.0
  6
BYLAYER
100
AcDbPolyline
 90
4
 70
1
 10
-33.6908556626489997
 20
-46.3129230941241943
 10
-33.6908556626491418
 20
-49.0898396724895605
 10
-24.1646998929076773
 20
-49.089839672489731
 10
-24.1646998929076773
 20
-46.312923094124173
  0
LWPOLYLINE
  5
9D
100
AcDbEntity
  8
INTERIOR_PROFILES
 62
256
370
-1
 48
1.0
  6
BYLAYER
100
AcDbPolyline
 90
4
 70
1
 10
-116.7554435363990706
 20
110.1087437047580977
 10
-99.961814580845143
 20
108.8704194467476611
 10
-99.8681052760417458
 20
110.1412653373718911
 10
-116.661734231595517
 20
111.379589595382356
  0
SPLINE
  5
9E
100
AcDbEntity
  8
ENGRAVE
 62
256
370
-1
 48
1.0
  6
BYLAYER
100
AcDbSpline
 70
8
 71
2
 72
6
 73
3
 74
0
 40
0.0
 40
0.0
 40
0.0
 40
1.0
 40
1.0
 40
1.0
 10
307.57113670576814
 20
80.6498218157937856
 30
0.0
 10
307.8577001359901146
 20
80.3619379902885811
 30
0.0
 10
308.0210787189822668
 20
80.017476900131868
 30
0.0
  0
SPLINE
  5
9F
100
AcDbEntity
  8
ENGRAVE
 62
256
370
-1
 48
1.0
  6
BYLAYER
100
AcDbSpline
 70
8
 71
2
 72
6
 73
3
 74
0
 40
0.0
 40
0.0
 40
0.0
 40
1.0
 40
1.0
 40
1.0
 10
308.0210787189822668
 20
80.017476900131868
 30
0.0
 10
308.1806768790712567
 20
79.6773981355060243
 30
0.0
 10
308.1562978940340258
 20
79.3467806688932882
 30
0.0
  0
SPLINE
  5
A0
100
AcDbEntity
  8
ENGRAVE
 62
256
370
-1
 48
1.0
  6
BYLAYER
100
AcDbSpline
 70
8
 71
2
 72
6
 73
3
 74
0
 40
0.0
 40
0.0
 40
0.0
 40
1.0
 40
1.0
 40
1.0
 10
308.1562978940340258
 20
79.3467806688932882
 30
0.0
 10
308.1295112108215335
 20
78.9835110196792129
 30
0.0
 10
307.8919812684449653
 20
78.6563001260363421
 30
0.0
  0
SPLINE
  5
A1
100
AcDbEntity
  8
ENGRAVE
 62
256
370
-1
 48
1.0
  6
BYLAYER
100
AcDbSpline
 70
8
 71
2
 72
6
 73
3
 74
0
 40
0.0
 40
0.0
 40
0.0
 40
1.0
 40
1.0
 40
1.0
 10
307.8919812684449653
 20
78.6563001260363421
 30
0.0
 10
307.6544513260683971
 20
78.3290892323934855
 30
0.0
 10
307.197677975470242
 20
78.1452649512761752
 30
0.0
  0
SPLINE
  5
A2
100
AcDbEntity
  8
ENGRAVE
 62
256
370
-1
 48
1.0
  6
BYLAYER
100
AcDbSpline
 70
8
 71
2
 72
6
 73
3
 74
0
 40
0.0
 40
0.0
 40
0.0
 40
1.0
 40
1.0
 40
1.0
 10
307.197677975470242
 20
78.1452649512761752
 30
0.0
 10
306.7412043873207494
 20
77.9655221320401068
 30
0.0
 10
306.2146666919088602
 20
78.0043478321143056
 30
0.0
  0
SPLINE
  5
A3
100
AcDbEntity
  8
ENGRAVE
 62
256
370
-1
 48
1.0
  6
BYLAYER
100
AcDbSpline
 70
8
 71
2
 72
6
 73
3
 74
0
 40
0.0
 40
0.0
 40
0.0
 40
1.0
 40
1.0
 40
1.0
 10
306.2146666919088602
 20
78.0043478321143056
 30
0.0
 10
305.5656782590647822
 20
78.0522027729187045
 30
0.0
 10
304.9410687235937871
 20
78.4306739914706554
 30
0.0
  0
SPLINE
  5
A4
100
AcDbEntity
  8
ENGRAVE
 62
256
370
-1
 48
1.0
  6
BYLAYER
100
AcDbSpline
 70
8
 71
2
 72
6
 73
3
 74
0
 40
0.0
 40
0.0
 40
0.0
 40
1.0
 40
1.0
 40
1.0
 10
304.9410687235937871
 20
78.4306739914706554
 30
0.0
 10
304.3126788528838915
 20
78.8135287244186884
 30
0.0
 10
304.0225618635880664
 20
79.331490994423234
 30
0.0
  0
SPLINE
  5
A5
100
AcDbEntity
  8
ENGRAVE
 62
256
370
-1
 48
1.0
  6
BYLAYER
100
AcDbSpline
 70
8
 71
2
 72
6
 73
3
 74
0
 40
0.0
 40
0.0
 40
0.0
 40
1.0
 40
1.0
 40
1.0
 10
304.0225618635880664
 20
79.331490994423234
 30
0.0
 10
303.7324448742922414
 20
79.8494532644277655
 30
0.0
 10
303.7667559540012689
 20
80.3147655911236455
 30
0.0
  0
SPLINE
  5
A6
100
AcDbEntity
  8
ENGRAVE
 62
256
370
-1
 48
1.0
  6
BYLAYER
100
AcDbSpline
 70
8
 71
2
 72
6
 73
3
 74
0
 40
0.0
 40
0.0
 40
0.0
 40
1.0
 40
1.0
 40
1.0
 10
303.7667559540012689
 20
80.3147655911236455
 30
0.0
 10
303.7929407345860682
 20
80.6698724919036891
 30
0.0
 10
304.0044752096964658
 20
80.9784812088079917
 30
0.0
  0
SPLINE
  5
A7
100
AcDbEntity
  8
ENGRAVE
 62
256
370
-1
 48
1.0
  6
BYLAYER
100
AcDbSpline
 70
8
 71
2
 72
6
 73
3
 74
0
 40
0.0
 40
0.0
 40
0.0
 40
1.0
 40
1.0
 40
1.0
 10
304.0044752096964658
 20
80.9784812088079917
 30
0.0
 10
304.211928310589883
 20
81.2873908770261977
 30
0.0
 10
304.6086801853917336
 20
81.4920564642418697
 30
0.0
  0
LINE
  5
A8
100
AcDbEntity
  8
ENGRAVE
 62
256
370
-1
 48
1.0
  6
BYLAYER
100
AcDbLine
 10
304.6086801853916768
 20
81.4920564642418697
 30
0.0
 11
303.9862526731319008
 21
81.6774836587624691
 31
0.0
  0
LINE
  5
A9
100
AcDbEntity
  8
ENGRAVE
 62
256
370
-1
 48
1.0
  6
BYLAYER
100
AcDbLine
 10
303.9862526731319008
 20
81.6774836587624691
 30
0.0
 11
304.0401270785350221
 21
82.4081055202728265
 31
0.0
  0
LINE
  5
AA
100
AcDbEntity
  8
ENGRAVE
 62
256
370
-1
 48
1.0
  6
BYLAYER
100
AcDbLine
 10
304.0401270785350221
 20
82.4081055202728265
 30
0.0
 11
306.7355992868542103
 21
81.6183886079633965
 31
0.0
  0
SPLINE
  5
AB
100
AcDbEntity
  8
ENGRAVE
 62
256
370
-1
 48
1.0
  6
BYLAYER
100
AcDbSpline
 70
8
 71
2
 72
6
 73
3
 74
0
 40
0.0
 40
0.0
 40
0.0
 40
1.0
 40
1.0
 40
1.0
 10
306.7355992868542103
 20
81.6183886079633965
 30
0.0
 10
307.2980064245186895
 20
81.4538014430117414
 30
0.0
 10
307.3592317932348124
 20
81.4492868226466413
 30
0.0
  0
SPLINE
  5
AC
100
AcDbEntity
  8
ENGRAVE
 62
256
370
-1
 48
1.0
  6
BYLAYER
100
AcDbSpline
 70
8
 71
2
 72
6
 73
3
 74
0
 40
0.0
 40
0.0
 40
0.0
 40
1.0
 40
1.0
 40
1.0
 10
307.3592317932348124
 20
81.4492868226466413
 30
0.0
 10
307.4694372191506204
 20
81.4411605235223135
 30
0.0
 10
307.5570902000799265
 20
81.5167756764550973
 30
0.0
  0
SPLINE
  5
AD
100
AcDbEntity
  8
ENGRAVE
 62
256
370
-1
 48
1.0
  6
BYLAYER
100
AcDbSpline
 70
8
 71
2
 72
6
 73
3
 74
0
 40
0.0
 40
0.0
 40
0.0
 40
1.0
 40
1.0
 40
1.0
 10
307.5570902000799265
 20
81.5167756764550973
 30
0.0
 10
307.6409626704418088
 20
81.596771966053609
 30
0.0
 10
307.6496908721939008
 20
81.7151401404034914
 30
0.0
  0
SPLINE
  5
AE
100
AcDbEntity
  8
ENGRAVE
 62
256
370
-1
 48
1.0
  6
BYLAYER
100
AcDbSpline
 70
8
 71
2
 72
6
 73
3
 74
0
 40
0.0
 40
0.0
 40
0.0
 40
1.0
 40
1.0
 40
1.0
 10
307.6496908721939008
 20
81.7151401404034914
 30
0.0
 10
307.6656426067929715
 20
81.9314708068833539
 30
0.0
 10
307.4425434993183899
 20
82.30085457735548
 30
0.0
  0
SPLINE
  5
AF
100
AcDbEntity
  8
ENGRAVE
 62
256
370
-1
 48
1.0
  6
BYLAYER
100
AcDbSpline
 70
8
 71
2
 72
6
 73
3
 74
0
 40
0.0
 40
0.0
 40
0.0
 40
1.0
 40
1.0
 40
1.0
 10
307.4425434993183899
 20
82.30085457735548
 30
0.0
 10
307.1503196754969736
 20
82.7902448501104971
 30
0.0
 10
306.623237095941704
 20
83.0999675799792357
 30
0.0
  0
SPLINE
  5
B0
100
AcDbEntity
  8
ENGRAVE
 62
256
370
-1
 48
1.0
  6
BYLAYER
100
AcDbSpline
 70
8
 71
2
 72
6
 73
3
 74
0
 40
0.0
 40
0.0
 40
0.0
 40
1.0
 40
1.0
 40
1.0
 10
306.623237095941704
 20
83.0999675799792357
 30
0.0
 10
306.0923751946842231
 20
83.4140713588494407
 30
0.0
 10
305.508693504773305
 20
83.4571107279748645
 30
0.0
  0
SPLINE
  5
B1
100
AcDbEntity
  8
ENGRAVE
 62
256
370
-1
 48
1.0
  6
BYLAYER
100
AcDbSpline
 70
8
 71
2
 72
6
 73
3
 74
0
 40
0.0
 40
0.0
 40
0.0
 40
1.0
 40
1.0
 40
1.0
 10
305.508693504773305
 20
83.4571107279748645
 30
0.0
 10
304.8270517004626754
 20
83.5073734546187723
 30
0.0
 10
304.2093235205110773
 20
83.1999903886741095
 30
0.0
  0
SPLINE
  5
B2
100
AcDbEntity
  8
ENGRAVE
 62
256
370
-1
 48
1.0
  6
BYLAYER
100
AcDbSpline
 70
8
 71
2
 72
6
 73
3
 74
0
 40
0.0
 40
0.0
 40
0.0
 40
1.0
 40
1.0
 40
1.0
 10
304.2093235205110773
 20
83.1999903886741095
 30
0.0
 10
303.5918962042090925
 20
82.8966875080812997
 30
0.0
 10
303.1856231284109526
 20
82.2289864055365456
 30
0.0
  0
SPLINE
  5
B3
100
AcDbEntity
  8
ENGRAVE
 62
256
370
-1
 48
1.0
  6
BYLAYER
100
AcDbSpline
 70
8
 71
2
 72
6
 73
3
 74
0
 40
0.0
 40
0.0
 40
0.0
 40
1.0
 40
1.0
 40
1.0
 10
303.1856231284109526
 20
82.2289864055365456
 30
0.0
 10
302.7796515106950324
 20
81.5653654445115137
 30
0.0
 10
302.7179518451457056
 20
80.728620720167541
 30
0.0
  0
SPLINE
  5
B4
100
AcDbEntity
  8
ENGRAVE
 62
256
370
-1
 48
1.0
  6
BYLAYER
100
AcDbSpline
 70
8
 71
2
 72
6
 73
3
 74
0
 40
0.0
 40
0.0
 40
0.0
 40
1.0
 40
1.0
 40
1.0
 10
302.7179518451457056
 20
80.728620720167541
 30
0.0
 10
302.6475238025158205
 20
79.7735054437432751
 30
0.0
 10
303.0381203300459561
 20
78.9485498378623305
 30
0.0
  0
SPLINE
  5
B5
100
AcDbEntity
  8
ENGRAVE
 62
256
370
-1
 48
1.0
  6
BYLAYER
100
AcDbSpline
 70
8
 71
2
 72
6
 73
3
 74
0
 40
0.0
 40
0.0
 40
0.0
 40
1.0
 40
1.0
 40
1.0
 10
303.0381203300459561
 20
78.9485498378623305
 30
0.0
 10
303.4249360155688464
 20
78.1279789790747827
 30
0.0
 10
304.2294787847955035
 20
77.629537619885383
 30
0.0
  0
SPLINE
  5
B6
100
AcDbEntity
  8
ENGRAVE
 62
256
370
-1
 48
1.0
  6
BYLAYER
100
AcDbSpline
 70
8
 71
2
 72
6
 73
3
 74
0
 40
0.0
 40
0.0
 40
0.0
 40
1.0
 40
1.0
 40
1.0
 10
304.2294787847955035
 20
77.629537619885383
 30
0.0
 10
305.030238841052892
 20
77.1354799504205602
 30
0.0
 10
305.9853541174771294
 20
77.0650519077906324
 30
0.0
  0
SPLINE
  5
B7
100
AcDbEntity
  8
ENGRAVE
 62
256
370
-1
 48
1.0
  6
BYLAYER
100
AcDbSpline
 70
8
 71
2
 72
6
 73
3
 74
0
 40
0.0
 40
0.0
 40
0.0
 40
1.0
 40
1.0
 40
1.0
 10
305.9853541174771294
 20
77.0650519077906324
 30
0.0
 10
306.9853680768841855
 20
76.9913131377153519
 30
0.0
 10
307.7397292949648886
 20
77.3706996778335565
 30
0.0
  0
SPLINE
  5
B8
100
AcDbEntity
  8
ENGRAVE
 62
256
370
-1
 48
1.0
  6
BYLAYER
100
AcDbSpline
 70
8
 71
2
 72
6
 73
3
 74
0
 40
0.0
 40
0.0
 40
0.0
 40
1.0
 40
1.0
 40
1.0
 10
307.7397292949648886
 20
77.3706996778335565
 30
0.0
 10
308.4943927408889408
 20
77.7541686933697633
 30
0.0
 10
308.8977501027823109
 20
78.5493048930015902
 30
0.0
  0
SPLINE
  5
B9
100
AcDbEntity
  8
ENGRAVE
 62
256
370
-1
 48
1.0
  6
BYLAYER
100
AcDbSpline
 70
8
 71
2
 72
6
 73
3
 74
0
 40
0.0
 40
0.0
 40
0.0
 40
1.0
 40
1.0
 40
1.0
 10
308.8977501027823109
 20
78.5493048930015902
 30
0.0
 10
309.3054911544002721
 20
79.3482238056027143
 30
0.0
 10
309.3792299244755668
 20
80.3482377650097703
 30
0.0
  0
SPLINE
  5
BA
100
AcDbEntity
  8
ENGRAVE
 62
256
370
-1
 48
1.0
  6
BYLAYER
100
AcDbSpline
 70
8
 71
2
 72
6
 73
3
 74
0
 40
0.0
 40
0.0
 40
0.0
 40
1.0
 40
1.0
 40
1.0
 10
309.3792299244755668
 20
80.3482377650097703
 30
0.0
 10
309.4580851298794073
 20
81.4176386527016973
 30
0.0
 10
309.1521681687925707
 20
82.1665835853408879
 30
0.0
  0
SPLINE
  5
BB
100
AcDbEntity
  8
ENGRAVE
 62
256
370
-1
 48
1.0
  6
BYLAYER
100
AcDbSpline
 70
8
 71
2
 72
6
 73
3
 74
0
 40
0.0
 40
0.0
 40
0.0
 40
1.0
 40
1.0
 40
1.0
 10
309.1521681687925707
 20
82.1665835853408879
 30
0.0
 10
308.8462523965708328
 20
82.9155284303158311
 30
0.0
 10
308.3584458322380328
 20
83.3126406526464223
 30
0.0
  0
LINE
  5
BC
100
AcDbEntity
  8
ENGRAVE
 62
256
370
-1
 48
1.0
  6
BYLAYER
100
AcDbLine
 10
308.3584458322380328
 20
83.3126406526464507
 30
0.0
 11
308.4129221402689041
 21
84.0514252625908256
 31
0.0
  0
SPLINE
  5
BD
100
AcDbEntity
  8
ENGRAVE
 62
256
370
-1
 48
1.0
  6
BYLAYER
100
AcDbSpline
 70
8
 71
2
 72
6
 73
3
 74
0
 40
0.0
 40
0.0
 40
0.0
 40
1.0
 40
1.0
 40
1.0
 10
308.4129221402689041
 20
84.0514252625908114
 30
0.0
 10
308.8261500646383979
 20
83.8116573797196622
 30
0.0
 10
309.233732199014014
 20
83.2727204075815735
 30
0.0
  0
SPLINE
  5
BE
100
AcDbEntity
  8
ENGRAVE
 62
256
370
-1
 48
1.0
  6
BYLAYER
100
AcDbSpline
 70
8
 71
2
 72
6
 73
3
 74
0
 40
0.0
 40
0.0
 40
0.0
 40
1.0
 40
1.0
 40
1.0
 10
309.233732199014014
 20
83.2727204075815735
 30
0.0
 10
309.641315697583309
 20
82.733785725509648
 30
0.0
 10
309.8469958644000712
 20
82.016855812399541
 30
0.0
  0
SPLINE
  5
BF
100
AcDbEntity
  8
ENGRAVE
 62
256
370
-1
 48
1.0
  6
BYLAYER
100
AcDbSpline
 70
8
 71
2
 72
6
 73
3
 74
0
 40
0.0
 40
0.0
 40
0.0
 40
1.0
 40
1.0
 40
1.0
 10
309.8469958644000712
 20
82.016855812399541
 30
0.0
 10
310.0567574054339275
 20
81.2996249479755448
 30
0.0
 10
309.9842225282783943
 20
80.3159376743017788
 30
0.0
  0
SPLINE
  5
C0
100
AcDbEntity
  8
ENGRAVE
 62
256
370
-1
 48
1.0
  6
BYLAYER
100
AcDbSpline
 70
8
 71
2
 72
6
 73
3
 74
0
 40
0.0
 40
0.0
 40
0.0
 40
1.0
 40
1.0
 40
1.0
 10
309.9842225282783943
 20
80.3159376743017788
 30
0.0
 10
309.9174062520719417
 20
79.4098036439425101
 30
0.0
 10
309.6281668585033344
 20
78.6596013877379505
 30
0.0
  0
SPLINE
  5
C1
100
AcDbEntity
  8
ENGRAVE
 62
256
370
-1
 48
1.0
  6
BYLAYER
100
AcDbSpline
 70
8
 71
2
 72
6
 73
3
 74
0
 40
0.0
 40
0.0
 40
0.0
 40
1.0
 40
1.0
 40
1.0
 10
309.6281668585033344
 20
78.6596013877379505
 30
0.0
 10
309.3392285039127501
 20
77.9134816946155979
 30
0.0
 10
308.8301049724545919
 20
77.4093108063746342
 30
0.0
  0
SPLINE
  5
C2
100
AcDbEntity
  8
ENGRAVE
 62
256
370
-1
 48
1.0
  6
BYLAYER
100
AcDbSpline
 70
8
 71
2
 72
6
 73
3
 74
0
 40
0.0
 40
0.0
 40
0.0
 40
1.0
 40
1.0
 40
1.0
 10
308.8301049724545919
 20
77.4093108063746342
 30
0.0
 10
308.3250640040786834
 20
76.9048388791555482
 30
0.0
 10
307.6967275640143953
 20
76.676210571714762
 30
0.0
  0
SPLINE
  5
C3
100
AcDbEntity
  8
ENGRAVE
 62
256
370
-1
 48
1.0
  6
BYLAYER
100
AcDbSpline
 70
8
 71
2
 72
6
 73
3
 74
0
 40
0.0
 40
0.0
 40
0.0
 40
1.0
 40
1.0
 40
1.0
 10
307.6967275640143953
 20
76.676210571714762
 30
0.0
 10
306.9000065547594431
 20
76.3902331639855845
 30
0.0
 10
306.0061166470512148
 20
76.4561465862504122
 30
0.0
  0
SPLINE
  5
C4
100
AcDbEntity
  8
ENGRAVE
 62
256
370
-1
 48
1.0
  6
BYLAYER
100
AcDbSpline
 70
8
 71
2
 72
6
 73
3
 74
0
 40
0.0
 40
0.0
 40
0.0
 40
1.0
 40
1.0
 40
1.0
 10
306.0061166470512148
 20
76.4561465862504122
 30
0.0
 10
305.0101852507263516
 20
76.5295843173475845
 30
0.0
 10
304.1382300929062126
 20
77.0042691633021974
 30
0.0
  0
SPLINE
  5
C5
100
AcDbEntity
  8
ENGRAVE
 62
256
370
-1
 48
1.0
  6
BYLAYER
100
AcDbSpline
 70
8
 71
2
 72
6
 73
3
 74
0
 40
0.0
 40
0.0
 40
0.0
 40
1.0
 40
1.0
 40
1.0
 10
304.1382300929062126
 20
77.0042691633021974
 30
0.0
 10
303.0688109473488794
 20
77.5837989793503624
 30
0.0
 10
302.5484661497193315
 20
78.5414372674481598
 30
0.0
  0
SPLINE
  5
C6
100
AcDbEntity
  8
ENGRAVE
 62
256
370
-1
 48
1.0
  6
BYLAYER
100
AcDbSpline
 70
8
 71
2
 72
6
 73
3
 74
0
 40
0.0
 40
0.0
 40
0.0
 40
1.0
 40
1.0
 40
1.0
 10
302.5484661497193315
 20
78.5414372674481598
 30
0.0
 10
302.0284223034036586
 20
79.5031569297629801
 30
0.0
 10
302.124734175304468
 20
80.8092977327502524
 30
0.0
  0
SPLINE
  5
C7
100
AcDbEntity
  8
ENGRAVE
 62
256
370
-1
 48
1.0
  6
BYLAYER
100
AcDbSpline
 70
8
 71
2
 72
6
 73
3
 74
0
 40
0.0
 40
0.0
 40
0.0
 40
1.0
 40
1.0
 40
1.0
 10
302.124734175304468
 20
80.8092977327502524
 30
0.0
 10
302.1993757993213876
 20
81.8215558148083488
 30
0.0
 10
302.6750001238557388
 20
82.5949501444663525
 30
0.0
  0
SPLINE
  5
C8
100
AcDbEntity
  8
ENGRAVE
 62
256
370
-1
 48
1.0
  6
BYLAYER
100
AcDbSpline
 70
8
 71
2
 72
6
 73
3
 74
0
 40
0.0
 40
0.0
 40
0.0
 40
1.0
 40
1.0
 40
1.0
 10
302.6750001238557388
 20
82.5949501444663525
 30
0.0
 10
303.1468433433901737
 20
83.372725654622144
 30
0.0
 10
304.0015742450078164
 20
83.7775420771920665
 30
0.0
  0
SPLINE
  5
C9
100
AcDbEntity
  8
ENGRAVE
 62
256
370
-1
 48
1.0
  6
BYLAYER
100
AcDbSpline
 70
8
 71
2
 72
6
 73
3
 74
0
 40
0.0
 40
0.0
 40
0.0
 40
1.0
 40
1.0
 40
1.0
 10
304.0015742450078164
 20
83.7775420771920665
 30
0.0
 10
304.7368999525376694
 20
84.1213965756813025
 30
0.0
 10
305.5654831173127945
 20
84.0602987250954641
 30
0.0
  0
SPLINE
  5
CA
100
AcDbEntity
  8
ENGRAVE
 62
256
370
-1
 48
1.0
  6
BYLAYER
100
AcDbSpline
 70
8
 71
2
 72
6
 73
3
 74
0
 40
0.0
 40
0.0
 40
0.0
 40
1.0
 40
1.0
 40
1.0
 10
305.5654831173127945
 20
84.0602987250954641
 30
0.0
 10
306.7491719940027792
 20
83.9730161815890881
 30
0.0
 10
307.6061537228437714
 20
83.0726323371203677
 30
0.0
  0
SPLINE
  5
CB
100
AcDbEntity
  8
ENGRAVE
 62
256
370
-1
 48
1.0
  6
BYLAYER
100
AcDbSpline
 70
8
 71
2
 72
6
 73
3
 74
0
 40
0.0
 40
0.0
 40
0.0
 40
1.0
 40
1.0
 40
1.0
 10
307.6061537228437714
 20
83.0726323371203677
 30
0.0
 10
308.3758769775277528
 20
82.2689683524860271
 30
0.0
 10
308.3108665845330734
 20
81.3873249451592642
 30
0.0
  0
SPLINE
  5
CC
100
AcDbEntity
  8
ENGRAVE
 62
256
370
-1
 48
1.0
  6
BYLAYER
100
AcDbSpline
 70
8
 71
2
 72
6
 73
3
 74
0
 40
0.0
 40
0.0
 40
0.0
 40
1.0
 40
1.0
 40
1.0
 10
308.3108665845330734
 20
81.3873249451592642
 30
0.0
 10
308.2900992782550134
 20
81.1056875357463269
 30
0.0
 10
308.1914426045683513
 20
80.9364957828100273
 30
0.0
  0
SPLINE
  5
CD
100
AcDbEntity
  8
ENGRAVE
 62
256
370
-1
 48
1.0
  6
BYLAYER
100
AcDbSpline
 70
8
 71
2
 72
6
 73
3
 74
0
 40
0.0
 40
0.0
 40
0.0
 40
1.0
 40
1.0
 40
1.0
 10
308.1914426045683513
 20
80.9364957828100273
 30
0.0
 10
308.0930856056661469
 20
80.7713843028897713
 30
0.0
 10
307.9278807456159939
 20
80.7014900409722031
 30
0.0
  0
SPLINE
  5
CE
100
AcDbEntity
  8
ENGRAVE
 62
256
370
-1
 48
1.0
  6
BYLAYER
100
AcDbSpline
 70
8
 71
2
 72
6
 73
3
 74
0
 40
0.0
 40
0.0
 40
0.0
 40
1.0
 40
1.0
 40
1.0
 10
307.9278807456159939
 20
80.7014900409722031
 30
0.0
 10
307.8219254380611005
 20
80.6559530060519734
 30
0.0
 10
307.57113670576814
 20
80.6498218157937856
 30
0.0
  0
SPLINE
  5
CF
100
AcDbEntity
  8
ENGRAVE
 62
256
370
-1
 48
1.0
  6
BYLAYER
100
AcDbSpline
 70
8
 71
2
 72
6
 73
3
 74
0
 40
0.0
 40
0.0
 40
0.0
 40
1.0
 40
1.0
 40
1.0
 10
306.3193282265887092
 20
78.7558485502336936
 30
0.0
 10
306.87851929346715
 20
78.7146150643200002
 30
0.0
 10
307.2082908369584402
 20
78.957050545995088
 30
0.0
  0
SPLINE
  5
D0
100
AcDbEntity
  8
ENGRAVE
 62
256
370
-1
 48
1.0
  6
BYLAYER
100
AcDbSpline
 70
8
 71
2
 72
6
 73
3
 74
0
 40
0.0
 40
0.0
 40
0.0
 40
1.0
 40
1.0
 40
1.0
 10
307.2082908369584402
 20
78.957050545995088
 30
0.0
 10
307.5380623804496736
 20
79.1994860276701615
 30
0.0
 10
307.5633442194285863
 20
79.5423476169339381
 30
0.0
  0
SPLINE
  5
D1
100
AcDbEntity
  8
ENGRAVE
 62
256
370
-1
 48
1.0
  6
BYLAYER
100
AcDbSpline
 70
8
 71
2
 72
6
 73
3
 74
0
 40
0.0
 40
0.0
 40
0.0
 40
1.0
 40
1.0
 40
1.0
 10
307.5633442194285863
 20
79.5423476169339381
 30
0.0
 10
307.5801988079692819
 20
79.7709224060648694
 30
0.0
 10
307.46416314310909
 20
80.0339188116991664
 30
0.0
  0
SPLINE
  5
D2
100
AcDbEntity
  8
ENGRAVE
 62
256
370
-1
 48
1.0
  6
BYLAYER
100
AcDbSpline
 70
8
 71
2
 72
6
 73
3
 74
0
 40
0.0
 40
0.0
 40
0.0
 40
1.0
 40
1.0
 40
1.0
 10
307.46416314310909
 20
80.0339188116991664
 30
0.0
 10
307.3440461916961226
 20
80.2972173575125368
 30
0.0
 10
307.0915097835410847
 20
80.5456552347861816
 30
0.0
  0
SPLINE
  5
D3
100
AcDbEntity
  8
ENGRAVE
 62
256
370
-1
 48
1.0
  6
BYLAYER
100
AcDbSpline
 70
8
 71
2
 72
6
 73
3
 74
0
 40
0.0
 40
0.0
 40
0.0
 40
1.0
 40
1.0
 40
1.0
 10
307.0915097835410847
 20
80.5456552347861816
 30
0.0
 10
306.8392732254989141
 20
80.7981757628062951
 30
0.0
 10
306.4378586430269706
 20
80.9755154852426244
 30
0.0
  0
SPLINE
  5
D4
100
AcDbEntity
  8
ENGRAVE
 62
256
370
-1
 48
1.0
  6
BYLAYER
100
AcDbSpline
 70
8
 71
2
 72
6
 73
3
 74
0
 40
0.0
 40
0.0
 40
0.0
 40
1.0
 40
1.0
 40
1.0
 10
306.4378586430269706
 20
80.9755154852426244
 30
0.0
 10
306.0323614974728343
 20
81.153156246657062
 30
0.0
 10
305.6160292279767532
 20
81.1838556476069328
 30
0.0
  0
SPLINE
  5
D5
100
AcDbEntity
  8
ENGRAVE
 62
256
370
-1
 48
1.0
  6
BYLAYER
100
AcDbSpline
 70
8
 71
2
 72
6
 73
3
 74
0
 40
0.0
 40
0.0
 40
0.0
 40
1.0
 40
1.0
 40
1.0
 10
305.6160292279767532
 20
81.1838556476069328
 30
0.0
 10
305.0609195353152927
 20
81.2247881822067228
 30
0.0
 10
304.7343264244351531
 20
80.9698064377015214
 30
0.0
  0
SPLINE
  5
D6
100
AcDbEntity
  8
ENGRAVE
 62
256
370
-1
 48
1.0
  6
BYLAYER
100
AcDbSpline
 70
8
 71
2
 72
6
 73
3
 74
0
 40
0.0
 40
0.0
 40
0.0
 40
1.0
 40
1.0
 40
1.0
 10
304.7343264244351531
 20
80.9698064377015214
 30
0.0
 10
304.4080342648688884
 20
80.718906067413343
 30
0.0
 10
304.3788397081526682
 20
80.3229818578675463
 30
0.0
  0
SPLINE
  5
D7
100
AcDbEntity
  8
ENGRAVE
 62
256
370
-1
 48
1.0
  6
BYLAYER
100
AcDbSpline
 70
8
 71
2
 72
6
 73
3
 74
0
 40
0.0
 40
0.0
 40
0.0
 40
1.0
 40
1.0
 40
1.0
 10
304.3788397081526682
 20
80.3229818578675463
 30
0.0
 10
304.3595773337725632
 20
80.0617536972700918
 30
0.0
 10
304.4771178428663347
 20
79.8191653515860651
 30
0.0
  0
SPLINE
  5
D8
100
AcDbEntity
  8
ENGRAVE
 62
256
370
-1
 48
1.0
  6
BYLAYER
100
AcDbSpline
 70
8
 71
2
 72
6
 73
3
 74
0
 40
0.0
 40
0.0
 40
0.0
 40
1.0
 40
1.0
 40
1.0
 10
304.4771178428663347
 20
79.8191653515860651
 30
0.0
 10
304.5908767401917885
 20
79.5809594190971836
 30
0.0
 10
304.8688079018504027
 20
79.3429608824638137
 30
0.0
  0
SPLINE
  5
D9
100
AcDbEntity
  8
ENGRAVE
 62
256
370
-1
 48
1.0
  6
BYLAYER
100
AcDbSpline
 70
8
 71
2
 72
6
 73
3
 74
0
 40
0.0
 40
0.0
 40
0.0
 40
1.0
 40
1.0
 40
1.0
 10
304.8688079018504027
 20
79.3429608824638137
 30
0.0
 10
305.1467365104501823
 20
79.1049601434285279
 30
0.0
 10
305.5575201996705346
 20
78.9433462176344278
 30
0.0
  0
SPLINE
  5
DA
100
AcDbEntity
  8
ENGRAVE
 62
256
370
-1
 48
1.0
  6
BYLAYER
100
AcDbSpline
 70
8
 71
2
 72
6
 73
3
 74
0
 40
0.0
 40
0.0
 40
0.0
 40
1.0
 40
1.0
 40
1.0
 10
305.5575201996705346
 20
78.9433462176344278
 30
0.0
 10
305.9683027000256743
 20
78.781732379504561
 30
0.0
 10
306.3193282265887092
 20
78.7558485502336936
 30
0.0
  0
LINE
  5
DB
100
AcDbEntity
  8
ENGRAVE
 62
256
370
-1
 48
1.0
  6
BYLAYER
100
AcDbLine
 10
307.2378122768250819
 20
84.7003079353445543
 30
0.0
 11
307.1770988431172213
 21
85.4352744842109075
 31
0.0
  0
SPLINE
  5
DC
100
AcDbEntity
  8
ENGRAVE
 62
256
370
-1
 48
1.0
  6
BYLAYER
100
AcDbSpline
 70
8
 71
2
 72
6
 73
3
 74
0
 40
0.0
 40
0.0
 40
0.0
 40
1.0
 40
1.0
 40
1.0
 10
307.1770988431172213
 20
85.4352744842109075
 30
0.0
 10
307.6183538805929061
 20
85.4642967966086786
 30
0.0
 10
307.8714761359123031
 20
85.7246937253544559
 30
0.0
  0
SPLINE
  5
DD
100
AcDbEntity
  8
ENGRAVE
 62
256
370
-1
 48
1.0
  6
BYLAYER
100
AcDbSpline
 70
8
 71
2
 72
6
 73
3
 74
0
 40
0.0
 40
0.0
 40
0.0
 40
1.0
 40
1.0
 40
1.0
 10
307.8714761359123031
 20
85.7246937253544559
 30
0.0
 10
308.1248996055382463
 20
85.9891755949128509
 30
0.0
 10
308.1619195100649335
 20
86.4912238561574753
 30
0.0
  0
SPLINE
  5
DE
100
AcDbEntity
  8
ENGRAVE
 62
256
370
-1
 48
1.0
  6
BYLAYER
100
AcDbSpline
 70
8
 71
2
 72
6
 73
3
 74
0
 40
0.0
 40
0.0
 40
0.0
 40
1.0
 40
1.0
 40
1.0
 10
308.1619195100649335
 20
86.4912238561574753
 30
0.0
 10
308.199240278241291
 20
86.9973523027539386
 30
0.0
 10
308.0132145936032657
 20
87.2573024829470683
 30
0.0
  0
SPLINE
  5
DF
100
AcDbEntity
  8
ENGRAVE
 62
256
370
-1
 48
1.0
  6
BYLAYER
100
AcDbSpline
 70
8
 71
2
 72
6
 73
3
 74
0
 40
0.0
 40
0.0
 40
0.0
 40
1.0
 40
1.0
 40
1.0
 10
308.0132145936032657
 20
87.2573024829470683
 30
0.0
 10
307.8231075347482602
 20
87.5175536144540587
 30
0.0
 10
307.5455526884175015
 20
87.5380198817539679
 30
0.0
  0
SPLINE
  5
E0
100
AcDbEntity
  8
ENGRAVE
 62
256
370
-1
 48
1.0
  6
BYLAYER
100
AcDbSpline
 70
8
 71
2
 72
6
 73
3
 74
0
 40
0.0
 40
0.0
 40
0.0
 40
1.0
 40
1.0
 40
1.0
 10
307.5455526884175015
 20
87.5380198817539679
 30
0.0
 10
307.2965698393363141
 20
87.5563793145282574
 30
0.0
 10
307.1377581184896712
 20
87.3505828206764363
 30
0.0
  0
SPLINE
  5
E1
100
AcDbEntity
  8
ENGRAVE
 62
256
370
-1
 48
1.0
  6
BYLAYER
100
AcDbSpline
 70
8
 71
2
 72
6
 73
3
 74
0
 40
0.0
 40
0.0
 40
0.0
 40
1.0
 40
1.0
 40
1.0
 10
307.1377581184896712
 20
87.3505828206764363
 30
0.0
 10
307.0286620164985152
 20
87.2067846323785147
 30
0.0
 10
306.8333960197717261
 20
86.6179123319900981
 30
0.0
  0
SPLINE
  5
E2
100
AcDbEntity
  8
ENGRAVE
 62
256
370
-1
 48
1.0
  6
BYLAYER
100
AcDbSpline
 70
8
 71
2
 72
6
 73
3
 74
0
 40
0.0
 40
0.0
 40
0.0
 40
1.0
 40
1.0
 40
1.0
 10
306.8333960197717261
 20
86.6179123319900981
 30
0.0
 10
306.5697189349853602
 20
85.8247871213593641
 30
0.0
 10
306.3996036712684372
 20
85.5213313767576011
 30
0.0
  0
SPLINE
  5
E3
100
AcDbEntity
  8
ENGRAVE
 62
256
370
-1
 48
1.0
  6
BYLAYER
100
AcDbSpline
 70
8
 71
2
 72
6
 73
3
 74
0
 40
0.0
 40
0.0
 40
0.0
 40
1.0
 40
1.0
 40
1.0
 10
306.3996036712684372
 20
85.5213313767576011
 30
0.0
 10
306.225706883447458
 20
85.2222592342161676
 30
0.0
 10
305.9524397936525588
 20
85.0782547512636711
 30
0.0
  0
SPLINE
  5
E4
100
AcDbEntity
  8
ENGRAVE
 62
256
370
-1
 48
1.0
  6
BYLAYER
100
AcDbSpline
 70
8
 71
2
 72
6
 73
3
 74
0
 40
0.0
 40
0.0
 40
0.0
 40
1.0
 40
1.0
 40
1.0
 10
305.9524397936525588
 20
85.0782547512636711
 30
0.0
 10
305.6753921932902927
 20
84.93863140497686
 30
0.0
 10
305.3570200381937525
 20
84.962107448408247
 30
0.0
  0
SPLINE
  5
E5
100
AcDbEntity
  8
ENGRAVE
 62
256
370
-1
 48
1.0
  6
BYLAYER
100
AcDbSpline
 70
8
 71
2
 72
6
 73
3
 74
0
 40
0.0
 40
0.0
 40
0.0
 40
1.0
 40
1.0
 40
1.0
 10
305.3570200381937525
 20
84.962107448408247
 30
0.0
 10
305.0672198803467836
 20
84.9834766573140143
 30
0.0
 10
304.8319497241690215
 20
85.1321510023709607
 30
0.0
  0
SPLINE
  5
E6
100
AcDbEntity
  8
ENGRAVE
 62
256
370
-1
 48
1.0
  6
BYLAYER
100
AcDbSpline
 70
8
 71
2
 72
6
 73
3
 74
0
 40
0.0
 40
0.0
 40
0.0
 40
1.0
 40
1.0
 40
1.0
 10
304.8319497241690215
 20
85.1321510023709607
 30
0.0
 10
304.5929002462891049
 20
85.285206396429345
 30
0.0
 10
304.4464867009676823
 20
85.5258190135567702
 30
0.0
  0
SPLINE
  5
E7
100
AcDbEntity
  8
ENGRAVE
 62
256
370
-1
 48
1.0
  6
BYLAYER
100
AcDbSpline
 70
8
 71
2
 72
6
 73
3
 74
0
 40
0.0
 40
0.0
 40
0.0
 40
1.0
 40
1.0
 40
1.0
 10
304.4464867009676823
 20
85.5258190135567702
 30
0.0
 10
304.332595596472288
 20
85.7065811890979319
 30
0.0
 10
304.2685496772791112
 20
86.0067820358735702
 30
0.0
  0
SPLINE
  5
E8
100
AcDbEntity
  8
ENGRAVE
 62
256
370
-1
 48
1.0
  6
BYLAYER
100
AcDbSpline
 70
8
 71
2
 72
6
 73
3
 74
0
 40
0.0
 40
0.0
 40
0.0
 40
1.0
 40
1.0
 40
1.0
 10
304.2685496772791112
 20
86.0067820358735702
 30
0.0
 10
304.2007246117122463
 20
86.3113663093810715
 30
0.0
 10
304.2257055870414888
 20
86.6501477132930376
 30
0.0
  0
SPLINE
  5
E9
100
AcDbEntity
  8
ENGRAVE
 62
256
370
-1
 48
1.0
  6
BYLAYER
100
AcDbSpline
 70
8
 71
2
 72
6
 73
3
 74
0
 40
0.0
 40
0.0
 40
0.0
 40
1.0
 40
1.0
 40
1.0
 10
304.2257055870414888
 20
86.6501477132930376
 30
0.0
 10
304.2633272188674596
 20
87.1603563452413113
 30
0.0
 10
304.4385590932414516
 20
87.5332013958583559
 30
0.0
  0
SPLINE
  5
EA
100
AcDbEntity
  8
ENGRAVE
 62
256
370
-1
 48
1.0
  6
BYLAYER
100
AcDbSpline
 70
8
 71
2
 72
6
 73
3
 74
0
 40
0.0
 40
0.0
 40
0.0
 40
1.0
 40
1.0
 40
1.0
 10
304.4385590932414516
 20
87.5332013958583559
 30
0.0
 10
304.6140918312651138
 20
87.9101266318271968
 30
0.0
 10
304.8807010168595752
 20
88.0751410773577561
 30
0.0
  0
SPLINE
  5
EB
100
AcDbEntity
  8
ENGRAVE
 62
256
370
-1
 48
1.0
  6
BYLAYER
100
AcDbSpline
 70
8
 71
2
 72
6
 73
3
 74
0
 40
0.0
 40
0.0
 40
0.0
 40
1.0
 40
1.0
 40
1.0
 10
304.8807010168595752
 20
88.0751410773577561
 30
0.0
 10
305.1432278147003672
 20
88.2404589395967918
 30
0.0
 10
305.5687580690705545
 20
88.2788478933483418
 30
0.0
  0
LINE
  5
EC
100
AcDbEntity
  8
ENGRAVE
 62
256
370
-1
 48
1.0
  6
BYLAYER
100
AcDbLine
 10
305.5687580690704976
 20
88.2788478933483418
 30
0.0
 11
305.6137465443443944
 21
87.5532456081053709
 31
0.0
  0
SPLINE
  5
ED
100
AcDbEntity
  8
ENGRAVE
 62
256
370
-1
 48
1.0
  6
BYLAYER
100
AcDbSpline
 70
8
 71
2
 72
6
 73
3
 74
0
 40
0.0
 40
0.0
 40
0.0
 40
1.0
 40
1.0
 40
1.0
 10
305.6137465443443944
 20
87.5532456081053567
 30
0.0
 10
305.2754373012848532
 20
87.528946588457643
 30
0.0
 10
305.0702220532218121
 20
87.3060527621009186
 30
0.0
  0
SPLINE
  5
EE
100
AcDbEntity
  8
ENGRAVE
 62
256
370
-1
 48
1.0
  6
BYLAYER
100
AcDbSpline
 70
8
 71
2
 72
6
 73
3
 74
0
 40
0.0
 40
0.0
 40
0.0
 40
1.0
 40
1.0
 40
1.0
 10
305.0702220532218121
 20
87.3060527621009186
 30
0.0
 10
304.86530903300212
 20
87.0872414111621822
 30
0.0
 10
304.8337067781106953
 20
86.6586650190150465
 30
0.0
  0
SPLINE
  5
EF
100
AcDbEntity
  8
ENGRAVE
 62
256
370
-1
 48
1.0
  6
BYLAYER
100
AcDbSpline
 70
8
 71
2
 72
6
 73
3
 74
0
 40
0.0
 40
0.0
 40
0.0
 40
1.0
 40
1.0
 40
1.0
 10
304.8337067781106953
 20
86.6586650190150465
 30
0.0
 10
304.7963860099343378
 20
86.1525365724185832
 30
0.0
 10
304.9477836957501609
 20
85.9238659377631393
 30
0.0
  0
SPLINE
  5
F0
100
AcDbEntity
  8
ENGRAVE
 62
256
370
-1
 48
1.0
  6
BYLAYER
100
AcDbSpline
 70
8
 71
2
 72
6
 73
3
 74
0
 40
0.0
 40
0.0
 40
0.0
 40
1.0
 40
1.0
 40
1.0
 10
304.9477836957501609
 20
85.9238659377631393
 30
0.0
 10
305.0991813815660407
 20
85.6951953031077096
 30
0.0
 10
305.3236747964799065
 20
85.6786416658809173
 30
0.0
  0
SPLINE
  5
F1
100
AcDbEntity
  8
ENGRAVE
 62
256
370
-1
 48
1.0
  6
BYLAYER
100
AcDbSpline
 70
8
 71
2
 72
6
 73
3
 74
0
 40
0.0
 40
0.0
 40
0.0
 40
1.0
 40
1.0
 40
1.0
 10
305.3236747964799065
 20
85.6786416658809173
 30
0.0
 10
305.466533593862323
 20
85.6681075809170807
 30
0.0
 10
305.5874418488858737
 20
85.7494776964444441
 30
0.0
  0
SPLINE
  5
F2
100
AcDbEntity
  8
ENGRAVE
 62
256
370
-1
 48
1.0
  6
BYLAYER
100
AcDbSpline
 70
8
 71
2
 72
6
 73
3
 74
0
 40
0.0
 40
0.0
 40
0.0
 40
1.0
 40
1.0
 40
1.0
 10
305.5874418488858737
 20
85.7494776964444441
 30
0.0
 10
305.7124326669916741
 20
85.8305467729936709
 30
0.0
 10
305.804130572828285
 20
86.0166683031561945
 30
0.0
  0
SPLINE
  5
F3
100
AcDbEntity
  8
ENGRAVE
 62
256
370
-1
 48
1.0
  6
BYLAYER
100
AcDbSpline
 70
8
 71
2
 72
6
 73
3
 74
0
 40
0.0
 40
0.0
 40
0.0
 40
1.0
 40
1.0
 40
1.0
 10
305.804130572828285
 20
86.0166683031561945
 30
0.0
 10
305.8530729918531961
 20
86.1238640406048006
 30
0.0
 10
306.0397429063335721
 20
86.651810734725828
 30
0.0
  0
SPLINE
  5
F4
100
AcDbEntity
  8
ENGRAVE
 62
256
370
-1
 48
1.0
  6
BYLAYER
100
AcDbSpline
 70
8
 71
2
 72
6
 73
3
 74
0
 40
0.0
 40
0.0
 40
0.0
 40
1.0
 40
1.0
 40
1.0
 10
306.0397429063335721
 20
86.651810734725828
 30
0.0
 10
306.3053946184756455
 20
87.4160641856583709
 30
0.0
 10
306.4626636815852407
 20
87.7122576580373448
 30
0.0
  0
SPLINE
  5
F5
100
AcDbEntity
  8
ENGRAVE
 62
256
370
-1
 48
1.0
  6
BYLAYER
100
AcDbSpline
 70
8
 71
2
 72
6
 73
3
 74
0
 40
0.0
 40
0.0
 40
0.0
 40
1.0
 40
1.0
 40
1.0
 10
306.4626636815852407
 20
87.7122576580373448
 30
0.0
 10
306.6161524094559923
 20
88.0128346448124148
 30
0.0
 10
306.8821586788859577
 20
88.1696888073035439
 30
0.0
  0
SPLINE
  5
F6
100
AcDbEntity
  8
ENGRAVE
 62
256
370
-1
 48
1.0
  6
BYLAYER
100
AcDbSpline
 70
8
 71
2
 72
6
 73
3
 74
0
 40
0.0
 40
0.0
 40
0.0
 40
1.0
 40
1.0
 40
1.0
 10
306.8821586788859577
 20
88.1696888073035439
 30
0.0
 10
307.1481647729875704
 20
88.3265405920642763
 30
0.0
 10
307.5236809225830257
 20
88.2988508795816642
 30
0.0
  0
SPLINE
  5
F7
100
AcDbEntity
  8
ENGRAVE
 62
256
370
-1
 48
1.0
  6
BYLAYER
100
AcDbSpline
 70
8
 71
2
 72
6
 73
3
 74
0
 40
0.0
 40
0.0
 40
0.0
 40
1.0
 40
1.0
 40
1.0
 10
307.5236809225830257
 20
88.2988508795816642
 30
0.0
 10
307.8910319460141523
 20
88.2717632450552827
 30
0.0
 10
308.2016164791392612
 20
88.0313569225824324
 30
0.0
  0
SPLINE
  5
F8
100
AcDbEntity
  8
ENGRAVE
 62
256
370
-1
 48
1.0
  6
BYLAYER
100
AcDbSpline
 70
8
 71
2
 72
6
 73
3
 74
0
 40
0.0
 40
0.0
 40
0.0
 40
1.0
 40
1.0
 40
1.0
 10
308.2016164791392612
 20
88.0313569225824324
 30
0.0
 10
308.5084179486382254
 20
87.7953295343733373
 30
0.0
 10
308.6582163088895641
 20
87.3780008554772678
 30
0.0
  0
SPLINE
  5
F9
100
AcDbEntity
  8
ENGRAVE
 62
256
370
-1
 48
1.0
  6
BYLAYER
100
AcDbSpline
 70
8
 71
2
 72
6
 73
3
 74
0
 40
0.0
 40
0.0
 40
0.0
 40
1.0
 40
1.0
 40
1.0
 10
308.6582163088895641
 20
87.3780008554772678
 30
0.0
 10
308.8039321060587099
 20
86.9609732155593207
 30
0.0
 10
308.7663101235758631
 20
86.450759828150268
 30
0.0
  0
SPLINE
  5
FA
100
AcDbEntity
  8
ENGRAVE
 62
256
370
-1
 48
1.0
  6
BYLAYER
100
AcDbSpline
 70
8
 71
2
 72
6
 73
3
 74
0
 40
0.0
 40
0.0
 40
0.0
 40
1.0
 40
1.0
 40
1.0
 10
308.7663101235758631
 20
86.450759828150268
 30
0.0
 10
308.7040085553987296
 20
85.6058523553722353
 30
0.0
 10
308.3201779822254593
 20
85.1868318302332739
 30
0.0
  0
SPLINE
  5
FB
100
AcDbEntity
  8
ENGRAVE
 62
256
370
-1
 48
1.0
  6
BYLAYER
100
AcDbSpline
 70
8
 71
2
 72
6
 73
3
 74
0
 40
0.0
 40
0.0
 40
0.0
 40
1.0
 40
1.0
 40
1.0
 10
308.3201779822254593
 20
85.1868318302332739
 30
0.0
 10
307.9366470838366467
 20
84.7718915781103703
 30
0.0
 10
307.2378122768250819
 20
84.7003079353445543
 30
0.0
  0
LINE
  5
FC
100
AcDbEntity
  8
ENGRAVE
 62
256
370
-1
 48
1.0
  6
BYLAYER
100
AcDbLine
 10
308.3227061812323768
 20
90.7309869915768132
 30
0.0
 11
308.9795200495510699
 21
90.7892572913364262
 31
0.0
  0
SPLINE
  5
FD
100
AcDbEntity
  8
ENGRAVE
 62
256
370
-1
 48
1.0
  6
BYLAYER
100
AcDbSpline
 70
8
 71
2
 72
6
 73
3
 74
0
 40
0.0
 40
0.0
 40
0.0
 40
1.0
 40
1.0
 40
1.0
 10
308.9795200495510699
 20
90.7892572913364404
 30
0.0
 10
309.021953928209939
 20
90.4742334141959645
 30
0.0
 10
309.0038954467495387
 20
90.2293319393317717
 30
0.0
  0
SPLINE
  5
FE
100
AcDbEntity
  8
ENGRAVE
 62
256
370
-1
 48
1.0
  6
BYLAYER
100
AcDbSpline
 70
8
 71
2
 72
6
 73
3
 74
0
 40
0.0
 40
0.0
 40
0.0
 40
1.0
 40
1.0
 40
1.0
 10
309.0038954467495387
 20
90.2293319393317717
 30
0.0
 10
308.9743999387194435
 20
89.8293263555689521
 30
0.0
 10
308.8316152288216472
 20
89.61824569578134
 30
0.0
  0
SPLINE
  5
FF
100
AcDbEntity
  8
ENGRAVE
 62
256
370
-1
 48
1.0
  6
BYLAYER
100
AcDbSpline
 70
8
 71
2
 72
6
 73
3
 74
0
 40
0.0
 40
0.0
 40
0.0
 40
1.0
 40
1.0
 40
1.0
 10
308.8316152288216472
 20
89.61824569578134
 30
0.0
 10
308.6888293300586383
 20
89.4071651236579754
 30
0.0
 10
308.4781237090695072
 20
89.332416463021346
 30
0.0
  0
SPLINE
  5
100
100
AcDbEntity
  8
ENGRAVE
 62
256
370
-1
 48
1.0
  6
BYLAYER
100
AcDbSpline
 70
8
 71
2
 72
6
 73
3
 74
0
 40
0.0
 40
0.0
 40
0.0
 40
1.0
 40
1.0
 40
1.0
 10
308.4781237090695072
 20
89.332416463021346
 30
0.0
 10
308.2633367138633957
 20
89.2579687536985773
 30
0.0
 10
307.6021029695031075
 20
89.3067266361088627
 30
0.0
  0
LINE
  5
101
100
AcDbEntity
  8
ENGRAVE
 62
256
370
-1
 48
1.0
  6
BYLAYER
100
AcDbLine
 10
307.6021029695030506
 20
89.3067266361088485
 30
0.0
 11
305.1081919156088134
 21
89.4906220028298947
 31
0.0
  0
LINE
  5
102
100
AcDbEntity
  8
ENGRAVE
 62
256
370
-1
 48
1.0
  6
BYLAYER
100
AcDbLine
 10
305.1081919156088134
 20
89.4906220028298947
 30
0.0
 11
305.0684633615929897
 21
88.9518401847669082
 31
0.0
  0
LINE
  5
103
100
AcDbEntity
  8
ENGRAVE
 62
256
370
-1
 48
1.0
  6
BYLAYER
100
AcDbLine
 10
305.0684633615929897
 20
88.9518401847669082
 30
0.0
 11
304.4970269831982819
 21
88.9939766122864597
 31
0.0
  0
LINE
  5
104
100
AcDbEntity
  8
ENGRAVE
 62
256
370
-1
 48
1.0
  6
BYLAYER
100
AcDbLine
 10
304.4970269831982819
 20
88.9939766122864597
 30
0.0
 11
304.5367555372140487
 21
89.5327584303494604
 31
0.0
  0
LINE
  5
105
100
AcDbEntity
  8
ENGRAVE
 62
256
370
-1
 48
1.0
  6
BYLAYER
100
AcDbLine
 10
304.5367555372140487
 20
89.5327584303494604
 30
0.0
 11
303.4632714920073226
 21
89.6119147185635825
 31
0.0
  0
LINE
  5
106
100
AcDbEntity
  8
ENGRAVE
 62
256
370
-1
 48
1.0
  6
BYLAYER
100
AcDbLine
 10
303.4632714920073226
 20
89.6119147185635825
 30
0.0
 11
303.0763235993144917
 21
90.3750418204034247
 31
0.0
  0
LINE
  5
107
100
AcDbEntity
  8
ENGRAVE
 62
256
370
-1
 48
1.0
  6
BYLAYER
100
AcDbLine
 10
303.0763235993144917
 20
90.3750418204034247
 30
0.0
 11
304.5906299426171699
 21
90.2633802918598036
 31
0.0
  0
LINE
  5
108
100
AcDbEntity
  8
ENGRAVE
 62
256
370
-1
 48
1.0
  6
BYLAYER
100
AcDbLine
 10
304.5906299426171699
 20
90.2633802918598036
 30
0.0
 11
304.645106250648098
 21
91.0021649018042069
 31
0.0
  0
LINE
  5
109
100
AcDbEntity
  8
ENGRAVE
 62
256
370
-1
 48
1.0
  6
BYLAYER
100
AcDbLine
 10
304.645106250648098
 20
91.0021649018042069
 30
0.0
 11
305.2165426290428059
 21
90.9600284742846554
 31
0.0
  0
LINE
  5
10A
100
AcDbEntity
  8
ENGRAVE
 62
256
370
-1
 48
1.0
  6
BYLAYER
100
AcDbLine
 10
305.2165426290428059
 20
90.9600284742846554
 30
0.0
 11
305.1620663210119346
 21
90.2212438643402663
 31
0.0
  0
LINE
  5
10B
100
AcDbEntity
  8
ENGRAVE
 62
256
370
-1
 48
1.0
  6
BYLAYER
100
AcDbLine
 10
305.1620663210119346
 20
90.2212438643402663
 30
0.0
 11
307.6967946836719534
 21
90.0343387214877424
 31
0.0
  0
SPLINE
  5
10C
100
AcDbEntity
  8
ENGRAVE
 62
256
370
-1
 48
1.0
  6
BYLAYER
100
AcDbSpline
 70
8
 71
2
 72
6
 73
3
 74
0
 40
0.0
 40
0.0
 40
0.0
 40
1.0
 40
1.0
 40
1.0
 10
307.6967946836719534
 20
90.0343387214877424
 30
0.0
 10
308.0110842756862439
 20
90.0111637170344636
 30
0.0
 10
308.1035904664694272
 20
90.0412781966925024
 30
0.0
  0
SPLINE
  5
10D
100
AcDbEntity
  8
ENGRAVE
 62
256
370
-1
 48
1.0
  6
BYLAYER
100
AcDbSpline
 70
8
 71
2
 72
6
 73
3
 74
0
 40
0.0
 40
0.0
 40
0.0
 40
1.0
 40
1.0
 40
1.0
 10
308.1035904664694272
 20
90.0412781966925024
 30
0.0
 10
308.1963963320370112
 20
90.0754729493665849
 30
0.0
 10
308.2557795435600951
 20
90.1572774122429763
 30
0.0
  0
SPLINE
  5
10E
100
AcDbEntity
  8
ENGRAVE
 62
256
370
-1
 48
1.0
  6
BYLAYER
100
AcDbSpline
 70
8
 71
2
 72
6
 73
3
 74
0
 40
0.0
 40
0.0
 40
0.0
 40
1.0
 40
1.0
 40
1.0
 10
308.2557795435600951
 20
90.1572774122429763
 30
0.0
 10
308.3154624298675799
 20
90.2431621481354114
 30
0.0
 10
308.3275011837366151
 20
90.4064266277377016
 30
0.0
  0
SPLINE
  5
10F
100
AcDbEntity
  8
ENGRAVE
 62
256
370
-1
 48
1.0
  6
BYLAYER
100
AcDbSpline
 70
8
 71
2
 72
6
 73
3
 74
0
 40
0.0
 40
0.0
 40
0.0
 40
1.0
 40
1.0
 40
1.0
 10
308.3275011837366151
 20
90.4064266277377016
 30
0.0
 10
308.3365305997953101
 20
90.5288797429001733
 30
0.0
 10
308.3227061812323768
 20
90.7309869915768132
 30
0.0
  0
LINE
  5
110
100
AcDbEntity
  8
ENGRAVE
 62
256
370
-1
 48
1.0
  6
BYLAYER
100
AcDbLine
 10
307.8557015594715267
 20
94.4712283563564057
 30
0.0
 11
308.0055614519185951
 21
95.2234986200464846
 31
0.0
  0
SPLINE
  5
111
100
AcDbEntity
  8
ENGRAVE
 62
256
370
-1
 48
1.0
  6
BYLAYER
100
AcDbSpline
 70
8
 71
2
 72
6
 73
3
 74
0
 40
0.0
 40
0.0
 40
0.0
 40
1.0
 40
1.0
 40
1.0
 10
308.0055614519185951
 20
95.2234986200464846
 30
0.0
 10
308.6576336607144526
 20
94.994845054391206
 30
0.0
 10
308.9891701243964803
 20
94.4820393232848232
 30
0.0
  0
SPLINE
  5
112
100
AcDbEntity
  8
ENGRAVE
 62
256
370
-1
 48
1.0
  6
BYLAYER
100
AcDbSpline
 70
8
 71
2
 72
6
 73
3
 74
0
 40
0.0
 40
0.0
 40
0.0
 40
1.0
 40
1.0
 40
1.0
 10
308.9891701243964803
 20
94.4820393232848232
 30
0.0
 10
309.3207050485564196
 20
93.9692289243818664
 30
0.0
 10
309.2650249352700484
 20
93.214118817569414
 30
0.0
  0
SPLINE
  5
113
100
AcDbEntity
  8
ENGRAVE
 62
256
370
-1
 48
1.0
  6
BYLAYER
100
AcDbSpline
 70
8
 71
2
 72
6
 73
3
 74
0
 40
0.0
 40
0.0
 40
0.0
 40
1.0
 40
1.0
 40
1.0
 10
309.2650249352700484
 20
93.214118817569414
 30
0.0
 10
309.1948977562897198
 20
92.2630837264969728
 30
0.0
 10
308.5699838569945541
 20
91.7469331299448925
 30
0.0
  0
SPLINE
  5
114
100
AcDbEntity
  8
ENGRAVE
 62
256
370
-1
 48
1.0
  6
BYLAYER
100
AcDbSpline
 70
8
 71
2
 72
6
 73
3
 74
0
 40
0.0
 40
0.0
 40
0.0
 40
1.0
 40
1.0
 40
1.0
 10
308.5699838569945541
 20
91.7469331299448925
 30
0.0
 10
307.9412882582667521
 20
91.235163757722745
 30
0.0
 10
306.884130304360724
 20
91.3131161968492506
 30
0.0
  0
SPLINE
  5
115
100
AcDbEntity
  8
ENGRAVE
 62
256
370
-1
 48
1.0
  6
BYLAYER
100
AcDbSpline
 70
8
 71
2
 72
6
 73
3
 74
0
 40
0.0
 40
0.0
 40
0.0
 40
1.0
 40
1.0
 40
1.0
 10
306.884130304360724
 20
91.3131161968492506
 30
0.0
 10
305.7902387936362629
 20
91.3937772854648927
 30
0.0
 10
305.2276822921373878
 20
92.0015940275836641
 30
0.0
  0
SPLINE
  5
116
100
AcDbEntity
  8
ENGRAVE
 62
256
370
-1
 48
1.0
  6
BYLAYER
100
AcDbSpline
 70
8
 71
2
 72
6
 73
3
 74
0
 40
0.0
 40
0.0
 40
0.0
 40
1.0
 40
1.0
 40
1.0
 10
305.2276822921373878
 20
92.0015940275836641
 30
0.0
 10
304.6651281683688808
 20
92.6094105943739407
 30
0.0
 10
304.7313425419475834
 20
93.5073818762991777
 30
0.0
  0
SPLINE
  5
117
100
AcDbEntity
  8
ENGRAVE
 62
256
370
-1
 48
1.0
  6
BYLAYER
100
AcDbSpline
 70
8
 71
2
 72
6
 73
3
 74
0
 40
0.0
 40
0.0
 40
0.0
 40
1.0
 40
1.0
 40
1.0
 10
304.7313425419475834
 20
93.5073818762991777
 30
0.0
 10
304.7954501686648996
 20
94.3767823498400844
 30
0.0
 10
305.4279261026315453
 20
94.8841682076661499
 30
0.0
  0
SPLINE
  5
118
100
AcDbEntity
  8
ENGRAVE
 62
256
370
-1
 48
1.0
  6
BYLAYER
100
AcDbSpline
 70
8
 71
2
 72
6
 73
3
 74
0
 40
0.0
 40
0.0
 40
0.0
 40
1.0
 40
1.0
 40
1.0
 10
305.4279261026315453
 20
94.8841682076661499
 30
0.0
 10
306.0604020365982478
 20
95.3915540654922012
 30
0.0
 10
307.1338854873723676
 20
95.3123978211101814
 30
0.0
  0
SPLINE
  5
119
100
AcDbEntity
  8
ENGRAVE
 62
256
370
-1
 48
1.0
  6
BYLAYER
100
AcDbSpline
 70
8
 71
2
 72
6
 73
3
 74
0
 40
0.0
 40
0.0
 40
0.0
 40
1.0
 40
1.0
 40
1.0
 10
307.1338854873723676
 20
95.3123978211101814
 30
0.0
 10
307.1991934191706832
 20
95.307582161766959
 30
0.0
 10
307.3295060413871624
 20
95.2938708330571842
 30
0.0
  0
LINE
  5
11A
100
AcDbEntity
  8
ENGRAVE
 62
256
370
-1
 48
1.0
  6
BYLAYER
100
AcDbLine
 10
307.3295060413871056
 20
95.2938708330571842
 30
0.0
 11
307.0911341913068213
 21
92.0611727914881044
 31
0.0
  0
SPLINE
  5
11B
100
AcDbEntity
  8
ENGRAVE
 62
256
370
-1
 48
1.0
  6
BYLAYER
100
AcDbSpline
 70
8
 71
2
 72
6
 73
3
 74
0
 40
0.0
 40
0.0
 40
0.0
 40
1.0
 40
1.0
 40
1.0
 10
307.0911341913068213
 20
92.0611727914881044
 30
0.0
 10
307.8084392308796282
 20
92.0493207766356818
 30
0.0
 10
308.2148234379046698
 20
92.38459976205327
 30
0.0
  0
SPLINE
  5
11C
100
AcDbEntity
  8
ENGRAVE
 62
256
370
-1
 48
1.0
  6
BYLAYER
100
AcDbSpline
 70
8
 71
2
 72
6
 73
3
 74
0
 40
0.0
 40
0.0
 40
0.0
 40
1.0
 40
1.0
 40
1.0
 10
308.2148234379046698
 20
92.38459976205327
 30
0.0
 10
308.621206456064499
 20
92.7198788351350629
 30
0.0
 10
308.6612360490584024
 20
93.2627432162802705
 30
0.0
  0
SPLINE
  5
11D
100
AcDbEntity
  8
ENGRAVE
 62
256
370
-1
 48
1.0
  6
BYLAYER
100
AcDbSpline
 70
8
 71
2
 72
6
 73
3
 74
0
 40
0.0
 40
0.0
 40
0.0
 40
1.0
 40
1.0
 40
1.0
 10
308.6612360490584024
 20
93.2627432162802705
 30
0.0
 10
308.6910324207381677
 20
93.6668289853949148
 30
0.0
 10
308.4998538514618076
 20
93.9681995658467599
 30
0.0
  0
SPLINE
  5
11E
100
AcDbEntity
  8
ENGRAVE
 62
256
370
-1
 48
1.0
  6
BYLAYER
100
AcDbSpline
 70
8
 71
2
 72
6
 73
3
 74
0
 40
0.0
 40
0.0
 40
0.0
 40
1.0
 40
1.0
 40
1.0
 10
308.4998538514618076
 20
93.9681995658467599
 30
0.0
 10
308.3086739179918254
 20
94.2695678562324417
 30
0.0
 10
307.8557015594715267
 20
94.4712283563564057
 30
0.0
  0
LINE
  5
11F
100
AcDbEntity
  8
ENGRAVE
 62
256
370
-1
 48
1.0
  6
BYLAYER
100
AcDbLine
 10
306.4900543052413013
 20
92.1465355024781161
 30
0.0
 11
306.6685320223270423
 21
94.5669746872749215
 31
0.0
  0
SPLINE
  5
120
100
AcDbEntity
  8
ENGRAVE
 62
256
370
-1
 48
1.0
  6
BYLAYER
100
AcDbSpline
 70
8
 71
2
 72
6
 73
3
 74
0
 40
0.0
 40
0.0
 40
0.0
 40
1.0
 40
1.0
 40
1.0
 10
306.6685320223270423
 20
94.5669746872749073
 30
0.0
 10
306.1179733116761668
 20
94.5583240731819785
 30
0.0
 10
305.8276465275512237
 20
94.3499157012380465
 30
0.0
  0
SPLINE
  5
121
100
AcDbEntity
  8
ENGRAVE
 62
256
370
-1
 48
1.0
  6
BYLAYER
100
AcDbSpline
 70
8
 71
2
 72
6
 73
3
 74
0
 40
0.0
 40
0.0
 40
0.0
 40
1.0
 40
1.0
 40
1.0
 10
305.8276465275512237
 20
94.3499157012380465
 30
0.0
 10
305.3772665791493068
 20
94.030192754782064
 30
0.0
 10
305.3360330055713803
 20
93.4710004990384107
 30
0.0
  0
SPLINE
  5
122
100
AcDbEntity
  8
ENGRAVE
 62
256
370
-1
 48
1.0
  6
BYLAYER
100
AcDbSpline
 70
8
 71
2
 72
6
 73
3
 74
0
 40
0.0
 40
0.0
 40
0.0
 40
1.0
 40
1.0
 40
1.0
 10
305.3360330055713803
 20
93.4710004990384107
 30
0.0
 10
305.2987122373950797
 20
92.9648720524419616
 30
0.0
 10
305.6119107633500107
 20
92.5929469247667072
 30
0.0
  0
SPLINE
  5
123
100
AcDbEntity
  8
ENGRAVE
 62
256
370
-1
 48
1.0
  6
BYLAYER
100
AcDbSpline
 70
8
 71
2
 72
6
 73
3
 74
0
 40
0.0
 40
0.0
 40
0.0
 40
1.0
 40
1.0
 40
1.0
 10
305.6119107633500107
 20
92.5929469247667072
 30
0.0
 10
305.9254079505527102
 20
92.2251045355021404
 30
0.0
 10
306.4900543052413013
 20
92.1465355024781161
 30
0.0
  0
LINE
  5
124
100
AcDbEntity
  8
ENGRAVE
 62
256
370
-1
 48
1.0
  6
BYLAYER
100
AcDbLine
 10
309.4644275116825156
 20
97.2540490064521919
 30
0.0
 11
305.0080815877395253
 21
95.924682644390117
 31
0.0
  0
LINE
  5
125
100
AcDbEntity
  8
ENGRAVE
 62
256
370
-1
 48
1.0
  6
BYLAYER
100
AcDbLine
 10
305.0080815877395253
 20
95.924682644390117
 30
0.0
 11
305.0652667205879993
 21
96.7002031888832505
 31
0.0
  0
LINE
  5
126
100
AcDbEntity
  8
ENGRAVE
 62
256
370
-1
 48
1.0
  6
BYLAYER
100
AcDbLine
 10
305.0652667205879993
 20
96.7002031888832505
 30
0.0
 11
307.7298426113822529
 21
97.4394080790573867
 31
0.0
  0
SPLINE
  5
127
100
AcDbEntity
  8
ENGRAVE
 62
256
370
-1
 48
1.0
  6
BYLAYER
100
AcDbSpline
 70
8
 71
2
 72
6
 73
3
 74
0
 40
0.0
 40
0.0
 40
0.0
 40
1.0
 40
1.0
 40
1.0
 10
307.7298426113822529
 20
97.4394080790574151
 30
0.0
 10
308.1613924180154527
 20
97.5594316503404713
 30
0.0
 10
308.6237895375749076
 20
97.652554435021159
 30
0.0
  0
SPLINE
  5
128
100
AcDbEntity
  8
ENGRAVE
 62
256
370
-1
 48
1.0
  6
BYLAYER
100
AcDbSpline
 70
8
 71
2
 72
6
 73
3
 74
0
 40
0.0
 40
0.0
 40
0.0
 40
1.0
 40
1.0
 40
1.0
 10
308.6237895375749076
 20
97.652554435021159
 30
0.0
 10
308.288151305829615
 20
97.7757963883996553
 30
0.0
 10
307.819454164203762
 20
97.9868235298773982
 30
0.0
  0
LINE
  5
129
100
AcDbEntity
  8
ENGRAVE
 62
256
370
-1
 48
1.0
  6
BYLAYER
100
AcDbLine
 10
307.819454164203762
 20
97.9868235298773982
 30
0.0
 11
305.2455504962140367
 21
99.145135374442944
 31
0.0
  0
LINE
  5
12A
100
AcDbEntity
  8
ENGRAVE
 62
256
370
-1
 48
1.0
  6
BYLAYER
100
AcDbLine
 10
305.2455504962140367
 20
99.145135374442944
 30
0.0
 11
305.3012307848288174
 21
99.9002478589857787
 31
0.0
  0
LINE
  5
12B
100
AcDbEntity
  8
ENGRAVE
 62
256
370
-1
 48
1.0
  6
BYLAYER
100
AcDbLine
 10
305.3012307848288174
 20
99.9002478589857787
 30
0.0
 11
309.5149911896402273
 21
97.9397721849797875
 31
0.0
  0
LINE
  5
12C
100
AcDbEntity
  8
ENGRAVE
 62
256
370
-1
 48
1.0
  6
BYLAYER
100
AcDbLine
 10
309.5149911896402273
 20
97.9397721849797875
 30
0.0
 11
309.4644275116825156
 21
97.2540490064521919
 31
0.0
  0
LINE
  5
12D
100
AcDbEntity
  8
ENGRAVE
 62
256
370
-1
 48
1.0
  6
BYLAYER
100
AcDbLine
 10
308.5067093076667106
 20
103.2999196297923277
 30
0.0
 11
308.6565693754422455
 21
104.0521922712127889
 31
0.0
  0
SPLINE
  5
12E
100
AcDbEntity
  8
ENGRAVE
 62
256
370
-1
 48
1.0
  6
BYLAYER
100
AcDbSpline
 70
8
 71
2
 72
6
 73
3
 74
0
 40
0.0
 40
0.0
 40
0.0
 40
1.0
 40
1.0
 40
1.0
 10
308.6565693754422455
 20
104.0521922712128031
 30
0.0
 10
309.308641584238103
 20
103.8235387055575387
 30
0.0
 10
309.6401776972632547
 20
103.3107282189903486
 30
0.0
  0
SPLINE
  5
12F
100
AcDbEntity
  8
ENGRAVE
 62
256
370
-1
 48
1.0
  6
BYLAYER
100
AcDbSpline
 70
8
 71
2
 72
6
 73
3
 74
0
 40
0.0
 40
0.0
 40
0.0
 40
1.0
 40
1.0
 40
1.0
 10
309.6401776972632547
 20
103.3107282189903486
 30
0.0
 10
309.9717129720800699
 20
102.7979225755481707
 30
0.0
 10
309.916032508136766
 20
102.0428077132749252
 30
0.0
  0
SPLINE
  5
130
100
AcDbEntity
  8
ENGRAVE
 62
256
370
-1
 48
1.0
  6
BYLAYER
100
AcDbSpline
 70
8
 71
2
 72
6
 73
3
 74
0
 40
0.0
 40
0.0
 40
0.0
 40
1.0
 40
1.0
 40
1.0
 10
309.916032508136766
 20
102.0428077132749252
 30
0.0
 10
309.845905679813427
 20
101.0917773776632913
 30
0.0
 10
309.2209914298613285
 20
100.5756220256504037
 30
0.0
  0
SPLINE
  5
131
100
AcDbEntity
  8
ENGRAVE
 62
256
370
-1
 48
1.0
  6
BYLAYER
100
AcDbSpline
 70
8
 71
2
 72
6
 73
3
 74
0
 40
0.0
 40
0.0
 40
0.0
 40
1.0
 40
1.0
 40
1.0
 10
309.2209914298613285
 20
100.5756220256504037
 30
0.0
 10
308.5922960064619929
 20
100.063855031158667
 30
0.0
 10
307.535138052555908
 20
100.1418074702851726
 30
0.0
  0
SPLINE
  5
132
100
AcDbEntity
  8
ENGRAVE
 62
256
370
-1
 48
1.0
  6
BYLAYER
100
AcDbSpline
 70
8
 71
2
 72
6
 73
3
 74
0
 40
0.0
 40
0.0
 40
0.0
 40
1.0
 40
1.0
 40
1.0
 10
307.535138052555908
 20
100.1418074702851726
 30
0.0
 10
306.4412465418315037
 20
100.2224685589008146
 30
0.0
 10
305.8786900403325717
 20
100.8302853010195719
 30
0.0
  0
SPLINE
  5
133
100
AcDbEntity
  8
ENGRAVE
 62
256
370
-1
 48
1.0
  6
BYLAYER
100
AcDbSpline
 70
8
 71
2
 72
6
 73
3
 74
0
 40
0.0
 40
0.0
 40
0.0
 40
1.0
 40
1.0
 40
1.0
 10
305.8786900403325717
 20
100.8302853010195719
 30
0.0
 10
305.3161357412356551
 20
101.4380994900794803
 30
0.0
 10
305.3823502901428242
 20
102.3360731497351139
 30
0.0
  0
SPLINE
  5
134
100
AcDbEntity
  8
ENGRAVE
 62
256
370
-1
 48
1.0
  6
BYLAYER
100
AcDbSpline
 70
8
 71
2
 72
6
 73
3
 74
0
 40
0.0
 40
0.0
 40
0.0
 40
1.0
 40
1.0
 40
1.0
 10
305.3823502901428242
 20
102.3360731497351139
 30
0.0
 10
305.4464580921885499
 20
103.205476001006403
 30
0.0
 10
306.0789338508267292
 20
103.7128594811020577
 30
0.0
  0
SPLINE
  5
135
100
AcDbEntity
  8
ENGRAVE
 62
256
370
-1
 48
1.0
  6
BYLAYER
100
AcDbSpline
 70
8
 71
2
 72
6
 73
3
 74
0
 40
0.0
 40
0.0
 40
0.0
 40
1.0
 40
1.0
 40
1.0
 10
306.0789338508267292
 20
103.7128594811020577
 30
0.0
 10
306.7114096094649653
 20
104.2202429611977266
 30
0.0
 10
307.784893060239142
 20
104.141086716815721
 30
0.0
  0
SPLINE
  5
136
100
AcDbEntity
  8
ENGRAVE
 62
256
370
-1
 48
1.0
  6
BYLAYER
100
AcDbSpline
 70
8
 71
2
 72
6
 73
3
 74
0
 40
0.0
 40
0.0
 40
0.0
 40
1.0
 40
1.0
 40
1.0
 10
307.784893060239142
 20
104.141086716815721
 30
0.0
 10
307.8502009920374007
 20
104.1362710574724986
 30
0.0
 10
307.98051361425388
 20
104.1225597287626954
 30
0.0
  0
LINE
  5
137
100
AcDbEntity
  8
ENGRAVE
 62
256
370
-1
 48
1.0
  6
BYLAYER
100
AcDbLine
 10
307.9805136142538231
 20
104.1225597287626954
 30
0.0
 11
307.7421419395020052
 21
100.8898640649240264
 31
0.0
  0
SPLINE
  5
138
100
AcDbEntity
  8
ENGRAVE
 62
256
370
-1
 48
1.0
  6
BYLAYER
100
AcDbSpline
 70
8
 71
2
 72
6
 73
3
 74
0
 40
0.0
 40
0.0
 40
0.0
 40
1.0
 40
1.0
 40
1.0
 10
307.7421419395020052
 20
100.8898640649240264
 30
0.0
 10
308.4594471544032785
 20
100.8780144278019861
 30
0.0
 10
308.8658313614283202
 20
101.2132934132195601
 30
0.0
  0
SPLINE
  5
139
100
AcDbEntity
  8
ENGRAVE
 62
256
370
-1
 48
1.0
  6
BYLAYER
100
AcDbSpline
 70
8
 71
2
 72
6
 73
3
 74
0
 40
0.0
 40
0.0
 40
0.0
 40
1.0
 40
1.0
 40
1.0
 10
308.8658313614283202
 20
101.2132934132195601
 30
0.0
 10
309.2722143795881493
 20
101.5485724863013957
 30
0.0
 10
309.3122439725821096
 20
102.0914368674465891
 30
0.0
  0
SPLINE
  5
13A
100
AcDbEntity
  8
ENGRAVE
 62
256
370
-1
 48
1.0
  6
BYLAYER
100
AcDbSpline
 70
8
 71
2
 72
6
 73
3
 74
0
 40
0.0
 40
0.0
 40
0.0
 40
1.0
 40
1.0
 40
1.0
 10
309.3122439725821096
 20
102.0914368674465891
 30
0.0
 10
309.3420403442618181
 20
102.4955226365612475
 30
0.0
 10
309.1508615996570484
 20
102.7968908392826819
 30
0.0
  0
SPLINE
  5
13B
100
AcDbEntity
  8
ENGRAVE
 62
256
370
-1
 48
1.0
  6
BYLAYER
100
AcDbSpline
 70
8
 71
2
 72
6
 73
3
 74
0
 40
0.0
 40
0.0
 40
0.0
 40
1.0
 40
1.0
 40
1.0
 10
309.1508615996570484
 20
102.7968908392826819
 30
0.0
 10
308.9596816661870662
 20
103.0982591296683637
 30
0.0
 10
308.5067093076667106
 20
103.2999196297923277
 30
0.0
  0
LINE
  5
13C
100
AcDbEntity
  8
ENGRAVE
 62
256
370
-1
 48
1.0
  6
BYLAYER
100
AcDbLine
 10
307.1410622287649517
 20
100.9752291536444204
 30
0.0
 11
307.3195395951938167
 21
103.3956635829804327
 31
0.0
  0
SPLINE
  5
13D
100
AcDbEntity
  8
ENGRAVE
 62
256
370
-1
 48
1.0
  6
BYLAYER
100
AcDbSpline
 70
8
 71
2
 72
6
 73
3
 74
0
 40
0.0
 40
0.0
 40
0.0
 40
1.0
 40
1.0
 40
1.0
 10
307.3195395951938167
 20
103.3956635829804327
 30
0.0
 10
306.7689812351998739
 20
103.3870177243482829
 30
0.0
 10
306.4786542757464645
 20
103.1786069746739543
 30
0.0
  0
SPLINE
  5
13E
100
AcDbEntity
  8
ENGRAVE
 62
256
370
-1
 48
1.0
  6
BYLAYER
100
AcDbSpline
 70
8
 71
2
 72
6
 73
3
 74
0
 40
0.0
 40
0.0
 40
0.0
 40
1.0
 40
1.0
 40
1.0
 10
306.4786542757464645
 20
103.1786069746739543
 30
0.0
 10
306.0282743273444908
 20
102.8588840282179717
 30
0.0
 10
305.9870405784380978
 20
102.2996893947439219
 30
0.0
  0
SPLINE
  5
13F
100
AcDbEntity
  8
ENGRAVE
 62
256
370
-1
 48
1.0
  6
BYLAYER
100
AcDbSpline
 70
8
 71
2
 72
6
 73
3
 74
0
 40
0.0
 40
0.0
 40
0.0
 40
1.0
 40
1.0
 40
1.0
 10
305.9870405784380978
 20
102.2996893947439219
 30
0.0
 10
305.94972016091873
 20
101.7935657036082659
 30
0.0
 10
306.2629183362167851
 20
101.4216358204722468
 30
0.0
  0
SPLINE
  5
140
100
AcDbEntity
  8
ENGRAVE
 62
256
370
-1
 48
1.0
  6
BYLAYER
100
AcDbSpline
 70
8
 71
2
 72
6
 73
3
 74
0
 40
0.0
 40
0.0
 40
0.0
 40
1.0
 40
1.0
 40
1.0
 10
306.2629183362167851
 20
101.4216358204722468
 30
0.0
 10
306.576415698747951
 20
101.0537958089380766
 30
0.0
 10
307.1410622287649517
 20
100.9752291536444204
 30
0.0
  0
LINE
  5
141
100
AcDbEntity
  8
ENGRAVE
 62
256
370
-1
 48
1.0
  6
BYLAYER
100
AcDbLine
 10
311.6878942117114093
 20
104.7561444006961295
 30
0.0
 11
305.6918953960817475
 21
105.198275806841238
 31
0.0
  0
LINE
  5
142
100
AcDbEntity
  8
ENGRAVE
 62
256
370
-1
 48
1.0
  6
BYLAYER
100
AcDbLine
 10
305.6918953960817475
 20
105.198275806841238
 30
0.0
 11
305.7412552687840162
 21
105.867673488500742
 31
0.0
  0
LINE
  5
143
100
AcDbEntity
  8
ENGRAVE
 62
256
370
-1
 48
1.0
  6
BYLAYER
100
AcDbLine
 10
305.7412552687840162
 20
105.867673488500742
 30
0.0
 11
306.3045277098794941
 21
105.8261390512731737
 31
0.0
  0
SPLINE
  5
144
100
AcDbEntity
  8
ENGRAVE
 62
256
370
-1
 48
1.0
  6
BYLAYER
100
AcDbSpline
 70
8
 71
2
 72
6
 73
3
 74
0
 40
0.0
 40
0.0
 40
0.0
 40
1.0
 40
1.0
 40
1.0
 10
306.3045277098794941
 20
105.8261390512731737
 30
0.0
 10
305.9913678356361402
 20
106.0872542973459645
 30
0.0
 10
305.8500712516287194
 20
106.3972609759494503
 30
0.0
  0
SPLINE
  5
145
100
AcDbEntity
  8
ENGRAVE
 62
256
370
-1
 48
1.0
  6
BYLAYER
100
AcDbSpline
 70
8
 71
2
 72
6
 73
3
 74
0
 40
0.0
 40
0.0
 40
0.0
 40
1.0
 40
1.0
 40
1.0
 10
305.8500712516287194
 20
106.3972609759494503
 30
0.0
 10
305.7046937809556084
 20
106.7075590072809916
 30
0.0
 10
305.7359955228544095
 20
107.1320599695370959
 30
0.0
  0
SPLINE
  5
146
100
AcDbEntity
  8
ENGRAVE
 62
256
370
-1
 48
1.0
  6
BYLAYER
100
AcDbSpline
 70
8
 71
2
 72
6
 73
3
 74
0
 40
0.0
 40
0.0
 40
0.0
 40
1.0
 40
1.0
 40
1.0
 10
305.7359955228544095
 20
107.1320599695370959
 30
0.0
 10
305.7769277067972666
 20
107.687164906737749
 30
0.0
 10
306.0939466928038541
 20
108.0905929436054009
 30
0.0
  0
SPLINE
  5
147
100
AcDbEntity
  8
ENGRAVE
 62
256
370
-1
 48
1.0
  6
BYLAYER
100
AcDbSpline
 70
8
 71
2
 72
6
 73
3
 74
0
 40
0.0
 40
0.0
 40
0.0
 40
1.0
 40
1.0
 40
1.0
 10
306.0939466928038541
 20
108.0905929436054009
 30
0.0
 10
306.4109656788104417
 20
108.4940209804730671
 30
0.0
 10
306.9493737346044213
 20
108.6718268981926059
 30
0.0
  0
SPLINE
  5
148
100
AcDbEntity
  8
ENGRAVE
 62
256
370
-1
 48
1.0
  6
BYLAYER
100
AcDbSpline
 70
8
 71
2
 72
6
 73
3
 74
0
 40
0.0
 40
0.0
 40
0.0
 40
1.0
 40
1.0
 40
1.0
 10
306.9493737346044213
 20
108.6718268981926059
 30
0.0
 10
307.4837004161813638
 20
108.8499337672260481
 30
0.0
 10
308.1041168517758706
 20
108.8041856609472546
 30
0.0
  0
SPLINE
  5
149
100
AcDbEntity
  8
ENGRAVE
 62
256
370
-1
 48
1.0
  6
BYLAYER
100
AcDbSpline
 70
8
 71
2
 72
6
 73
3
 74
0
 40
0.0
 40
0.0
 40
0.0
 40
1.0
 40
1.0
 40
1.0
 10
308.1041168517758706
 20
108.8041856609472546
 30
0.0
 10
308.7694319703531391
 20
108.7551268272230942
 30
0.0
 10
309.2863747963883156
 20
108.4748779350087773
 30
0.0
  0
SPLINE
  5
14A
100
AcDbEntity
  8
ENGRAVE
 62
256
370
-1
 48
1.0
  6
BYLAYER
100
AcDbSpline
 70
8
 71
2
 72
6
 73
3
 74
0
 40
0.0
 40
0.0
 40
0.0
 40
1.0
 40
1.0
 40
1.0
 10
309.2863747963883156
 20
108.4748779350087773
 30
0.0
 10
309.7995383007213377
 20
108.1990100917959126
 30
0.0
 10
310.0515468937332457
 20
107.7207947213368016
 30
0.0
  0
SPLINE
  5
14B
100
AcDbEntity
  8
ENGRAVE
 62
256
370
-1
 48
1.0
  6
BYLAYER
100
AcDbSpline
 70
8
 71
2
 72
6
 73
3
 74
0
 40
0.0
 40
0.0
 40
0.0
 40
1.0
 40
1.0
 40
1.0
 10
310.0515468937332457
 20
107.7207947213368016
 30
0.0
 10
310.2997749761777868
 20
107.2469604875433902
 30
0.0
 10
310.2627550716510996
 20
106.7449122262987515
 30
0.0
  0
SPLINE
  5
14C
100
AcDbEntity
  8
ENGRAVE
 62
256
370
-1
 48
1.0
  6
BYLAYER
100
AcDbSpline
 70
8
 71
2
 72
6
 73
3
 74
0
 40
0.0
 40
0.0
 40
0.0
 40
1.0
 40
1.0
 40
1.0
 10
310.2627550716510996
 20
106.7449122262987515
 30
0.0
 10
310.235667524788937
 20
106.3775623917328659
 30
0.0
 10
310.0588931680064206
 20
106.0951166973733706
 30
0.0
  0
SPLINE
  5
14D
100
AcDbEntity
  8
ENGRAVE
 62
256
370
-1
 48
1.0
  6
BYLAYER
100
AcDbSpline
 70
8
 71
2
 72
6
 73
3
 74
0
 40
0.0
 40
0.0
 40
0.0
 40
1.0
 40
1.0
 40
1.0
 10
310.0588931680064206
 20
106.0951166973733706
 30
0.0
 10
309.8824200255305072
 20
105.8167559438264789
 30
0.0
 10
309.6318375002279026
 20
105.6464525768993781
 30
0.0
  0
LINE
  5
14E
100
AcDbEntity
  8
ENGRAVE
 62
256
370
-1
 48
1.0
  6
BYLAYER
100
AcDbLine
 10
309.6318375002279026
 20
105.6464525768993497
 30
0.0
 11
311.7420696560926103
 21
105.4908488252887082
 31
0.0
  0
LINE
  5
14F
100
AcDbEntity
  8
ENGRAVE
 62
256
370
-1
 48
1.0
  6
BYLAYER
100
AcDbLine
 10
311.7420696560926103
 20
105.4908488252887082
 30
0.0
 11
311.6878942117114093
 21
104.7561444006961295
 31
0.0
  0
SPLINE
  5
150
100
AcDbEntity
  8
ENGRAVE
 62
256
370
-1
 48
1.0
  6
BYLAYER
100
AcDbSpline
 70
8
 71
2
 72
6
 73
3
 74
0
 40
0.0
 40
0.0
 40
0.0
 40
1.0
 40
1.0
 40
1.0
 10
307.9328199896654041
 20
105.7019700869395251
 30
0.0
 10
308.7695670917398161
 20
105.6402702460617036
 30
0.0
 10
309.1945522866381566
 20
105.9495538518773969
 30
0.0
  0
SPLINE
  5
151
100
AcDbEntity
  8
ENGRAVE
 62
256
370
-1
 48
1.0
  6
BYLAYER
100
AcDbSpline
 70
8
 71
2
 72
6
 73
3
 74
0
 40
0.0
 40
0.0
 40
0.0
 40
1.0
 40
1.0
 40
1.0
 10
309.1945522866381566
 20
105.9495538518773969
 30
0.0
 10
309.6195386704017665
 20
106.2588373700288713
 30
0.0
 10
309.6550539060233405
 20
106.7404799490535936
 30
0.0
  0
SPLINE
  5
152
100
AcDbEntity
  8
ENGRAVE
 62
256
370
-1
 48
1.0
  6
BYLAYER
100
AcDbSpline
 70
8
 71
2
 72
6
 73
3
 74
0
 40
0.0
 40
0.0
 40
0.0
 40
1.0
 40
1.0
 40
1.0
 10
309.6550539060233405
 20
106.7404799490535936
 30
0.0
 10
309.6911708689441411
 20
107.2302828987819794
 30
0.0
 10
309.3045036898303124
 20
107.6076206576389609
 30
0.0
  0
SPLINE
  5
153
100
AcDbEntity
  8
ENGRAVE
 62
256
370
-1
 48
1.0
  6
BYLAYER
100
AcDbSpline
 70
8
 71
2
 72
6
 73
3
 74
0
 40
0.0
 40
0.0
 40
0.0
 40
1.0
 40
1.0
 40
1.0
 10
309.3045036898303124
 20
107.6076206576389609
 30
0.0
 10
308.9140555125977698
 20
107.9893491517474047
 30
0.0
 10
308.0446562279220757
 20
108.0534566908004876
 30
0.0
  0
SPLINE
  5
154
100
AcDbEntity
  8
ENGRAVE
 62
256
370
-1
 48
1.0
  6
BYLAYER
100
AcDbSpline
 70
8
 71
2
 72
6
 73
3
 74
0
 40
0.0
 40
0.0
 40
0.0
 40
1.0
 40
1.0
 40
1.0
 10
308.0446562279220757
 20
108.0534566908004876
 30
0.0
 10
307.2160730631469505
 20
108.1145545413863118
 30
0.0
 10
306.7785401535605274
 20
107.8020890240281204
 30
0.0
  0
SPLINE
  5
155
100
AcDbEntity
  8
ENGRAVE
 62
256
370
-1
 48
1.0
  6
BYLAYER
100
AcDbSpline
 70
8
 71
2
 72
6
 73
3
 74
0
 40
0.0
 40
0.0
 40
0.0
 40
1.0
 40
1.0
 40
1.0
 10
306.7785401535605274
 20
107.8020890240281204
 30
0.0
 10
306.3413092964889302
 20
107.4937036043575063
 30
0.0
 10
306.3063964894805622
 20
107.0202309069580053
 30
0.0
  0
SPLINE
  5
156
100
AcDbEntity
  8
ENGRAVE
 62
256
370
-1
 48
1.0
  6
BYLAYER
100
AcDbSpline
 70
8
 71
2
 72
6
 73
3
 74
0
 40
0.0
 40
0.0
 40
0.0
 40
1.0
 40
1.0
 40
1.0
 10
306.3063964894805622
 20
107.0202309069580053
 30
0.0
 10
306.2717845461218644
 20
106.5508383949102722
 30
0.0
 10
306.685819566572718
 20
106.1550635491988572
 30
0.0
  0
SPLINE
  5
157
100
AcDbEntity
  8
ENGRAVE
 62
256
370
-1
 48
1.0
  6
BYLAYER
100
AcDbSpline
 70
8
 71
2
 72
6
 73
3
 74
0
 40
0.0
 40
0.0
 40
0.0
 40
1.0
 40
1.0
 40
1.0
 10
306.685819566572718
 20
106.1550635491988572
 30
0.0
 10
307.0960752653214172
 20
105.7636697524888802
 30
0.0
 10
307.9328199896654041
 20
105.7019700869395251
 30
0.0
  0
LWPOLYLINE
  5
158
100
AcDbEntity
  8
ENGRAVE
 62
256
370
-1
 48
1.0
  6
BYLAYER
100
AcDbPolyline
 90
4
 70
1
 10
304.3844991320163444
 20
109.9525871024598587
 10
310.3682538249949516
 20
109.5113585502563893
 10
310.4224292693762095
 20
110.2460629748489538
 10
304.4386745763976023
 20
110.6872915270524373
  0
LINE
  5
159
100
AcDbEntity
  8
ENGRAVE
 62
256
370
-1
 48
1.0
  6
BYLAYER
100
AcDbLine
 10
310.7158793301151718
 20
114.2257083747964685
 30
0.0
 11
310.0791362087874177
 21
114.2726603739949951
 31
0.0
  0
SPLINE
  5
15A
100
AcDbEntity
  8
ENGRAVE
 62
256
370
-1
 48
1.0
  6
BYLAYER
100
AcDbSpline
 70
8
 71
2
 72
6
 73
3
 74
0
 40
0.0
 40
0.0
 40
0.0
 40
1.0
 40
1.0
 40
1.0
 10
310.0791362087874177
 20
114.2726603739949951
 30
0.0
 10
310.7765186763384122
 20
113.7123565706815498
 30
0.0
 10
310.7124112249496193
 20
112.8429584748710113
 30
0.0
  0
SPLINE
  5
15B
100
AcDbEntity
  8
ENGRAVE
 62
256
370
-1
 48
1.0
  6
BYLAYER
100
AcDbSpline
 70
8
 71
2
 72
6
 73
3
 74
0
 40
0.0
 40
0.0
 40
0.0
 40
1.0
 40
1.0
 40
1.0
 10
310.7124112249496193
 20
112.8429584748710113
 30
0.0
 10
310.6841195221749672
 20
112.4592783879762692
 30
0.0
 10
310.5124994142244645
 20
112.1354145834242217
 30
0.0
  0
SPLINE
  5
15C
100
AcDbEntity
  8
ENGRAVE
 62
256
370
-1
 48
1.0
  6
BYLAYER
100
AcDbSpline
 70
8
 71
2
 72
6
 73
3
 74
0
 40
0.0
 40
0.0
 40
0.0
 40
1.0
 40
1.0
 40
1.0
 10
310.5124994142244645
 20
112.1354145834242217
 30
0.0
 10
310.3411789810584196
 20
111.8156310518882322
 30
0.0
 10
310.1087293753577114
 20
111.6686191705346403
 30
0.0
  0
SPLINE
  5
15D
100
AcDbEntity
  8
ENGRAVE
 62
256
370
-1
 48
1.0
  6
BYLAYER
100
AcDbSpline
 70
8
 71
2
 72
6
 73
3
 74
0
 40
0.0
 40
0.0
 40
0.0
 40
1.0
 40
1.0
 40
1.0
 10
310.1087293753577114
 20
111.6686191705346403
 30
0.0
 10
309.8724992590896932
 20
111.525988425846748
 30
0.0
 10
309.5452298074402506
 20
111.4844539221981563
 30
0.0
  0
SPLINE
  5
15E
100
AcDbEntity
  8
ENGRAVE
 62
256
370
-1
 48
1.0
  6
BYLAYER
100
AcDbSpline
 70
8
 71
2
 72
6
 73
3
 74
0
 40
0.0
 40
0.0
 40
0.0
 40
1.0
 40
1.0
 40
1.0
 10
309.5452298074402506
 20
111.4844539221981563
 30
0.0
 10
309.3255897777087284
 20
111.4555092638805718
 30
0.0
 10
308.8561948879305987
 20
111.4901213825677928
 30
0.0
  0
LINE
  5
15F
100
AcDbEntity
  8
ENGRAVE
 62
256
370
-1
 48
1.0
  6
BYLAYER
100
AcDbLine
 10
308.8561948879305987
 20
111.4901213825677928
 30
0.0
 11
306.1704449794541461
 21
111.6881625130118891
 31
0.0
  0
LINE
  5
160
100
AcDbEntity
  8
ENGRAVE
 62
256
370
-1
 48
1.0
  6
BYLAYER
100
AcDbLine
 10
306.1704449794541461
 20
111.6881625130118891
 30
0.0
 11
306.2246204238354039
 21
112.4228669376044536
 31
0.0
  0
LINE
  5
161
100
AcDbEntity
  8
ENGRAVE
 62
256
370
-1
 48
1.0
  6
BYLAYER
100
AcDbLine
 10
306.2246204238354039
 20
112.4228669376044536
 30
0.0
 11
308.6287341117640608
 21
112.2455930257741272
 31
0.0
  0
SPLINE
  5
162
100
AcDbEntity
  8
ENGRAVE
 62
256
370
-1
 48
1.0
  6
BYLAYER
100
AcDbSpline
 70
8
 71
2
 72
6
 73
3
 74
0
 40
0.0
 40
0.0
 40
0.0
 40
1.0
 40
1.0
 40
1.0
 10
308.6287341117640608
 20
112.2455930257741556
 30
0.0
 10
309.2042518643758058
 20
112.2031556469407008
 30
0.0
 10
309.4075655590310703
 20
112.23330895363884
 30
0.0
  0
SPLINE
  5
163
100
AcDbEntity
  8
ENGRAVE
 62
256
370
-1
 48
1.0
  6
BYLAYER
100
AcDbSpline
 70
8
 71
2
 72
6
 73
3
 74
0
 40
0.0
 40
0.0
 40
0.0
 40
1.0
 40
1.0
 40
1.0
 10
309.4075655590310703
 20
112.23330895363884
 30
0.0
 10
309.7024821522066418
 20
112.2813266730179294
 30
0.0
 10
309.886385034519833
 20
112.4934777420258882
 30
0.0
  0
SPLINE
  5
164
100
AcDbEntity
  8
ENGRAVE
 62
256
370
-1
 48
1.0
  6
BYLAYER
100
AcDbSpline
 70
8
 71
2
 72
6
 73
3
 74
0
 40
0.0
 40
0.0
 40
0.0
 40
1.0
 40
1.0
 40
1.0
 10
309.886385034519833
 20
112.4934777420258882
 30
0.0
 10
310.0662057044077642
 20
112.7059346054727342
 30
0.0
 10
310.0905844264523239
 20
113.0365485054898755
 30
0.0
  0
SPLINE
  5
165
100
AcDbEntity
  8
ENGRAVE
 62
256
370
-1
 48
1.0
  6
BYLAYER
100
AcDbSpline
 70
8
 71
2
 72
6
 73
3
 74
0
 40
0.0
 40
0.0
 40
0.0
 40
1.0
 40
1.0
 40
1.0
 10
310.0905844264523239
 20
113.0365485054898755
 30
0.0
 10
310.1149631484968836
 20
113.3671624055070168
 30
0.0
 10
309.9689843011814219
 20
113.6693048215957162
 30
0.0
  0
SPLINE
  5
166
100
AcDbEntity
  8
ENGRAVE
 62
256
370
-1
 48
1.0
  6
BYLAYER
100
AcDbSpline
 70
8
 71
2
 72
6
 73
3
 74
0
 40
0.0
 40
0.0
 40
0.0
 40
1.0
 40
1.0
 40
1.0
 10
309.9689843011814219
 20
113.6693048215957162
 30
0.0
 10
309.8189228907837105
 20
113.9717482766625096
 30
0.0
 10
309.5378509346888904
 20
114.1114856599182019
 30
0.0
  0
SPLINE
  5
167
100
AcDbEntity
  8
ENGRAVE
 62
256
370
-1
 48
1.0
  6
BYLAYER
100
AcDbSpline
 70
8
 71
2
 72
6
 73
3
 74
0
 40
0.0
 40
0.0
 40
0.0
 40
1.0
 40
1.0
 40
1.0
 10
309.5378509346888904
 20
114.1114856599182019
 30
0.0
 10
309.2529984680266466
 20
114.255604179839537
 30
0.0
 10
308.6978887753651861
 20
114.2965367144393554
 30
0.0
  0
LINE
  5
168
100
AcDbEntity
  8
ENGRAVE
 62
256
370
-1
 48
1.0
  6
BYLAYER
100
AcDbLine
 10
308.6978887753651861
 20
114.2965367144393554
 30
0.0
 11
306.375408516102766
 21
114.4677911616709451
 31
0.0
  0
LINE
  5
169
100
AcDbEntity
  8
ENGRAVE
 62
256
370
-1
 48
1.0
  6
BYLAYER
100
AcDbLine
 10
306.375408516102766
 20
114.4677911616709451
 30
0.0
 11
306.4295839604840239
 21
115.2024955862634954
 31
0.0
  0
LINE
  5
16A
100
AcDbEntity
  8
ENGRAVE
 62
256
370
-1
 48
1.0
  6
BYLAYER
100
AcDbLine
 10
306.4295839604840239
 20
115.2024955862634954
 30
0.0
 11
310.764336261211497
 21
114.8828607449397197
 31
0.0
  0
LINE
  5
16B
100
AcDbEntity
  8
ENGRAVE
 62
256
370
-1
 48
1.0
  6
BYLAYER
100
AcDbLine
 10
310.764336261211497
 20
114.8828607449397197
 30
0.0
 11
310.7158793301151718
 21
114.2257083747964685
 31
0.0
  0
LINE
  5
16C
100
AcDbEntity
  8
ENGRAVE
 62
256
370
-1
 48
1.0
  6
BYLAYER
100
AcDbLine
 10
309.5336452795235118
 20
115.8354224595289139
 30
0.0
 11
309.4729318458156513
 21
116.5703890083952672
 31
0.0
  0
SPLINE
  5
16D
100
AcDbEntity
  8
ENGRAVE
 62
256
370
-1
 48
1.0
  6
BYLAYER
100
AcDbSpline
 70
8
 71
2
 72
6
 73
3
 74
0
 40
0.0
 40
0.0
 40
0.0
 40
1.0
 40
1.0
 40
1.0
 10
309.4729318458155944
 20
116.5703890083952956
 30
0.0
 10
309.914186883291336
 20
116.5994113207930383
 30
0.0
 10
310.167309138610733
 20
116.8598082495388439
 30
0.0
  0
SPLINE
  5
16E
100
AcDbEntity
  8
ENGRAVE
 62
256
370
-1
 48
1.0
  6
BYLAYER
100
AcDbSpline
 70
8
 71
2
 72
6
 73
3
 74
0
 40
0.0
 40
0.0
 40
0.0
 40
1.0
 40
1.0
 40
1.0
 10
310.167309138610733
 20
116.8598082495388439
 30
0.0
 10
310.4207326082366762
 20
117.1242901190972248
 30
0.0
 10
310.4577525127633066
 20
117.6263383803418492
 30
0.0
  0
SPLINE
  5
16F
100
AcDbEntity
  8
ENGRAVE
 62
256
370
-1
 48
1.0
  6
BYLAYER
100
AcDbSpline
 70
8
 71
2
 72
6
 73
3
 74
0
 40
0.0
 40
0.0
 40
0.0
 40
1.0
 40
1.0
 40
1.0
 10
310.4577525127633066
 20
117.6263383803418492
 30
0.0
 10
310.4950732809396641
 20
118.1324668269382983
 30
0.0
 10
310.3090475963016388
 20
118.3924170071314279
 30
0.0
  0
SPLINE
  5
170
100
AcDbEntity
  8
ENGRAVE
 62
256
370
-1
 48
1.0
  6
BYLAYER
100
AcDbSpline
 70
8
 71
2
 72
6
 73
3
 74
0
 40
0.0
 40
0.0
 40
0.0
 40
1.0
 40
1.0
 40
1.0
 10
310.3090475963016388
 20
118.3924170071314279
 30
0.0
 10
310.1189405374466332
 20
118.6526681386384325
 30
0.0
 10
309.8413856911158746
 20
118.6731344059383275
 30
0.0
  0
SPLINE
  5
171
100
AcDbEntity
  8
ENGRAVE
 62
256
370
-1
 48
1.0
  6
BYLAYER
100
AcDbSpline
 70
8
 71
2
 72
6
 73
3
 74
0
 40
0.0
 40
0.0
 40
0.0
 40
1.0
 40
1.0
 40
1.0
 10
309.8413856911158746
 20
118.6731344059383275
 30
0.0
 10
309.5924028420346872
 20
118.6914938387126313
 30
0.0
 10
309.4335911211881012
 20
118.4856973448608244
 30
0.0
  0
SPLINE
  5
172
100
AcDbEntity
  8
ENGRAVE
 62
256
370
-1
 48
1.0
  6
BYLAYER
100
AcDbSpline
 70
8
 71
2
 72
6
 73
3
 74
0
 40
0.0
 40
0.0
 40
0.0
 40
1.0
 40
1.0
 40
1.0
 10
309.4335911211881012
 20
118.4856973448608244
 30
0.0
 10
309.3244951945253547
 20
118.341901534293271
 30
0.0
 10
309.129229022470156
 20
117.753026856174472
 30
0.0
  0
SPLINE
  5
173
100
AcDbEntity
  8
ENGRAVE
 62
256
370
-1
 48
1.0
  6
BYLAYER
100
AcDbSpline
 70
8
 71
2
 72
6
 73
3
 74
0
 40
0.0
 40
0.0
 40
0.0
 40
1.0
 40
1.0
 40
1.0
 10
309.129229022470156
 20
117.753026856174472
 30
0.0
 10
308.8655521130121997
 20
116.9599040232741345
 30
0.0
 10
308.6954366739668103
 20
116.656445900941975
 30
0.0
  0
SPLINE
  5
174
100
AcDbEntity
  8
ENGRAVE
 62
256
370
-1
 48
1.0
  6
BYLAYER
100
AcDbSpline
 70
8
 71
2
 72
6
 73
3
 74
0
 40
0.0
 40
0.0
 40
0.0
 40
1.0
 40
1.0
 40
1.0
 10
308.6954366739668103
 20
116.656445900941975
 30
0.0
 10
308.5215398861458311
 20
116.3573737584005414
 30
0.0
 10
308.2482729716793983
 20
116.2133716531784273
 30
0.0
  0
SPLINE
  5
175
100
AcDbEntity
  8
ENGRAVE
 62
256
370
-1
 48
1.0
  6
BYLAYER
100
AcDbSpline
 70
8
 71
2
 72
6
 73
3
 74
0
 40
0.0
 40
0.0
 40
0.0
 40
1.0
 40
1.0
 40
1.0
 10
308.2482729716793983
 20
116.2133716531784273
 30
0.0
 10
307.9712251959886657
 20
116.0737459291612339
 30
0.0
 10
307.6528530408921824
 20
116.0972219725926067
 30
0.0
  0
SPLINE
  5
176
100
AcDbEntity
  8
ENGRAVE
 62
256
370
-1
 48
1.0
  6
BYLAYER
100
AcDbSpline
 70
8
 71
2
 72
6
 73
3
 74
0
 40
0.0
 40
0.0
 40
0.0
 40
1.0
 40
1.0
 40
1.0
 10
307.6528530408921824
 20
116.0972219725926067
 30
0.0
 10
307.3630528830452135
 20
116.118591181498374
 30
0.0
 10
307.1277829021959178
 20
116.2672679042857027
 30
0.0
  0
SPLINE
  5
177
100
AcDbEntity
  8
ENGRAVE
 62
256
370
-1
 48
1.0
  6
BYLAYER
100
AcDbSpline
 70
8
 71
2
 72
6
 73
3
 74
0
 40
0.0
 40
0.0
 40
0.0
 40
1.0
 40
1.0
 40
1.0
 10
307.1277829021959178
 20
116.2672679042857027
 30
0.0
 10
306.888733248987478
 20
116.4203209206137331
 30
0.0
 10
306.7423198789945218
 20
116.6609359154715264
 30
0.0
  0
SPLINE
  5
178
100
AcDbEntity
  8
ENGRAVE
 62
256
370
-1
 48
1.0
  6
BYLAYER
100
AcDbSpline
 70
8
 71
2
 72
6
 73
3
 74
0
 40
0.0
 40
0.0
 40
0.0
 40
1.0
 40
1.0
 40
1.0
 10
306.7423198789945218
 20
116.6609359154715264
 30
0.0
 10
306.6284285991706611
 20
116.84169571328232
 30
0.0
 10
306.5643828553060075
 20
117.1418989377883406
 30
0.0
  0
SPLINE
  5
179
100
AcDbEntity
  8
ENGRAVE
 62
256
370
-1
 48
1.0
  6
BYLAYER
100
AcDbSpline
 70
8
 71
2
 72
6
 73
3
 74
0
 40
0.0
 40
0.0
 40
0.0
 40
1.0
 40
1.0
 40
1.0
 10
306.5643828553060075
 20
117.1418989377883406
 30
0.0
 10
306.4965577897391427
 20
117.4464832112958277
 30
0.0
 10
306.5215385897398619
 20
117.7852622374773972
 30
0.0
  0
SPLINE
  5
17A
100
AcDbEntity
  8
ENGRAVE
 62
256
370
-1
 48
1.0
  6
BYLAYER
100
AcDbSpline
 70
8
 71
2
 72
6
 73
3
 74
0
 40
0.0
 40
0.0
 40
0.0
 40
1.0
 40
1.0
 40
1.0
 10
306.5215385897398619
 20
117.7852622374773972
 30
0.0
 10
306.5591605722228223
 20
118.2954756248864499
 30
0.0
 10
306.7343920959398815
 20
118.6683159200427156
 30
0.0
  0
SPLINE
  5
17B
100
AcDbEntity
  8
ENGRAVE
 62
256
370
-1
 48
1.0
  6
BYLAYER
100
AcDbSpline
 70
8
 71
2
 72
6
 73
3
 74
0
 40
0.0
 40
0.0
 40
0.0
 40
1.0
 40
1.0
 40
1.0
 10
306.7343920959398815
 20
118.6683159200427156
 30
0.0
 10
306.9099248339634869
 20
119.0452411560115706
 30
0.0
 10
307.1765340195580052
 20
119.21025560154213
 30
0.0
  0
SPLINE
  5
17C
100
AcDbEntity
  8
ENGRAVE
 62
256
370
-1
 48
1.0
  6
BYLAYER
100
AcDbSpline
 70
8
 71
2
 72
6
 73
3
 74
0
 40
0.0
 40
0.0
 40
0.0
 40
1.0
 40
1.0
 40
1.0
 10
307.1765340195580052
 20
119.21025560154213
 30
0.0
 10
307.4390609927272067
 20
119.3755758415115622
 30
0.0
 10
307.8645910717689276
 20
119.4139624175327015
 30
0.0
  0
LINE
  5
17D
100
AcDbEntity
  8
ENGRAVE
 62
256
370
-1
 48
1.0
  6
BYLAYER
100
AcDbLine
 10
307.8645910717689276
 20
119.4139624175327015
 30
0.0
 11
307.9095795470427674
 21
118.6883601322897306
 31
0.0
  0
SPLINE
  5
17E
100
AcDbEntity
  8
ENGRAVE
 62
256
370
-1
 48
1.0
  6
BYLAYER
100
AcDbSpline
 70
8
 71
2
 72
6
 73
3
 74
0
 40
0.0
 40
0.0
 40
0.0
 40
1.0
 40
1.0
 40
1.0
 10
307.9095795470428243
 20
118.6883601322897306
 30
0.0
 10
307.5712704793116927
 20
118.6640634903724134
 30
0.0
 10
307.366055055920242
 20
118.4411672862852924
 30
0.0
  0
SPLINE
  5
17F
100
AcDbEntity
  8
ENGRAVE
 62
256
370
-1
 48
1.0
  6
BYLAYER
100
AcDbSpline
 70
8
 71
2
 72
6
 73
3
 74
0
 40
0.0
 40
0.0
 40
0.0
 40
1.0
 40
1.0
 40
1.0
 10
307.366055055920242
 20
118.4411672862852924
 30
0.0
 10
307.16114203570055
 20
118.2223559353465419
 30
0.0
 10
307.1295397808090684
 20
117.7937795431994061
 30
0.0
  0
SPLINE
  5
180
100
AcDbEntity
  8
ENGRAVE
 62
256
370
-1
 48
1.0
  6
BYLAYER
100
AcDbSpline
 70
8
 71
2
 72
6
 73
3
 74
0
 40
0.0
 40
0.0
 40
0.0
 40
1.0
 40
1.0
 40
1.0
 10
307.1295397808090684
 20
117.7937795431994061
 30
0.0
 10
307.0922190126327109
 20
117.2876510966029429
 30
0.0
 10
307.2436166984485908
 20
117.0589804619475274
 30
0.0
  0
SPLINE
  5
181
100
AcDbEntity
  8
ENGRAVE
 62
256
370
-1
 48
1.0
  6
BYLAYER
100
AcDbSpline
 70
8
 71
2
 72
6
 73
3
 74
0
 40
0.0
 40
0.0
 40
0.0
 40
1.0
 40
1.0
 40
1.0
 10
307.2436166984485908
 20
117.0589804619475274
 30
0.0
 10
307.3950143842644138
 20
116.8303098272920835
 30
0.0
 10
307.6195077991783364
 20
116.8137561900653054
 30
0.0
  0
SPLINE
  5
182
100
AcDbEntity
  8
ENGRAVE
 62
256
370
-1
 48
1.0
  6
BYLAYER
100
AcDbSpline
 70
8
 71
2
 72
6
 73
3
 74
0
 40
0.0
 40
0.0
 40
0.0
 40
1.0
 40
1.0
 40
1.0
 10
307.6195077991783364
 20
116.8137561900653054
 30
0.0
 10
307.7623665965606961
 20
116.8032221051014687
 30
0.0
 10
307.8832748515842468
 20
116.8845922206288179
 30
0.0
  0
SPLINE
  5
183
100
AcDbEntity
  8
ENGRAVE
 62
256
370
-1
 48
1.0
  6
BYLAYER
100
AcDbSpline
 70
8
 71
2
 72
6
 73
3
 74
0
 40
0.0
 40
0.0
 40
0.0
 40
1.0
 40
1.0
 40
1.0
 10
307.8832748515842468
 20
116.8845922206288179
 30
0.0
 10
308.008265669690104
 20
116.9656612971780589
 30
0.0
 10
308.0999635755266581
 20
117.1517828273405684
 30
0.0
  0
SPLINE
  5
184
100
AcDbEntity
  8
ENGRAVE
 62
256
370
-1
 48
1.0
  6
BYLAYER
100
AcDbSpline
 70
8
 71
2
 72
6
 73
3
 74
0
 40
0.0
 40
0.0
 40
0.0
 40
1.0
 40
1.0
 40
1.0
 10
308.0999635755266581
 20
117.1517828273405684
 30
0.0
 10
308.1489061698800356
 20
117.258980942519571
 30
0.0
 10
308.3355759090320021
 20
117.7869252589102018
 30
0.0
  0
SPLINE
  5
185
100
AcDbEntity
  8
ENGRAVE
 62
256
370
-1
 48
1.0
  6
BYLAYER
100
AcDbSpline
 70
8
 71
2
 72
6
 73
3
 74
0
 40
0.0
 40
0.0
 40
0.0
 40
1.0
 40
1.0
 40
1.0
 10
308.3355759090320021
 20
117.7869252589102018
 30
0.0
 10
308.601227796502485
 20
118.5511810875731271
 30
0.0
 10
308.7584966842836707
 20
118.8473721822217186
 30
0.0
  0
SPLINE
  5
186
100
AcDbEntity
  8
ENGRAVE
 62
256
370
-1
 48
1.0
  6
BYLAYER
100
AcDbSpline
 70
8
 71
2
 72
6
 73
3
 74
0
 40
0.0
 40
0.0
 40
0.0
 40
1.0
 40
1.0
 40
1.0
 10
308.7584966842836707
 20
118.8473721822217186
 30
0.0
 10
308.9119854121543653
 20
119.1479491689967745
 30
0.0
 10
309.1779916815843876
 20
119.3048033314879035
 30
0.0
  0
SPLINE
  5
187
100
AcDbEntity
  8
ENGRAVE
 62
256
370
-1
 48
1.0
  6
BYLAYER
100
AcDbSpline
 70
8
 71
2
 72
6
 73
3
 74
0
 40
0.0
 40
0.0
 40
0.0
 40
1.0
 40
1.0
 40
1.0
 10
309.1779916815843876
 20
119.3048033314879035
 30
0.0
 10
309.4439979510144099
 20
119.4616574939790468
 30
0.0
 10
309.819514100609922
 20
119.4339677814964489
 30
0.0
  0
SPLINE
  5
188
100
AcDbEntity
  8
ENGRAVE
 62
256
370
-1
 48
1.0
  6
BYLAYER
100
AcDbSpline
 70
8
 71
2
 72
6
 73
3
 74
0
 40
0.0
 40
0.0
 40
0.0
 40
1.0
 40
1.0
 40
1.0
 10
309.819514100609922
 20
119.4339677814964489
 30
0.0
 10
310.1868651240409918
 20
119.4068801469700389
 30
0.0
 10
310.4974494818376911
 20
119.1664714467668063
 30
0.0
  0
SPLINE
  5
189
100
AcDbEntity
  8
ENGRAVE
 62
256
370
-1
 48
1.0
  6
BYLAYER
100
AcDbSpline
 70
8
 71
2
 72
6
 73
3
 74
0
 40
0.0
 40
0.0
 40
0.0
 40
1.0
 40
1.0
 40
1.0
 10
310.4974494818376911
 20
119.1664714467668063
 30
0.0
 10
310.8042509513365985
 20
118.9304440585577254
 30
0.0
 10
310.9540493115879372
 20
118.5131153796616559
 30
0.0
  0
SPLINE
  5
18A
100
AcDbEntity
  8
ENGRAVE
 62
256
370
-1
 48
1.0
  6
BYLAYER
100
AcDbSpline
 70
8
 71
2
 72
6
 73
3
 74
0
 40
0.0
 40
0.0
 40
0.0
 40
1.0
 40
1.0
 40
1.0
 10
310.9540493115879372
 20
118.5131153796616559
 30
0.0
 10
311.0997651087571398
 20
118.0960877397436803
 30
0.0
 10
311.0621431262742362
 20
117.5858743523346277
 30
0.0
  0
SPLINE
  5
18B
100
AcDbEntity
  8
ENGRAVE
 62
256
370
-1
 48
1.0
  6
BYLAYER
100
AcDbSpline
 70
8
 71
2
 72
6
 73
3
 74
0
 40
0.0
 40
0.0
 40
0.0
 40
1.0
 40
1.0
 40
1.0
 10
311.0621431262742362
 20
117.5858743523346277
 30
0.0
 10
310.9998415580971596
 20
116.7409668795566091
 30
0.0
 10
310.6160111602522989
 20
116.3219487321480301
 30
0.0
  0
SPLINE
  5
18C
100
AcDbEntity
  8
ENGRAVE
 62
256
370
-1
 48
1.0
  6
BYLAYER
100
AcDbSpline
 70
8
 71
2
 72
6
 73
3
 74
0
 40
0.0
 40
0.0
 40
0.0
 40
1.0
 40
1.0
 40
1.0
 10
310.6160111602522989
 20
116.3219487321480301
 30
0.0
 10
310.2324800865350198
 20
115.9070061022947442
 30
0.0
 10
309.5336452795235118
 20
115.8354224595289139
 30
0.0
  0
LWPOLYLINE
  5
18D
100
AcDbEntity
  8
ENGRAVE
 62
256
370
-1
 48
1.0
  6
BYLAYER
100
AcDbPolyline
 90
4
 70
1
 10
310.3360124017375483
 20
120.4834073577907532
 10
311.1727583149467478
 20
120.4217076045771506
 10
311.2344581558245409
 20
121.2584547066515199
 10
310.3977122426153414
 20
121.3201544598651225
  0
LINE
  5
18E
100
AcDbEntity
  8
ENGRAVE
 62
256
370
-1
 48
1.0
  6
BYLAYER
100
AcDbLine
 10
312.9899100587587668
 20
122.4135317030287524
 30
0.0
 11
306.9939112431291051
 21
122.8556631091738751
 31
0.0
  0
LINE
  5
18F
100
AcDbEntity
  8
ENGRAVE
 62
256
370
-1
 48
1.0
  6
BYLAYER
100
AcDbLine
 10
306.9939112431291051
 20
122.8556631091738751
 30
0.0
 11
307.0432711158313737
 21
123.5250607908333507
 31
0.0
  0
LINE
  5
190
100
AcDbEntity
  8
ENGRAVE
 62
256
370
-1
 48
1.0
  6
BYLAYER
100
AcDbLine
 10
307.0432711158313737
 20
123.5250607908333507
 30
0.0
 11
307.6065435569268516
 21
123.4835263536058108
 31
0.0
  0
SPLINE
  5
191
100
AcDbEntity
  8
ENGRAVE
 62
256
370
-1
 48
1.0
  6
BYLAYER
100
AcDbSpline
 70
8
 71
2
 72
6
 73
3
 74
0
 40
0.0
 40
0.0
 40
0.0
 40
1.0
 40
1.0
 40
1.0
 10
307.6065435569268516
 20
123.4835263536058108
 30
0.0
 10
307.2933836826834977
 20
123.7446415996785731
 30
0.0
 10
307.1520867480191441
 20
124.0546435228212658
 30
0.0
  0
SPLINE
  5
192
100
AcDbEntity
  8
ENGRAVE
 62
256
370
-1
 48
1.0
  6
BYLAYER
100
AcDbSpline
 70
8
 71
2
 72
6
 73
3
 74
0
 40
0.0
 40
0.0
 40
0.0
 40
1.0
 40
1.0
 40
1.0
 10
307.1520867480191441
 20
124.0546435228212658
 30
0.0
 10
307.0067096280029659
 20
124.3649463096136287
 30
0.0
 10
307.0380110192448342
 20
124.7894425164089398
 30
0.0
  0
SPLINE
  5
193
100
AcDbEntity
  8
ENGRAVE
 62
256
370
-1
 48
1.0
  6
BYLAYER
100
AcDbSpline
 70
8
 71
2
 72
6
 73
3
 74
0
 40
0.0
 40
0.0
 40
0.0
 40
1.0
 40
1.0
 40
1.0
 10
307.0380110192448342
 20
124.7894425164089398
 30
0.0
 10
307.0789435538446241
 20
125.3445522090703719
 30
0.0
 10
307.3959625398512117
 20
125.747980245938038
 30
0.0
  0
SPLINE
  5
194
100
AcDbEntity
  8
ENGRAVE
 62
256
370
-1
 48
1.0
  6
BYLAYER
100
AcDbSpline
 70
8
 71
2
 72
6
 73
3
 74
0
 40
0.0
 40
0.0
 40
0.0
 40
1.0
 40
1.0
 40
1.0
 10
307.3959625398512117
 20
125.747980245938038
 30
0.0
 10
307.7129815258577992
 20
126.1514082828056758
 30
0.0
 10
308.2513895816517788
 20
126.3292142005252288
 30
0.0
  0
SPLINE
  5
195
100
AcDbEntity
  8
ENGRAVE
 62
256
370
-1
 48
1.0
  6
BYLAYER
100
AcDbSpline
 70
8
 71
2
 72
6
 73
3
 74
0
 40
0.0
 40
0.0
 40
0.0
 40
1.0
 40
1.0
 40
1.0
 10
308.2513895816517788
 20
126.3292142005252288
 30
0.0
 10
308.7857162632287213
 20
126.5073210695586567
 30
0.0
 10
309.4061326988231713
 20
126.4615729632798775
 30
0.0
  0
SPLINE
  5
196
100
AcDbEntity
  8
ENGRAVE
 62
256
370
-1
 48
1.0
  6
BYLAYER
100
AcDbSpline
 70
8
 71
2
 72
6
 73
3
 74
0
 40
0.0
 40
0.0
 40
0.0
 40
1.0
 40
1.0
 40
1.0
 10
309.4061326988231713
 20
126.4615729632798775
 30
0.0
 10
310.0714478174004967
 20
126.4125141295557171
 30
0.0
 10
310.5883906434356732
 20
126.1322652373414144
 30
0.0
  0
SPLINE
  5
197
100
AcDbEntity
  8
ENGRAVE
 62
256
370
-1
 48
1.0
  6
BYLAYER
100
AcDbSpline
 70
8
 71
2
 72
6
 73
3
 74
0
 40
0.0
 40
0.0
 40
0.0
 40
1.0
 40
1.0
 40
1.0
 10
310.5883906434356732
 20
126.1322652373414144
 30
0.0
 10
311.101554147768752
 20
125.8563973941285496
 30
0.0
 10
311.3535627407806032
 20
125.3781820236694244
 30
0.0
  0
SPLINE
  5
198
100
AcDbEntity
  8
ENGRAVE
 62
256
370
-1
 48
1.0
  6
BYLAYER
100
AcDbSpline
 70
8
 71
2
 72
6
 73
3
 74
0
 40
0.0
 40
0.0
 40
0.0
 40
1.0
 40
1.0
 40
1.0
 10
311.3535627407806032
 20
125.3781820236694244
 30
0.0
 10
311.6017908232251443
 20
124.9043477898760273
 30
0.0
 10
311.5647709186984571
 20
124.4022995286313744
 30
0.0
  0
SPLINE
  5
199
100
AcDbEntity
  8
ENGRAVE
 62
256
370
-1
 48
1.0
  6
BYLAYER
100
AcDbSpline
 70
8
 71
2
 72
6
 73
3
 74
0
 40
0.0
 40
0.0
 40
0.0
 40
1.0
 40
1.0
 40
1.0
 10
311.5647709186984571
 20
124.4022995286313744
 30
0.0
 10
311.5376833718362946
 20
124.0349496940654888
 30
0.0
 10
311.3609090150537781
 20
123.7525039997059935
 30
0.0
  0
SPLINE
  5
19A
100
AcDbEntity
  8
ENGRAVE
 62
256
370
-1
 48
1.0
  6
BYLAYER
100
AcDbSpline
 70
8
 71
2
 72
6
 73
3
 74
0
 40
0.0
 40
0.0
 40
0.0
 40
1.0
 40
1.0
 40
1.0
 10
311.3609090150537781
 20
123.7525039997059935
 30
0.0
 10
311.1844358725778648
 20
123.474143246159116
 30
0.0
 10
310.9338533472752601
 20
123.3038398792319867
 30
0.0
  0
LINE
  5
19B
100
AcDbEntity
  8
ENGRAVE
 62
256
370
-1
 48
1.0
  6
BYLAYER
100
AcDbLine
 10
310.933853347275317
 20
123.3038398792319725
 30
0.0
 11
313.0440855031399678
 21
123.1482361276213169
 31
0.0
  0
LINE
  5
19C
100
AcDbEntity
  8
ENGRAVE
 62
256
370
-1
 48
1.0
  6
BYLAYER
100
AcDbLine
 10
313.0440855031399678
 20
123.1482361276213169
 30
0.0
 11
312.9899100587587668
 21
122.4135317030287524
 31
0.0
  0
SPLINE
  5
19D
100
AcDbEntity
  8
ENGRAVE
 62
256
370
-1
 48
1.0
  6
BYLAYER
100
AcDbSpline
 70
8
 71
2
 72
6
 73
3
 74
0
 40
0.0
 40
0.0
 40
0.0
 40
1.0
 40
1.0
 40
1.0
 10
309.2348358367127616
 20
123.3593573892721622
 30
0.0
 10
310.0715829387871736
 20
123.2976575483943122
 30
0.0
 10
310.496568133685571
 20
123.6069411542100056
 30
0.0
  0
SPLINE
  5
19E
100
AcDbEntity
  8
ENGRAVE
 62
256
370
-1
 48
1.0
  6
BYLAYER
100
AcDbSpline
 70
8
 71
2
 72
6
 73
3
 74
0
 40
0.0
 40
0.0
 40
0.0
 40
1.0
 40
1.0
 40
1.0
 10
310.496568133685571
 20
123.6069411542100056
 30
0.0
 10
310.9215545174491808
 20
123.91622467236148
 30
0.0
 10
310.9570694024137651
 20
124.3978624959254375
 30
0.0
  0
SPLINE
  5
19F
100
AcDbEntity
  8
ENGRAVE
 62
256
370
-1
 48
1.0
  6
BYLAYER
100
AcDbSpline
 70
8
 71
2
 72
6
 73
3
 74
0
 40
0.0
 40
0.0
 40
0.0
 40
1.0
 40
1.0
 40
1.0
 10
310.9570694024137651
 20
124.3978624959254375
 30
0.0
 10
310.9931863653345658
 20
124.8876654456538091
 30
0.0
 10
310.6065195368776699
 20
125.2650079599715696
 30
0.0
  0
SPLINE
  5
1A0
100
AcDbEntity
  8
ENGRAVE
 62
256
370
-1
 48
1.0
  6
BYLAYER
100
AcDbSpline
 70
8
 71
2
 72
6
 73
3
 74
0
 40
0.0
 40
0.0
 40
0.0
 40
1.0
 40
1.0
 40
1.0
 10
310.6065195368776699
 20
125.2650079599715696
 30
0.0
 10
310.2160710089882514
 20
125.6467316986192486
 30
0.0
 10
309.3466717243125004
 20
125.7108392376723316
 30
0.0
  0
SPLINE
  5
1A1
100
AcDbEntity
  8
ENGRAVE
 62
256
370
-1
 48
1.0
  6
BYLAYER
100
AcDbSpline
 70
8
 71
2
 72
6
 73
3
 74
0
 40
0.0
 40
0.0
 40
0.0
 40
1.0
 40
1.0
 40
1.0
 10
309.3466717243125004
 20
125.7108392376723316
 30
0.0
 10
308.5180885595373752
 20
125.77193708825817
 30
0.0
 10
308.0805560006078849
 20
125.4594763263607433
 30
0.0
  0
SPLINE
  5
1A2
100
AcDbEntity
  8
ENGRAVE
 62
256
370
-1
 48
1.0
  6
BYLAYER
100
AcDbSpline
 70
8
 71
2
 72
6
 73
3
 74
0
 40
0.0
 40
0.0
 40
0.0
 40
1.0
 40
1.0
 40
1.0
 10
308.0805560006078849
 20
125.4594763263607433
 30
0.0
 10
307.6433254941932773
 20
125.1510956621509081
 30
0.0
 10
307.6084123365279197
 20
124.677618209290614
 30
0.0
  0
SPLINE
  5
1A3
100
AcDbEntity
  8
ENGRAVE
 62
256
370
-1
 48
1.0
  6
BYLAYER
100
AcDbSpline
 70
8
 71
2
 72
6
 73
3
 74
0
 40
0.0
 40
0.0
 40
0.0
 40
1.0
 40
1.0
 40
1.0
 10
307.6084123365279197
 20
124.677618209290614
 30
0.0
 10
307.5738003931692219
 20
124.2082256972429093
 30
0.0
 10
307.9878350629631996
 20
123.812446096070687
 30
0.0
  0
SPLINE
  5
1A4
100
AcDbEntity
  8
ENGRAVE
 62
256
370
-1
 48
1.0
  6
BYLAYER
100
AcDbSpline
 70
8
 71
2
 72
6
 73
3
 74
0
 40
0.0
 40
0.0
 40
0.0
 40
1.0
 40
1.0
 40
1.0
 10
307.9878350629631996
 20
123.812446096070687
 30
0.0
 10
308.3980911123688315
 20
123.4210570548215173
 30
0.0
 10
309.2348358367127616
 20
123.3593573892721622
 30
0.0
  0
LWPOLYLINE
  5
1A5
100
AcDbEntity
  8
ENGRAVE
 62
256
370
-1
 48
1.0
  6
BYLAYER
100
AcDbPolyline
 90
4
 70
1
 10
305.686514628406826
 20
127.6099696493317026
 10
311.6702693213853763
 20
127.1687410971282191
 10
311.7244444151097014
 20
127.9034407662600188
 10
305.7406897221310942
 20
128.3446693184634739
  0
LINE
  5
1A6
100
AcDbEntity
  8
ENGRAVE
 62
256
370
-1
 48
1.0
  6
BYLAYER
100
AcDbLine
 10
312.0178948265055965
 20
131.8830909216682983
 30
0.0
 11
311.3811517051778424
 21
131.9300429208668106
 31
0.0
  0
SPLINE
  5
1A7
100
AcDbEntity
  8
ENGRAVE
 62
256
370
-1
 48
1.0
  6
BYLAYER
100
AcDbSpline
 70
8
 71
2
 72
6
 73
3
 74
0
 40
0.0
 40
0.0
 40
0.0
 40
1.0
 40
1.0
 40
1.0
 10
311.3811517051778424
 20
131.930042920866839
 30
0.0
 10
312.0785341727288369
 20
131.3697391175533653
 30
0.0
 10
312.0144263706831111
 20
130.5003362662820621
 30
0.0
  0
SPLINE
  5
1A8
100
AcDbEntity
  8
ENGRAVE
 62
256
370
-1
 48
1.0
  6
BYLAYER
100
AcDbSpline
 70
8
 71
2
 72
6
 73
3
 74
0
 40
0.0
 40
0.0
 40
0.0
 40
1.0
 40
1.0
 40
1.0
 10
312.0144263706831111
 20
130.5003362662820621
 30
0.0
 10
311.9861350185653919
 20
130.1166609348481131
 30
0.0
 10
311.8145149106148892
 20
129.7927971302960373
 30
0.0
  0
SPLINE
  5
1A9
100
AcDbEntity
  8
ENGRAVE
 62
256
370
-1
 48
1.0
  6
BYLAYER
100
AcDbSpline
 70
8
 71
2
 72
6
 73
3
 74
0
 40
0.0
 40
0.0
 40
0.0
 40
1.0
 40
1.0
 40
1.0
 10
311.8145149106148892
 20
129.7927971302960373
 30
0.0
 10
311.6431944774488443
 20
129.4730135987600761
 30
0.0
 10
311.4107445210912601
 20
129.3259969619456911
 30
0.0
  0
SPLINE
  5
1AA
100
AcDbEntity
  8
ENGRAVE
 62
256
370
-1
 48
1.0
  6
BYLAYER
100
AcDbSpline
 70
8
 71
2
 72
6
 73
3
 74
0
 40
0.0
 40
0.0
 40
0.0
 40
1.0
 40
1.0
 40
1.0
 10
311.4107445210912601
 20
129.3259969619456911
 30
0.0
 10
311.174514404823185
 20
129.1833662172578272
 30
0.0
 10
310.8472453038307322
 20
129.1418364690700287
 30
0.0
  0
SPLINE
  5
1AB
100
AcDbEntity
  8
ENGRAVE
 62
256
370
-1
 48
1.0
  6
BYLAYER
100
AcDbSpline
 70
8
 71
2
 72
6
 73
3
 74
0
 40
0.0
 40
0.0
 40
0.0
 40
1.0
 40
1.0
 40
1.0
 10
310.8472453038307322
 20
129.1418364690700287
 30
0.0
 10
310.6276052740991531
 20
129.1128918107524157
 30
0.0
 10
310.1582103843210234
 20
129.1475039294396083
 30
0.0
  0
LINE
  5
1AC
100
AcDbEntity
  8
ENGRAVE
 62
256
370
-1
 48
1.0
  6
BYLAYER
100
AcDbLine
 10
310.1582103843210234
 20
129.1475039294396083
 30
0.0
 11
307.4724604758445707
 21
129.3455450598837047
 31
0.0
  0
LINE
  5
1AD
100
AcDbEntity
  8
ENGRAVE
 62
256
370
-1
 48
1.0
  6
BYLAYER
100
AcDbLine
 10
307.4724604758445707
 20
129.3455450598837047
 30
0.0
 11
307.5266355695688389
 21
130.0802447290155044
 31
0.0
  0
LINE
  5
1AE
100
AcDbEntity
  8
ENGRAVE
 62
256
370
-1
 48
1.0
  6
BYLAYER
100
AcDbLine
 10
307.5266355695688389
 20
130.0802447290155044
 30
0.0
 11
309.9307492574976095
 21
129.9029708171852064
 31
0.0
  0
SPLINE
  5
1AF
100
AcDbEntity
  8
ENGRAVE
 62
256
370
-1
 48
1.0
  6
BYLAYER
100
AcDbSpline
 70
8
 71
2
 72
6
 73
3
 74
0
 40
0.0
 40
0.0
 40
0.0
 40
1.0
 40
1.0
 40
1.0
 10
309.9307492574976095
 20
129.9029708171852064
 30
0.0
 10
310.5062670101092976
 20
129.86053343835178
 30
0.0
 10
310.7095807047645621
 20
129.8906867450498908
 30
0.0
  0
SPLINE
  5
1B0
100
AcDbEntity
  8
ENGRAVE
 62
256
370
-1
 48
1.0
  6
BYLAYER
100
AcDbSpline
 70
8
 71
2
 72
6
 73
3
 74
0
 40
0.0
 40
0.0
 40
0.0
 40
1.0
 40
1.0
 40
1.0
 10
310.7095807047645621
 20
129.8906867450498908
 30
0.0
 10
311.0044972979401336
 20
129.9387044644289801
 30
0.0
 10
311.1884005309102577
 20
130.150860288897718
 30
0.0
  0
SPLINE
  5
1B1
100
AcDbEntity
  8
ENGRAVE
 62
256
370
-1
 48
1.0
  6
BYLAYER
100
AcDbSpline
 70
8
 71
2
 72
6
 73
3
 74
0
 40
0.0
 40
0.0
 40
0.0
 40
1.0
 40
1.0
 40
1.0
 10
311.1884005309102577
 20
130.150860288897718
 30
0.0
 10
311.3682208501412561
 20
130.3633123968837708
 30
0.0
 10
311.3925999228427486
 20
130.6939310523617053
 30
0.0
  0
SPLINE
  5
1B2
100
AcDbEntity
  8
ENGRAVE
 62
256
370
-1
 48
1.0
  6
BYLAYER
100
AcDbSpline
 70
8
 71
2
 72
6
 73
3
 74
0
 40
0.0
 40
0.0
 40
0.0
 40
1.0
 40
1.0
 40
1.0
 10
311.3925999228427486
 20
130.6939310523617053
 30
0.0
 10
311.4169786448873083
 20
131.0245449523788466
 30
0.0
 10
311.2709997975718466
 20
131.3266873684675602
 30
0.0
  0
SPLINE
  5
1B3
100
AcDbEntity
  8
ENGRAVE
 62
256
370
-1
 48
1.0
  6
BYLAYER
100
AcDbSpline
 70
8
 71
2
 72
6
 73
3
 74
0
 40
0.0
 40
0.0
 40
0.0
 40
1.0
 40
1.0
 40
1.0
 10
311.2709997975718466
 20
131.3266873684675602
 30
0.0
 10
311.1209380365172592
 20
131.6291260680735888
 30
0.0
 10
310.8398660804223823
 20
131.7688634513292527
 30
0.0
  0
SPLINE
  5
1B4
100
AcDbEntity
  8
ENGRAVE
 62
256
370
-1
 48
1.0
  6
BYLAYER
100
AcDbSpline
 70
8
 71
2
 72
6
 73
3
 74
0
 40
0.0
 40
0.0
 40
0.0
 40
1.0
 40
1.0
 40
1.0
 10
310.8398660804223823
 20
131.7688634513292527
 30
0.0
 10
310.5550139644170713
 20
131.9129867267113809
 30
0.0
 10
309.9999042717556108
 20
131.9539192613111993
 30
0.0
  0
LINE
  5
1B5
100
AcDbEntity
  8
ENGRAVE
 62
256
370
-1
 48
1.0
  6
BYLAYER
100
AcDbLine
 10
309.9999042717556108
 20
131.9539192613111993
 30
0.0
 11
307.6774240124932476
 21
132.1251737085427749
 31
0.0
  0
LINE
  5
1B6
100
AcDbEntity
  8
ENGRAVE
 62
256
370
-1
 48
1.0
  6
BYLAYER
100
AcDbLine
 10
307.6774240124932476
 20
132.1251737085427749
 30
0.0
 11
307.7315994568744486
 21
132.8598781331353393
 31
0.0
  0
LINE
  5
1B7
100
AcDbEntity
  8
ENGRAVE
 62
256
370
-1
 48
1.0
  6
BYLAYER
100
AcDbLine
 10
307.7315994568744486
 20
132.8598781331353393
 30
0.0
 11
312.0663517576019785
 21
132.5402432918115778
 31
0.0
  0
LINE
  5
1B8
100
AcDbEntity
  8
ENGRAVE
 62
256
370
-1
 48
1.0
  6
BYLAYER
100
AcDbLine
 10
312.0663517576019785
 20
132.5402432918115778
 30
0.0
 11
312.0178948265055965
 21
131.8830909216682983
 31
0.0
  0
LINE
  5
1B9
100
AcDbEntity
  8
ENGRAVE
 62
256
370
-1
 48
1.0
  6
BYLAYER
100
AcDbLine
 10
310.8356607759139365
 20
133.4928050064007721
 30
0.0
 11
310.774947342206076
 21
134.2277715552671395
 31
0.0
  0
SPLINE
  5
1BA
100
AcDbEntity
  8
ENGRAVE
 62
256
370
-1
 48
1.0
  6
BYLAYER
100
AcDbSpline
 70
8
 71
2
 72
6
 73
3
 74
0
 40
0.0
 40
0.0
 40
0.0
 40
1.0
 40
1.0
 40
1.0
 10
310.7749473422060191
 20
134.2277715552671395
 30
0.0
 10
311.2162023796817607
 20
134.2567938676648964
 30
0.0
 10
311.4693246350011577
 20
134.5171907964106595
 30
0.0
  0
SPLINE
  5
1BB
100
AcDbEntity
  8
ENGRAVE
 62
256
370
-1
 48
1.0
  6
BYLAYER
100
AcDbSpline
 70
8
 71
2
 72
6
 73
3
 74
0
 40
0.0
 40
0.0
 40
0.0
 40
1.0
 40
1.0
 40
1.0
 10
311.4693246350011577
 20
134.5171907964106595
 30
0.0
 10
311.7227481046271009
 20
134.7816726659690403
 30
0.0
 10
311.7597680091537882
 20
135.2837209272136931
 30
0.0
  0
SPLINE
  5
1BC
100
AcDbEntity
  8
ENGRAVE
 62
256
370
-1
 48
1.0
  6
BYLAYER
100
AcDbSpline
 70
8
 71
2
 72
6
 73
3
 74
0
 40
0.0
 40
0.0
 40
0.0
 40
1.0
 40
1.0
 40
1.0
 10
311.7597680091537882
 20
135.2837209272136931
 30
0.0
 10
311.7970887773300888
 20
135.7898493738101422
 30
0.0
 10
311.6110630926920635
 20
136.0497995540032719
 30
0.0
  0
SPLINE
  5
1BD
100
AcDbEntity
  8
ENGRAVE
 62
256
370
-1
 48
1.0
  6
BYLAYER
100
AcDbSpline
 70
8
 71
2
 72
6
 73
3
 74
0
 40
0.0
 40
0.0
 40
0.0
 40
1.0
 40
1.0
 40
1.0
 10
311.6110630926920635
 20
136.0497995540032719
 30
0.0
 10
311.4209560338370579
 20
136.3100506855102481
 30
0.0
 10
311.1434011875063561
 20
136.3305169528101715
 30
0.0
  0
SPLINE
  5
1BE
100
AcDbEntity
  8
ENGRAVE
 62
256
370
-1
 48
1.0
  6
BYLAYER
100
AcDbSpline
 70
8
 71
2
 72
6
 73
3
 74
0
 40
0.0
 40
0.0
 40
0.0
 40
1.0
 40
1.0
 40
1.0
 10
311.1434011875063561
 20
136.3305169528101715
 30
0.0
 10
310.8944183384251119
 20
136.3488763855844468
 30
0.0
 10
310.7356069682354587
 20
136.1430846471934331
 30
0.0
  0
SPLINE
  5
1BF
100
AcDbEntity
  8
ENGRAVE
 62
256
370
-1
 48
1.0
  6
BYLAYER
100
AcDbSpline
 70
8
 71
2
 72
6
 73
3
 74
0
 40
0.0
 40
0.0
 40
0.0
 40
1.0
 40
1.0
 40
1.0
 10
310.7356069682354587
 20
136.1430846471934331
 30
0.0
 10
310.6265106909157794
 20
135.9992840811651149
 30
0.0
 10
310.4312445188605807
 20
135.4104094030463159
 30
0.0
  0
SPLINE
  5
1C0
100
AcDbEntity
  8
ENGRAVE
 62
256
370
-1
 48
1.0
  6
BYLAYER
100
AcDbSpline
 70
8
 71
2
 72
6
 73
3
 74
0
 40
0.0
 40
0.0
 40
0.0
 40
1.0
 40
1.0
 40
1.0
 10
310.4312445188605807
 20
135.4104094030463159
 30
0.0
 10
310.1675676094026244
 20
134.61728657014595
 30
0.0
 10
309.9974521703572918
 20
134.3138284478138189
 30
0.0
  0
SPLINE
  5
1C1
100
AcDbEntity
  8
ENGRAVE
 62
256
370
-1
 48
1.0
  6
BYLAYER
100
AcDbSpline
 70
8
 71
2
 72
6
 73
3
 74
0
 40
0.0
 40
0.0
 40
0.0
 40
1.0
 40
1.0
 40
1.0
 10
309.9974521703572918
 20
134.3138284478138189
 30
0.0
 10
309.8235553825362558
 20
134.0147563052723854
 30
0.0
 10
309.550288468069823
 20
133.8707542000502713
 30
0.0
  0
SPLINE
  5
1C2
100
AcDbEntity
  8
ENGRAVE
 62
256
370
-1
 48
1.0
  6
BYLAYER
100
AcDbSpline
 70
8
 71
2
 72
6
 73
3
 74
0
 40
0.0
 40
0.0
 40
0.0
 40
1.0
 40
1.0
 40
1.0
 10
309.550288468069823
 20
133.8707542000502713
 30
0.0
 10
309.2732406923790904
 20
133.7311284760330636
 30
0.0
 10
308.9548685372826071
 20
133.7546045194644648
 30
0.0
  0
SPLINE
  5
1C3
100
AcDbEntity
  8
ENGRAVE
 62
256
370
-1
 48
1.0
  6
BYLAYER
100
AcDbSpline
 70
8
 71
2
 72
6
 73
3
 74
0
 40
0.0
 40
0.0
 40
0.0
 40
1.0
 40
1.0
 40
1.0
 10
308.9548685372826071
 20
133.7546045194644648
 30
0.0
 10
308.6650683794356382
 20
133.7759737283702179
 30
0.0
 10
308.4297983985863425
 20
133.9246504511575608
 30
0.0
  0
SPLINE
  5
1C4
100
AcDbEntity
  8
ENGRAVE
 62
256
370
-1
 48
1.0
  6
BYLAYER
100
AcDbSpline
 70
8
 71
2
 72
6
 73
3
 74
0
 40
0.0
 40
0.0
 40
0.0
 40
1.0
 40
1.0
 40
1.0
 10
308.4297983985863425
 20
133.9246504511575608
 30
0.0
 10
308.1907487453779595
 20
134.0777034674855486
 30
0.0
 10
308.0443353753849465
 20
134.3183184623433704
 30
0.0
  0
SPLINE
  5
1C5
100
AcDbEntity
  8
ENGRAVE
 62
256
370
-1
 48
1.0
  6
BYLAYER
100
AcDbSpline
 70
8
 71
2
 72
6
 73
3
 74
0
 40
0.0
 40
0.0
 40
0.0
 40
1.0
 40
1.0
 40
1.0
 10
308.0443353753849465
 20
134.3183184623433704
 30
0.0
 10
307.9304440955610858
 20
134.4990782601541639
 30
0.0
 10
307.8663983516964322
 20
134.7992814846601846
 30
0.0
  0
SPLINE
  5
1C6
100
AcDbEntity
  8
ENGRAVE
 62
256
370
-1
 48
1.0
  6
BYLAYER
100
AcDbSpline
 70
8
 71
2
 72
6
 73
3
 74
0
 40
0.0
 40
0.0
 40
0.0
 40
1.0
 40
1.0
 40
1.0
 10
307.8663983516964322
 20
134.7992814846601846
 30
0.0
 10
307.7985732861295674
 20
135.1038657581676716
 30
0.0
 10
307.8235540861303434
 20
135.4426447843492554
 30
0.0
  0
SPLINE
  5
1C7
100
AcDbEntity
  8
ENGRAVE
 62
256
370
-1
 48
1.0
  6
BYLAYER
100
AcDbSpline
 70
8
 71
2
 72
6
 73
3
 74
0
 40
0.0
 40
0.0
 40
0.0
 40
1.0
 40
1.0
 40
1.0
 10
307.8235540861303434
 20
135.4426447843492554
 30
0.0
 10
307.861176068613247
 20
135.9528581717582938
 30
0.0
 10
308.0364075923303062
 20
136.3256984669145595
 30
0.0
  0
SPLINE
  5
1C8
100
AcDbEntity
  8
ENGRAVE
 62
256
370
-1
 48
1.0
  6
BYLAYER
100
AcDbSpline
 70
8
 71
2
 72
6
 73
3
 74
0
 40
0.0
 40
0.0
 40
0.0
 40
1.0
 40
1.0
 40
1.0
 10
308.0364075923303062
 20
136.3256984669145595
 30
0.0
 10
308.2119403303539116
 20
136.7026237028834146
 30
0.0
 10
308.4785495159484299
 20
136.8676381484139597
 30
0.0
  0
SPLINE
  5
1C9
100
AcDbEntity
  8
ENGRAVE
 62
256
370
-1
 48
1.0
  6
BYLAYER
100
AcDbSpline
 70
8
 71
2
 72
6
 73
3
 74
0
 40
0.0
 40
0.0
 40
0.0
 40
1.0
 40
1.0
 40
1.0
 10
308.4785495159484299
 20
136.8676381484139597
 30
0.0
 10
308.7410764891176314
 20
137.0329583883834061
 30
0.0
 10
309.1666065681593523
 20
137.0713449644045454
 30
0.0
  0
LINE
  5
1CA
100
AcDbEntity
  8
ENGRAVE
 62
256
370
-1
 48
1.0
  6
BYLAYER
100
AcDbLine
 10
309.1666065681593523
 20
137.0713449644045454
 30
0.0
 11
309.211595043433249
 21
136.3457426791615603
 31
0.0
  0
SPLINE
  5
1CB
100
AcDbEntity
  8
ENGRAVE
 62
256
370
-1
 48
1.0
  6
BYLAYER
100
AcDbSpline
 70
8
 71
2
 72
6
 73
3
 74
0
 40
0.0
 40
0.0
 40
0.0
 40
1.0
 40
1.0
 40
1.0
 10
309.211595043433249
 20
136.3457426791615603
 30
0.0
 10
308.8732859757021174
 20
136.3214460372442716
 30
0.0
 10
308.6680705523106667
 20
136.0985498331571364
 30
0.0
  0
SPLINE
  5
1CC
100
AcDbEntity
  8
ENGRAVE
 62
256
370
-1
 48
1.0
  6
BYLAYER
100
AcDbSpline
 70
8
 71
2
 72
6
 73
3
 74
0
 40
0.0
 40
0.0
 40
0.0
 40
1.0
 40
1.0
 40
1.0
 10
308.6680705523106667
 20
136.0985498331571364
 30
0.0
 10
308.4631575320909747
 20
135.8797384822183858
 30
0.0
 10
308.431555277199493
 20
135.4511620900712501
 30
0.0
  0
SPLINE
  5
1CD
100
AcDbEntity
  8
ENGRAVE
 62
256
370
-1
 48
1.0
  6
BYLAYER
100
AcDbSpline
 70
8
 71
2
 72
6
 73
3
 74
0
 40
0.0
 40
0.0
 40
0.0
 40
1.0
 40
1.0
 40
1.0
 10
308.431555277199493
 20
135.4511620900712501
 30
0.0
 10
308.3942345090231356
 20
134.945033643474801
 30
0.0
 10
308.5456321948390155
 20
134.7163630088193713
 30
0.0
  0
SPLINE
  5
1CE
100
AcDbEntity
  8
ENGRAVE
 62
256
370
-1
 48
1.0
  6
BYLAYER
100
AcDbSpline
 70
8
 71
2
 72
6
 73
3
 74
0
 40
0.0
 40
0.0
 40
0.0
 40
1.0
 40
1.0
 40
1.0
 10
308.5456321948390155
 20
134.7163630088193713
 30
0.0
 10
308.6970298806548385
 20
134.4876923741639416
 30
0.0
 10
308.9215232955687611
 20
134.4711387369371209
 30
0.0
  0
SPLINE
  5
1CF
100
AcDbEntity
  8
ENGRAVE
 62
256
370
-1
 48
1.0
  6
BYLAYER
100
AcDbSpline
 70
8
 71
2
 72
6
 73
3
 74
0
 40
0.0
 40
0.0
 40
0.0
 40
1.0
 40
1.0
 40
1.0
 10
308.9215232955687611
 20
134.4711387369371209
 30
0.0
 10
309.0643820929511207
 20
134.4606046519733127
 30
0.0
 10
309.1852903479747283
 20
134.5419747675006477
 30
0.0
  0
SPLINE
  5
1D0
100
AcDbEntity
  8
ENGRAVE
 62
256
370
-1
 48
1.0
  6
BYLAYER
100
AcDbSpline
 70
8
 71
2
 72
6
 73
3
 74
0
 40
0.0
 40
0.0
 40
0.0
 40
1.0
 40
1.0
 40
1.0
 10
309.1852903479747283
 20
134.5419747675006477
 30
0.0
 10
309.3102811660805287
 20
134.6230438440498745
 30
0.0
 10
309.4019790719170828
 20
134.8091653742123981
 30
0.0
  0
SPLINE
  5
1D1
100
AcDbEntity
  8
ENGRAVE
 62
256
370
-1
 48
1.0
  6
BYLAYER
100
AcDbSpline
 70
8
 71
2
 72
6
 73
3
 74
0
 40
0.0
 40
0.0
 40
0.0
 40
1.0
 40
1.0
 40
1.0
 10
309.4019790719170828
 20
134.8091653742123981
 30
0.0
 10
309.4509216662704603
 20
134.916363489391415
 30
0.0
 10
309.6375914054224268
 20
135.4443078057820458
 30
0.0
  0
SPLINE
  5
1D2
100
AcDbEntity
  8
ENGRAVE
 62
256
370
-1
 48
1.0
  6
BYLAYER
100
AcDbSpline
 70
8
 71
2
 72
6
 73
3
 74
0
 40
0.0
 40
0.0
 40
0.0
 40
1.0
 40
1.0
 40
1.0
 10
309.6375914054224268
 20
135.4443078057820458
 30
0.0
 10
309.9032432928929666
 20
136.2085636344449995
 30
0.0
 10
310.0605125313310282
 20
136.5047594845543415
 30
0.0
  0
SPLINE
  5
1D3
100
AcDbEntity
  8
ENGRAVE
 62
256
370
-1
 48
1.0
  6
BYLAYER
100
AcDbSpline
 70
8
 71
2
 72
6
 73
3
 74
0
 40
0.0
 40
0.0
 40
0.0
 40
1.0
 40
1.0
 40
1.0
 10
310.0605125313310282
 20
136.5047594845543415
 30
0.0
 10
310.2140012592017229
 20
136.8053364713293831
 30
0.0
 10
310.4800071779748123
 20
136.9621858783597474
 30
0.0
  0
SPLINE
  5
1D4
100
AcDbEntity
  8
ENGRAVE
 62
256
370
-1
 48
1.0
  6
BYLAYER
100
AcDbSpline
 70
8
 71
2
 72
6
 73
3
 74
0
 40
0.0
 40
0.0
 40
0.0
 40
1.0
 40
1.0
 40
1.0
 10
310.4800071779748123
 20
136.9621858783597474
 30
0.0
 10
310.7460134474048346
 20
137.1190400408508765
 30
0.0
 10
311.1215295970003467
 20
137.0913503283682644
 30
0.0
  0
SPLINE
  5
1D5
100
AcDbEntity
  8
ENGRAVE
 62
256
370
-1
 48
1.0
  6
BYLAYER
100
AcDbSpline
 70
8
 71
2
 72
6
 73
3
 74
0
 40
0.0
 40
0.0
 40
0.0
 40
1.0
 40
1.0
 40
1.0
 10
311.1215295970003467
 20
137.0913503283682644
 30
0.0
 10
311.4888806204314164
 20
137.0642626938418971
 30
0.0
 10
311.7994649782281158
 20
136.823853993638636
 30
0.0
  0
SPLINE
  5
1D6
100
AcDbEntity
  8
ENGRAVE
 62
256
370
-1
 48
1.0
  6
BYLAYER
100
AcDbSpline
 70
8
 71
2
 72
6
 73
3
 74
0
 40
0.0
 40
0.0
 40
0.0
 40
1.0
 40
1.0
 40
1.0
 10
311.7994649782281158
 20
136.823853993638636
 30
0.0
 10
312.1062667983840129
 20
136.5878313608903341
 30
0.0
 10
312.2560648079784187
 20
136.1704979265334714
 30
0.0
  0
SPLINE
  5
1D7
100
AcDbEntity
  8
ENGRAVE
 62
256
370
-1
 48
1.0
  6
BYLAYER
100
AcDbSpline
 70
8
 71
2
 72
6
 73
3
 74
0
 40
0.0
 40
0.0
 40
0.0
 40
1.0
 40
1.0
 40
1.0
 10
312.2560648079784187
 20
136.1704979265334714
 30
0.0
 10
312.4017806051475645
 20
135.7534702866155101
 30
0.0
 10
312.3641586226646609
 20
135.2432568992064716
 30
0.0
  0
SPLINE
  5
1D8
100
AcDbEntity
  8
ENGRAVE
 62
256
370
-1
 48
1.0
  6
BYLAYER
100
AcDbSpline
 70
8
 71
2
 72
6
 73
3
 74
0
 40
0.0
 40
0.0
 40
0.0
 40
1.0
 40
1.0
 40
1.0
 10
312.3641586226646609
 20
135.2432568992064716
 30
0.0
 10
312.3018570544875274
 20
134.3983494264284388
 30
0.0
 10
311.9180266566427235
 20
133.979331279019874
 30
0.0
  0
SPLINE
  5
1D9
100
AcDbEntity
  8
ENGRAVE
 62
256
370
-1
 48
1.0
  6
BYLAYER
100
AcDbSpline
 70
8
 71
2
 72
6
 73
3
 74
0
 40
0.0
 40
0.0
 40
0.0
 40
1.0
 40
1.0
 40
1.0
 10
311.9180266566427235
 20
133.979331279019874
 30
0.0
 10
311.5344955829254445
 20
133.5643886491665739
 30
0.0
 10
310.8356607759139365
 20
133.4928050064007721
 30
0.0
  0
ENDSEC
  0
SECTION
  2
OBJECTS
  0
DICTIONARY
  5
C
100
AcDbDictionary
280
0
281
1
  3
ACAD_GROUP
350
D
  3
ACAD_LAYOUT
350
1A
  3
ACAD_MLINESTYLE
350
17
  3
ACAD_PLOTSETTINGS
350
19
  3
ACAD_PLOTSTYLENAME
350
E
  3
AcDbVariableDictionary
350
1DA
  3
QCAD_OBJECTS
350
1DB
  0
DICTIONARY
  5
D
100
AcDbDictionary
280
0
281
1
  0
ACDBDICTIONARYWDFLT
  5
E
100
AcDbDictionary
281
1
  3
Normal
350
F
100
AcDbDictionaryWithDefault
340
F
  0
ACDBPLACEHOLDER
  5
F
  0
DICTIONARY
  5
17
100
AcDbDictionary
280
0
281
1
  3
Standard
350
18
  0
MLINESTYLE
  5
18
100
AcDbMlineStyle
  2
STANDARD
 70
0
  3

 62
256
 51
90.0
 52
90.0
 71
2
 49
0.5
 62
256
  6
BYLAYER
 49
-0.5
 62
256
  6
BYLAYER
  0
DICTIONARY
  5
19
100
AcDbDictionary
280
0
281
1
  0
DICTIONARY
  5
1A
100
AcDbDictionary
281
1
  3
Layout1
350
1E
  3
Layout2
350
26
  3
Model
350
22
  0
LAYOUT
  5
1E
100
AcDbPlotSettings
  1

  2
none_device
  4

  6

 40
0.0
 41
0.0
 42
0.0
 43
0.0
 44
0.0
 45
0.0
 46
0.0
 47
0.0
 48
0.0
 49
0.0
140
0.0
141
0.0
142
1.0
143
1.0
 70
688
 72
0
 73
0
 74
5
  7

 75
16
147
1.0
148
0.0
149
0.0
100
AcDbLayout
  1
Layout1
 70
1
 71
1
 10
0.0
 20
0.0
 11
420.0
 21
297.0
 12
0.0
 22
0.0
 32
0.0
 14
100000000000000000000.0
 24
100000000000000000000.0
 34
100000000000000000000.0
 15
-100000000000000000000.0
 25
-100000000000000000000.0
 35
-100000000000000000000.0
146
0.0
 13
0.0
 23
0.0
 33
0.0
 16
1.0
 26
0.0
 36
0.0
 17
0.0
 27
1.0
 37
0.0
 76
0
330
1B
  0
LAYOUT
  5
22
100
AcDbPlotSettings
  1

  2
none_device
  4

  6

 40
0.0
 41
0.0
 42
0.0
 43
0.0
 44
0.0
 45
0.0
 46
0.0
 47
0.0
 48
0.0
 49
0.0
140
0.0
141
0.0
142
1.0
143
1.0
 70
1712
 72
0
 73
0
 74
0
  7

 75
0
147
1.0
148
0.0
149
0.0
100
AcDbLayout
  1
Model
 70
1
 71
0
 10
0.0
 20
0.0
 11
12.0
 21
9.0
 12
0.0
 22
0.0
 32
0.0
 14
0.0
 24
0.0
 34
0.0
 15
0.0
 25
0.0
 35
0.0
146
0.0
 13
0.0
 23
0.0
 33
0.0
 16
1.0
 26
0.0
 36
0.0
 17
0.0
 27
1.0
 37
0.0
 76
0
330
1F
  0
LAYOUT
  5
26
100
AcDbPlotSettings
  1

  2
none_device
  4

  6

 40
0.0
 41
0.0
 42
0.0
 43
0.0
 44
0.0
 45
0.0
 46
0.0
 47
0.0
 48
0.0
 49
0.0
140
0.0
141
0.0
142
1.0
143
1.0
 70
688
 72
0
 73
0
 74
5
  7

 75
16
147
1.0
148
0.0
149
0.0
100
AcDbLayout
  1
Layout2
 70
1
 71
2
 10
0.0
 20
0.0
 11
12.0
 21
9.0
 12
0.0
 22
0.0
 32
0.0
 14
0.0
 24
0.0
 34
0.0
 15
0.0
 25
0.0
 35
0.0
146
0.0
 13
0.0
 23
0.0
 33
0.0
 16
1.0
 26
0.0
 36
0.0
 17
0.0
 27
1.0
 37
0.0
 76
0
330
23
  0
DICTIONARY
  5
1DA
100
AcDbDictionary
281
1
  3
DIMASSOC
350
1DD
  3
HIDETEXT
350
1DC
  0
DICTIONARYVAR
  5
1DC
100
DictionaryVariables
280
0
  1
2
  0
DICTIONARYVAR
  5
1DD
100
DictionaryVariables
280
0
  1
1
  0
DICTIONARY
  5
1DB
100
AcDbDictionary
281
1
  3
ColorSettings/BackgroundColor
350
1DE
  3
ColorSettings/ColorMode
350
1DF
  3
Grid/DisplayGrid00
350
1E0
  3
Grid/DisplayGrid01
350
1E1
  3
Grid/DisplayGrid02
350
1E2
  3
Grid/DisplayGrid03
350
1E3
  3
Grid/GridSpacingX00
350
1E4
  3
Grid/GridSpacingX01
350
1E5
  3
Grid/GridSpacingX02
350
1E6
  3
Grid/GridSpacingX03
350
1E7
  3
Grid/GridSpacingY00
350
1E8
  3
Grid/GridSpacingY01
350
1E9
  3
Grid/GridSpacingY02
350
1EA
  3
Grid/GridSpacingY03
350
1EB
  3
Grid/IsometricGrid00
350
1EC
  3
Grid/IsometricGrid01
350
1ED
  3
Grid/IsometricGrid02
350
1EE
  3
Grid/IsometricGrid03
350
1EF
  3
Grid/IsometricProjection00
350
1F0
  3
Grid/IsometricProjection01
350
1F1
  3
Grid/IsometricProjection02
350
1F2
  3
Grid/IsometricProjection03
350
1F3
  3
Grid/MetaGridSpacingX00
350
1F4
  3
Grid/MetaGridSpacingX01
350
1F5
  3
Grid/MetaGridSpacingX02
350
1F6
  3
Grid/MetaGridSpacingX03
350
1F7
  3
Grid/MetaGridSpacingY00
350
1F8
  3
Grid/MetaGridSpacingY01
350
1F9
  3
Grid/MetaGridSpacingY02
350
1FA
  3
Grid/MetaGridSpacingY03
350
1FB
  3
MultiPageSettings/Columns
350
1FC
  3
MultiPageSettings/GlueMarginsBottom
350
1FD
  3
MultiPageSettings/GlueMarginsLeft
350
1FE
  3
MultiPageSettings/GlueMarginsRight
350
1FF
  3
MultiPageSettings/GlueMarginsTop
350
200
  3
MultiPageSettings/PrintCropMarks
350
201
  3
MultiPageSettings/Rows
350
202
  3
PageSettings/OffsetX
350
203
  3
PageSettings/OffsetY
350
204
  3
PageSettings/PageOrientation
350
205
  3
PageSettings/PaperHeight
350
206
  3
PageSettings/PaperWidth
350
207
  3
PageSettings/Scale
350
208
  3
PageSettings/ShowPaperBorders
350
209
  3
PageTagSettings/EnablePageTags
350
20A
  3
PageTagSettings/TagAlignment
350
20B
  3
PageTagSettings/TagFont
350
20C
  3
PageTagSettings/TagPosition
350
20D
  3
QCADVersion
350
20E
  3
UnitSettings/PaperUnit
350
20F
  3
ViewportCenter
350
210
  3
ViewportHeight
350
211
  3
ViewportWidth
350
212
  0
XRECORD
  5
1DE
330
1DB
100
AcDbXrecord
280
1
1000
White
  0
XRECORD
  5
1DF
330
1DB
100
AcDbXrecord
280
1
1000
FullColor
  0
XRECORD
  5
1E0
330
1DB
100
AcDbXrecord
280
1
290
1
  0
XRECORD
  5
1E1
330
1DB
100
AcDbXrecord
280
1
290
1
  0
XRECORD
  5
1E2
330
1DB
100
AcDbXrecord
280
1
290
1
  0
XRECORD
  5
1E3
330
1DB
100
AcDbXrecord
280
1
290
1
  0
XRECORD
  5
1E4
330
1DB
100
AcDbXrecord
280
1
1000
auto
  0
XRECORD
  5
1E5
330
1DB
100
AcDbXrecord
280
1
1000
auto
  0
XRECORD
  5
1E6
330
1DB
100
AcDbXrecord
280
1
1000
auto
  0
XRECORD
  5
1E7
330
1DB
100
AcDbXrecord
280
1
1000
auto
  0
XRECORD
  5
1E8
330
1DB
100
AcDbXrecord
280
1
1000
auto
  0
XRECORD
  5
1E9
330
1DB
100
AcDbXrecord
280
1
1000
auto
  0
XRECORD
  5
1EA
330
1DB
100
AcDbXrecord
280
1
1000
auto
  0
XRECORD
  5
1EB
330
1DB
100
AcDbXrecord
280
1
1000
auto
  0
XRECORD
  5
1EC
330
1DB
100
AcDbXrecord
280
1
290
0
  0
XRECORD
  5
1ED
330
1DB
100
AcDbXrecord
280
1
290
0
  0
XRECORD
  5
1EE
330
1DB
100
AcDbXrecord
280
1
290
0
  0
XRECORD
  5
1EF
330
1DB
100
AcDbXrecord
280
1
290
0
  0
XRECORD
  5
1F0
330
1DB
100
AcDbXrecord
280
1
 90
65537
  0
XRECORD
  5
1F1
330
1DB
100
AcDbXrecord
280
1
 90
65537
  0
XRECORD
  5
1F2
330
1DB
100
AcDbXrecord
280
1
 90
65537
  0
XRECORD
  5
1F3
330
1DB
100
AcDbXrecord
280
1
 90
65537
  0
XRECORD
  5
1F4
330
1DB
100
AcDbXrecord
280
1
1000
auto
  0
XRECORD
  5
1F5
330
1DB
100
AcDbXrecord
280
1
1000
auto
  0
XRECORD
  5
1F6
330
1DB
100
AcDbXrecord
280
1
1000
auto
  0
XRECORD
  5
1F7
330
1DB
100
AcDbXrecord
280
1
1000
auto
  0
XRECORD
  5
1F8
330
1DB
100
AcDbXrecord
280
1
1000
auto
  0
XRECORD
  5
1F9
330
1DB
100
AcDbXrecord
280
1
1000
auto
  0
XRECORD
  5
1FA
330
1DB
100
AcDbXrecord
280
1
1000
auto
  0
XRECORD
  5
1FB
330
1DB
100
AcDbXrecord
280
1
1000
auto
  0
XRECORD
  5
1FC
330
1DB
100
AcDbXrecord
280
1
 90
1
  0
XRECORD
  5
1FD
330
1DB
100
AcDbXrecord
280
1
 40
0.5
  0
XRECORD
  5
1FE
330
1DB
100
AcDbXrecord
280
1
 40
0.5
  0
XRECORD
  5
1FF
330
1DB
100
AcDbXrecord
280
1
 40
0.5
  0
XRECORD
  5
200
330
1DB
100
AcDbXrecord
280
1
 40
0.5
  0
XRECORD
  5
201
330
1DB
100
AcDbXrecord
280
1
290
0
  0
XRECORD
  5
202
330
1DB
100
AcDbXrecord
280
1
 90
1
  0
XRECORD
  5
203
330
1DB
100
AcDbXrecord
280
1
 40
0.0
  0
XRECORD
  5
204
330
1DB
100
AcDbXrecord
280
1
 40
0.0
  0
XRECORD
  5
205
330
1DB
100
AcDbXrecord
280
1
1000
Portrait
  0
XRECORD
  5
206
330
1DB
100
AcDbXrecord
280
1
 40
11.0
  0
XRECORD
  5
207
330
1DB
100
AcDbXrecord
280
1
 40
8.5
  0
XRECORD
  5
208
330
1DB
100
AcDbXrecord
280
1
1000
1:1
  0
XRECORD
  5
209
330
1DB
100
AcDbXrecord
280
1
290
1
  0
XRECORD
  5
20A
330
1DB
100
AcDbXrecord
280
1
290
0
  0
XRECORD
  5
20B
330
1DB
100
AcDbXrecord
280
1
1000
Inside
  0
XRECORD
  5
20C
330
1DB
100
AcDbXrecord
280
1
1000
Arial,10,-1,5,50,0,0,0,0,0
  0
XRECORD
  5
20D
330
1DB
100
AcDbXrecord
280
1
1000
TopLeft
  0
XRECORD
  5
20E
330
1DB
100
AcDbXrecord
280
1
1000
3.26.4.6
  0
XRECORD
  5
20F
330
1DB
100
AcDbXrecord
280
1
 90
1
  0
XRECORD
  5
211
330
1DB
100
AcDbXrecord
280
1
 40
590.350078092176318
  0
XRECORD
  5
212
330
1DB
100
AcDbXrecord
280
1
 40
1142.7297070574438749
  0
ENDSEC
  0
EOF
